G04 #@! TF.FileFunction,Soldermask,Top*
%FSLAX46Y46*%
G04 Gerber Fmt 4.6, Leading zero omitted, Abs format (unit mm)*
G04 Created by KiCad (PCBNEW 4.0.7) date Tue Jan 16 16:57:22 2018*
%MOMM*%
%LPD*%
G01*
G04 APERTURE LIST*
%ADD10C,0.100000*%
%ADD11R,1.650000X1.400000*%
%ADD12R,2.000000X1.400000*%
%ADD13R,1.200000X1.150000*%
%ADD14R,1.150000X1.200000*%
%ADD15R,1.200000X1.200000*%
%ADD16R,2.200000X2.900000*%
%ADD17R,2.900000X2.200000*%
%ADD18R,1.300000X0.900000*%
%ADD19R,0.800000X1.750000*%
%ADD20O,1.650000X1.350000*%
%ADD21O,1.400000X1.950000*%
%ADD22R,2.100000X2.100000*%
%ADD23O,2.100000X2.100000*%
%ADD24R,0.900000X1.300000*%
%ADD25R,1.400000X1.950000*%
%ADD26R,2.400000X4.200000*%
%ADD27R,2.400000X1.900000*%
%ADD28R,1.050000X1.460000*%
%ADD29R,1.400000X1.550000*%
%ADD30R,2.127200X2.127200*%
%ADD31O,2.127200X2.127200*%
G04 APERTURE END LIST*
D10*
D11*
X122000000Y-72800000D03*
X122000000Y-74800000D03*
D12*
X119400000Y-74900000D03*
X119400000Y-77900000D03*
D13*
X99750000Y-52200000D03*
X98250000Y-52200000D03*
D14*
X64800000Y-67650000D03*
X64800000Y-69150000D03*
X79000000Y-81750000D03*
X79000000Y-80250000D03*
D13*
X81050000Y-83800000D03*
X82550000Y-83800000D03*
D14*
X55600000Y-72550000D03*
X55600000Y-71050000D03*
X55800000Y-82550000D03*
X55800000Y-81050000D03*
D13*
X99750000Y-78600000D03*
X98250000Y-78600000D03*
X84650000Y-83000000D03*
X86150000Y-83000000D03*
X79450000Y-77200000D03*
X80950000Y-77200000D03*
X81950000Y-71800000D03*
X80450000Y-71800000D03*
X100550000Y-77000000D03*
X99050000Y-77000000D03*
X93350000Y-66600000D03*
X91850000Y-66600000D03*
D14*
X93400000Y-84550000D03*
X93400000Y-83050000D03*
D15*
X62400000Y-81000000D03*
X64000000Y-81000000D03*
X62400000Y-75000000D03*
X64000000Y-75000000D03*
X62400000Y-77000000D03*
X64000000Y-77000000D03*
X62400000Y-79000000D03*
X64000000Y-79000000D03*
D16*
X106200000Y-77000000D03*
X106200000Y-73000000D03*
D15*
X104400000Y-56400000D03*
X102800000Y-56400000D03*
D17*
X71600000Y-69000000D03*
X67600000Y-69000000D03*
D18*
X99800000Y-58450000D03*
X99800000Y-59950000D03*
D19*
X91300000Y-54150000D03*
X90650000Y-54150000D03*
X90000000Y-54150000D03*
X89350000Y-54150000D03*
X88700000Y-54150000D03*
D20*
X92500000Y-54150000D03*
X87500000Y-54150000D03*
D21*
X93500000Y-51450000D03*
X86500000Y-51450000D03*
D22*
X121350000Y-88730000D03*
D23*
X121350000Y-91270000D03*
X118810000Y-88730000D03*
X118810000Y-91270000D03*
X116270000Y-88730000D03*
X116270000Y-91270000D03*
X113730000Y-88730000D03*
X113730000Y-91270000D03*
X111190000Y-88730000D03*
X111190000Y-91270000D03*
X108650000Y-88730000D03*
X108650000Y-91270000D03*
D22*
X121350000Y-58730000D03*
D23*
X121350000Y-61270000D03*
X118810000Y-58730000D03*
X118810000Y-61270000D03*
X116270000Y-58730000D03*
X116270000Y-61270000D03*
X113730000Y-58730000D03*
X113730000Y-61270000D03*
X111190000Y-58730000D03*
X111190000Y-61270000D03*
X108650000Y-58730000D03*
X108650000Y-61270000D03*
D24*
X67550000Y-81000000D03*
X66050000Y-81000000D03*
X67550000Y-75000000D03*
X66050000Y-75000000D03*
X67550000Y-77000000D03*
X66050000Y-77000000D03*
X67550000Y-79000000D03*
X66050000Y-79000000D03*
D18*
X96600000Y-61050000D03*
X96600000Y-62550000D03*
X94600000Y-61050000D03*
X94600000Y-62550000D03*
D24*
X102950000Y-52200000D03*
X101450000Y-52200000D03*
D18*
X96800000Y-54650000D03*
X96800000Y-56150000D03*
D24*
X102850000Y-58400000D03*
X104350000Y-58400000D03*
X84850000Y-87400000D03*
X86350000Y-87400000D03*
D18*
X94400000Y-89150000D03*
X94400000Y-87650000D03*
X55600000Y-67650000D03*
X55600000Y-69150000D03*
X55800000Y-79150000D03*
X55800000Y-77650000D03*
D25*
X52650000Y-67375000D03*
X52650000Y-72625000D03*
X50950000Y-72625000D03*
X50950000Y-67375000D03*
X52650000Y-77375000D03*
X52650000Y-82625000D03*
X50950000Y-82625000D03*
X50950000Y-77375000D03*
D26*
X110050000Y-75000000D03*
D27*
X116350000Y-75000000D03*
X116350000Y-72700000D03*
X116350000Y-77300000D03*
D28*
X98850000Y-56300000D03*
X99800000Y-56300000D03*
X100750000Y-56300000D03*
X100750000Y-54100000D03*
X98850000Y-54100000D03*
X99800000Y-54100000D03*
D10*
G36*
X83052676Y-77103642D02*
X82593057Y-76644023D01*
X83583006Y-75654074D01*
X84042625Y-76113693D01*
X83052676Y-77103642D01*
X83052676Y-77103642D01*
G37*
G36*
X83406229Y-77457196D02*
X82946610Y-76997577D01*
X83936559Y-76007628D01*
X84396178Y-76467247D01*
X83406229Y-77457196D01*
X83406229Y-77457196D01*
G37*
G36*
X83759783Y-77810749D02*
X83300164Y-77351130D01*
X84290113Y-76361181D01*
X84749732Y-76820800D01*
X83759783Y-77810749D01*
X83759783Y-77810749D01*
G37*
G36*
X84113336Y-78164302D02*
X83653717Y-77704683D01*
X84643666Y-76714734D01*
X85103285Y-77174353D01*
X84113336Y-78164302D01*
X84113336Y-78164302D01*
G37*
G36*
X84466889Y-78517856D02*
X84007270Y-78058237D01*
X84997219Y-77068288D01*
X85456838Y-77527907D01*
X84466889Y-78517856D01*
X84466889Y-78517856D01*
G37*
G36*
X84820443Y-78871409D02*
X84360824Y-78411790D01*
X85350773Y-77421841D01*
X85810392Y-77881460D01*
X84820443Y-78871409D01*
X84820443Y-78871409D01*
G37*
G36*
X85173996Y-79224963D02*
X84714377Y-78765344D01*
X85704326Y-77775395D01*
X86163945Y-78235014D01*
X85173996Y-79224963D01*
X85173996Y-79224963D01*
G37*
G36*
X85527550Y-79578516D02*
X85067931Y-79118897D01*
X86057880Y-78128948D01*
X86517499Y-78588567D01*
X85527550Y-79578516D01*
X85527550Y-79578516D01*
G37*
G36*
X85881103Y-79932069D02*
X85421484Y-79472450D01*
X86411433Y-78482501D01*
X86871052Y-78942120D01*
X85881103Y-79932069D01*
X85881103Y-79932069D01*
G37*
G36*
X86234656Y-80285623D02*
X85775037Y-79826004D01*
X86764986Y-78836055D01*
X87224605Y-79295674D01*
X86234656Y-80285623D01*
X86234656Y-80285623D01*
G37*
G36*
X86588210Y-80639176D02*
X86128591Y-80179557D01*
X87118540Y-79189608D01*
X87578159Y-79649227D01*
X86588210Y-80639176D01*
X86588210Y-80639176D01*
G37*
G36*
X86941763Y-80992730D02*
X86482144Y-80533111D01*
X87472093Y-79543162D01*
X87931712Y-80002781D01*
X86941763Y-80992730D01*
X86941763Y-80992730D01*
G37*
G36*
X87295317Y-81346283D02*
X86835698Y-80886664D01*
X87825647Y-79896715D01*
X88285266Y-80356334D01*
X87295317Y-81346283D01*
X87295317Y-81346283D01*
G37*
G36*
X87648870Y-81699836D02*
X87189251Y-81240217D01*
X88179200Y-80250268D01*
X88638819Y-80709887D01*
X87648870Y-81699836D01*
X87648870Y-81699836D01*
G37*
G36*
X88002423Y-82053390D02*
X87542804Y-81593771D01*
X88532753Y-80603822D01*
X88992372Y-81063441D01*
X88002423Y-82053390D01*
X88002423Y-82053390D01*
G37*
G36*
X88355977Y-82406943D02*
X87896358Y-81947324D01*
X88886307Y-80957375D01*
X89345926Y-81416994D01*
X88355977Y-82406943D01*
X88355977Y-82406943D01*
G37*
G36*
X92103642Y-81947324D02*
X91644023Y-82406943D01*
X90654074Y-81416994D01*
X91113693Y-80957375D01*
X92103642Y-81947324D01*
X92103642Y-81947324D01*
G37*
G36*
X92457196Y-81593771D02*
X91997577Y-82053390D01*
X91007628Y-81063441D01*
X91467247Y-80603822D01*
X92457196Y-81593771D01*
X92457196Y-81593771D01*
G37*
G36*
X92810749Y-81240217D02*
X92351130Y-81699836D01*
X91361181Y-80709887D01*
X91820800Y-80250268D01*
X92810749Y-81240217D01*
X92810749Y-81240217D01*
G37*
G36*
X93164302Y-80886664D02*
X92704683Y-81346283D01*
X91714734Y-80356334D01*
X92174353Y-79896715D01*
X93164302Y-80886664D01*
X93164302Y-80886664D01*
G37*
G36*
X93517856Y-80533111D02*
X93058237Y-80992730D01*
X92068288Y-80002781D01*
X92527907Y-79543162D01*
X93517856Y-80533111D01*
X93517856Y-80533111D01*
G37*
G36*
X93871409Y-80179557D02*
X93411790Y-80639176D01*
X92421841Y-79649227D01*
X92881460Y-79189608D01*
X93871409Y-80179557D01*
X93871409Y-80179557D01*
G37*
G36*
X94224963Y-79826004D02*
X93765344Y-80285623D01*
X92775395Y-79295674D01*
X93235014Y-78836055D01*
X94224963Y-79826004D01*
X94224963Y-79826004D01*
G37*
G36*
X94578516Y-79472450D02*
X94118897Y-79932069D01*
X93128948Y-78942120D01*
X93588567Y-78482501D01*
X94578516Y-79472450D01*
X94578516Y-79472450D01*
G37*
G36*
X94932069Y-79118897D02*
X94472450Y-79578516D01*
X93482501Y-78588567D01*
X93942120Y-78128948D01*
X94932069Y-79118897D01*
X94932069Y-79118897D01*
G37*
G36*
X95285623Y-78765344D02*
X94826004Y-79224963D01*
X93836055Y-78235014D01*
X94295674Y-77775395D01*
X95285623Y-78765344D01*
X95285623Y-78765344D01*
G37*
G36*
X95639176Y-78411790D02*
X95179557Y-78871409D01*
X94189608Y-77881460D01*
X94649227Y-77421841D01*
X95639176Y-78411790D01*
X95639176Y-78411790D01*
G37*
G36*
X95992730Y-78058237D02*
X95533111Y-78517856D01*
X94543162Y-77527907D01*
X95002781Y-77068288D01*
X95992730Y-78058237D01*
X95992730Y-78058237D01*
G37*
G36*
X96346283Y-77704683D02*
X95886664Y-78164302D01*
X94896715Y-77174353D01*
X95356334Y-76714734D01*
X96346283Y-77704683D01*
X96346283Y-77704683D01*
G37*
G36*
X96699836Y-77351130D02*
X96240217Y-77810749D01*
X95250268Y-76820800D01*
X95709887Y-76361181D01*
X96699836Y-77351130D01*
X96699836Y-77351130D01*
G37*
G36*
X97053390Y-76997577D02*
X96593771Y-77457196D01*
X95603822Y-76467247D01*
X96063441Y-76007628D01*
X97053390Y-76997577D01*
X97053390Y-76997577D01*
G37*
G36*
X97406943Y-76644023D02*
X96947324Y-77103642D01*
X95957375Y-76113693D01*
X96416994Y-75654074D01*
X97406943Y-76644023D01*
X97406943Y-76644023D01*
G37*
G36*
X96416994Y-74345926D02*
X95957375Y-73886307D01*
X96947324Y-72896358D01*
X97406943Y-73355977D01*
X96416994Y-74345926D01*
X96416994Y-74345926D01*
G37*
G36*
X96063441Y-73992372D02*
X95603822Y-73532753D01*
X96593771Y-72542804D01*
X97053390Y-73002423D01*
X96063441Y-73992372D01*
X96063441Y-73992372D01*
G37*
G36*
X95709887Y-73638819D02*
X95250268Y-73179200D01*
X96240217Y-72189251D01*
X96699836Y-72648870D01*
X95709887Y-73638819D01*
X95709887Y-73638819D01*
G37*
G36*
X95356334Y-73285266D02*
X94896715Y-72825647D01*
X95886664Y-71835698D01*
X96346283Y-72295317D01*
X95356334Y-73285266D01*
X95356334Y-73285266D01*
G37*
G36*
X95002781Y-72931712D02*
X94543162Y-72472093D01*
X95533111Y-71482144D01*
X95992730Y-71941763D01*
X95002781Y-72931712D01*
X95002781Y-72931712D01*
G37*
G36*
X94649227Y-72578159D02*
X94189608Y-72118540D01*
X95179557Y-71128591D01*
X95639176Y-71588210D01*
X94649227Y-72578159D01*
X94649227Y-72578159D01*
G37*
G36*
X94295674Y-72224605D02*
X93836055Y-71764986D01*
X94826004Y-70775037D01*
X95285623Y-71234656D01*
X94295674Y-72224605D01*
X94295674Y-72224605D01*
G37*
G36*
X93942120Y-71871052D02*
X93482501Y-71411433D01*
X94472450Y-70421484D01*
X94932069Y-70881103D01*
X93942120Y-71871052D01*
X93942120Y-71871052D01*
G37*
G36*
X93588567Y-71517499D02*
X93128948Y-71057880D01*
X94118897Y-70067931D01*
X94578516Y-70527550D01*
X93588567Y-71517499D01*
X93588567Y-71517499D01*
G37*
G36*
X93235014Y-71163945D02*
X92775395Y-70704326D01*
X93765344Y-69714377D01*
X94224963Y-70173996D01*
X93235014Y-71163945D01*
X93235014Y-71163945D01*
G37*
G36*
X92881460Y-70810392D02*
X92421841Y-70350773D01*
X93411790Y-69360824D01*
X93871409Y-69820443D01*
X92881460Y-70810392D01*
X92881460Y-70810392D01*
G37*
G36*
X92527907Y-70456838D02*
X92068288Y-69997219D01*
X93058237Y-69007270D01*
X93517856Y-69466889D01*
X92527907Y-70456838D01*
X92527907Y-70456838D01*
G37*
G36*
X92174353Y-70103285D02*
X91714734Y-69643666D01*
X92704683Y-68653717D01*
X93164302Y-69113336D01*
X92174353Y-70103285D01*
X92174353Y-70103285D01*
G37*
G36*
X91820800Y-69749732D02*
X91361181Y-69290113D01*
X92351130Y-68300164D01*
X92810749Y-68759783D01*
X91820800Y-69749732D01*
X91820800Y-69749732D01*
G37*
G36*
X91467247Y-69396178D02*
X91007628Y-68936559D01*
X91997577Y-67946610D01*
X92457196Y-68406229D01*
X91467247Y-69396178D01*
X91467247Y-69396178D01*
G37*
G36*
X91113693Y-69042625D02*
X90654074Y-68583006D01*
X91644023Y-67593057D01*
X92103642Y-68052676D01*
X91113693Y-69042625D01*
X91113693Y-69042625D01*
G37*
G36*
X89345926Y-68583006D02*
X88886307Y-69042625D01*
X87896358Y-68052676D01*
X88355977Y-67593057D01*
X89345926Y-68583006D01*
X89345926Y-68583006D01*
G37*
G36*
X88992372Y-68936559D02*
X88532753Y-69396178D01*
X87542804Y-68406229D01*
X88002423Y-67946610D01*
X88992372Y-68936559D01*
X88992372Y-68936559D01*
G37*
G36*
X88638819Y-69290113D02*
X88179200Y-69749732D01*
X87189251Y-68759783D01*
X87648870Y-68300164D01*
X88638819Y-69290113D01*
X88638819Y-69290113D01*
G37*
G36*
X88285266Y-69643666D02*
X87825647Y-70103285D01*
X86835698Y-69113336D01*
X87295317Y-68653717D01*
X88285266Y-69643666D01*
X88285266Y-69643666D01*
G37*
G36*
X87931712Y-69997219D02*
X87472093Y-70456838D01*
X86482144Y-69466889D01*
X86941763Y-69007270D01*
X87931712Y-69997219D01*
X87931712Y-69997219D01*
G37*
G36*
X87578159Y-70350773D02*
X87118540Y-70810392D01*
X86128591Y-69820443D01*
X86588210Y-69360824D01*
X87578159Y-70350773D01*
X87578159Y-70350773D01*
G37*
G36*
X87224605Y-70704326D02*
X86764986Y-71163945D01*
X85775037Y-70173996D01*
X86234656Y-69714377D01*
X87224605Y-70704326D01*
X87224605Y-70704326D01*
G37*
G36*
X86871052Y-71057880D02*
X86411433Y-71517499D01*
X85421484Y-70527550D01*
X85881103Y-70067931D01*
X86871052Y-71057880D01*
X86871052Y-71057880D01*
G37*
G36*
X86517499Y-71411433D02*
X86057880Y-71871052D01*
X85067931Y-70881103D01*
X85527550Y-70421484D01*
X86517499Y-71411433D01*
X86517499Y-71411433D01*
G37*
G36*
X86163945Y-71764986D02*
X85704326Y-72224605D01*
X84714377Y-71234656D01*
X85173996Y-70775037D01*
X86163945Y-71764986D01*
X86163945Y-71764986D01*
G37*
G36*
X85810392Y-72118540D02*
X85350773Y-72578159D01*
X84360824Y-71588210D01*
X84820443Y-71128591D01*
X85810392Y-72118540D01*
X85810392Y-72118540D01*
G37*
G36*
X85456838Y-72472093D02*
X84997219Y-72931712D01*
X84007270Y-71941763D01*
X84466889Y-71482144D01*
X85456838Y-72472093D01*
X85456838Y-72472093D01*
G37*
G36*
X85103285Y-72825647D02*
X84643666Y-73285266D01*
X83653717Y-72295317D01*
X84113336Y-71835698D01*
X85103285Y-72825647D01*
X85103285Y-72825647D01*
G37*
G36*
X84749732Y-73179200D02*
X84290113Y-73638819D01*
X83300164Y-72648870D01*
X83759783Y-72189251D01*
X84749732Y-73179200D01*
X84749732Y-73179200D01*
G37*
G36*
X84396178Y-73532753D02*
X83936559Y-73992372D01*
X82946610Y-73002423D01*
X83406229Y-72542804D01*
X84396178Y-73532753D01*
X84396178Y-73532753D01*
G37*
G36*
X84042625Y-73886307D02*
X83583006Y-74345926D01*
X82593057Y-73355977D01*
X83052676Y-72896358D01*
X84042625Y-73886307D01*
X84042625Y-73886307D01*
G37*
D29*
X81100000Y-80125000D03*
X81100000Y-81875000D03*
X82500000Y-81875000D03*
X82500000Y-80125000D03*
D30*
X63200000Y-61000000D03*
D31*
X63200000Y-58460000D03*
X65740000Y-61000000D03*
X65740000Y-58460000D03*
X68280000Y-61000000D03*
X68280000Y-58460000D03*
X70820000Y-61000000D03*
X70820000Y-58460000D03*
X73360000Y-61000000D03*
X73360000Y-58460000D03*
D13*
X90750000Y-85000000D03*
X89250000Y-85000000D03*
D14*
X70000000Y-93650000D03*
X70000000Y-95150000D03*
M02*
