G04 #@! TF.FileFunction,Legend,Top*
%FSLAX46Y46*%
G04 Gerber Fmt 4.6, Leading zero omitted, Abs format (unit mm)*
G04 Created by KiCad (PCBNEW 4.0.7) date Tue Jan 16 16:57:22 2018*
%MOMM*%
%LPD*%
G01*
G04 APERTURE LIST*
%ADD10C,0.100000*%
%ADD11C,0.200000*%
%ADD12C,0.300000*%
%ADD13C,0.120000*%
%ADD14C,0.150000*%
G04 APERTURE END LIST*
D10*
D11*
X53547619Y-86452381D02*
X53214285Y-85976190D01*
X52976190Y-86452381D02*
X52976190Y-85452381D01*
X53357143Y-85452381D01*
X53452381Y-85500000D01*
X53500000Y-85547619D01*
X53547619Y-85642857D01*
X53547619Y-85785714D01*
X53500000Y-85880952D01*
X53452381Y-85928571D01*
X53357143Y-85976190D01*
X52976190Y-85976190D01*
X53976190Y-85928571D02*
X54309524Y-85928571D01*
X54452381Y-86452381D02*
X53976190Y-86452381D01*
X53976190Y-85452381D01*
X54452381Y-85452381D01*
X54833333Y-86404762D02*
X54976190Y-86452381D01*
X55214286Y-86452381D01*
X55309524Y-86404762D01*
X55357143Y-86357143D01*
X55404762Y-86261905D01*
X55404762Y-86166667D01*
X55357143Y-86071429D01*
X55309524Y-86023810D01*
X55214286Y-85976190D01*
X55023809Y-85928571D01*
X54928571Y-85880952D01*
X54880952Y-85833333D01*
X54833333Y-85738095D01*
X54833333Y-85642857D01*
X54880952Y-85547619D01*
X54928571Y-85500000D01*
X55023809Y-85452381D01*
X55261905Y-85452381D01*
X55404762Y-85500000D01*
X55833333Y-85928571D02*
X56166667Y-85928571D01*
X56309524Y-86452381D02*
X55833333Y-86452381D01*
X55833333Y-85452381D01*
X56309524Y-85452381D01*
X56595238Y-85452381D02*
X57166667Y-85452381D01*
X56880952Y-86452381D02*
X56880952Y-85452381D01*
D12*
X83071430Y-95403571D02*
X83071430Y-93903571D01*
X83928573Y-95403571D02*
X83285716Y-94546429D01*
X83928573Y-93903571D02*
X83071430Y-94760714D01*
X84500001Y-95332143D02*
X84714287Y-95403571D01*
X85071430Y-95403571D01*
X85214287Y-95332143D01*
X85285716Y-95260714D01*
X85357144Y-95117857D01*
X85357144Y-94975000D01*
X85285716Y-94832143D01*
X85214287Y-94760714D01*
X85071430Y-94689286D01*
X84785716Y-94617857D01*
X84642858Y-94546429D01*
X84571430Y-94475000D01*
X84500001Y-94332143D01*
X84500001Y-94189286D01*
X84571430Y-94046429D01*
X84642858Y-93975000D01*
X84785716Y-93903571D01*
X85142858Y-93903571D01*
X85357144Y-93975000D01*
X86000001Y-95403571D02*
X86000001Y-93903571D01*
X86857144Y-95403571D02*
X86214287Y-94546429D01*
X86857144Y-93903571D02*
X86000001Y-94760714D01*
X88285715Y-95403571D02*
X87428572Y-95403571D01*
X87857144Y-95403571D02*
X87857144Y-93903571D01*
X87714287Y-94117857D01*
X87571429Y-94260714D01*
X87428572Y-94332143D01*
X89214286Y-93903571D02*
X89357143Y-93903571D01*
X89500000Y-93975000D01*
X89571429Y-94046429D01*
X89642858Y-94189286D01*
X89714286Y-94475000D01*
X89714286Y-94832143D01*
X89642858Y-95117857D01*
X89571429Y-95260714D01*
X89500000Y-95332143D01*
X89357143Y-95403571D01*
X89214286Y-95403571D01*
X89071429Y-95332143D01*
X89000000Y-95260714D01*
X88928572Y-95117857D01*
X88857143Y-94832143D01*
X88857143Y-94475000D01*
X88928572Y-94189286D01*
X89000000Y-94046429D01*
X89071429Y-93975000D01*
X89214286Y-93903571D01*
X90642857Y-93903571D02*
X90785714Y-93903571D01*
X90928571Y-93975000D01*
X91000000Y-94046429D01*
X91071429Y-94189286D01*
X91142857Y-94475000D01*
X91142857Y-94832143D01*
X91071429Y-95117857D01*
X91000000Y-95260714D01*
X90928571Y-95332143D01*
X90785714Y-95403571D01*
X90642857Y-95403571D01*
X90500000Y-95332143D01*
X90428571Y-95260714D01*
X90357143Y-95117857D01*
X90285714Y-94832143D01*
X90285714Y-94475000D01*
X90357143Y-94189286D01*
X90428571Y-94046429D01*
X90500000Y-93975000D01*
X90642857Y-93903571D01*
X92785714Y-94403571D02*
X93142857Y-95403571D01*
X93499999Y-94403571D01*
X94857142Y-95403571D02*
X93999999Y-95403571D01*
X94428571Y-95403571D02*
X94428571Y-93903571D01*
X94285714Y-94117857D01*
X94142856Y-94260714D01*
X93999999Y-94332143D01*
X95499999Y-95260714D02*
X95571427Y-95332143D01*
X95499999Y-95403571D01*
X95428570Y-95332143D01*
X95499999Y-95260714D01*
X95499999Y-95403571D01*
X96499999Y-93903571D02*
X96642856Y-93903571D01*
X96785713Y-93975000D01*
X96857142Y-94046429D01*
X96928571Y-94189286D01*
X96999999Y-94475000D01*
X96999999Y-94832143D01*
X96928571Y-95117857D01*
X96857142Y-95260714D01*
X96785713Y-95332143D01*
X96642856Y-95403571D01*
X96499999Y-95403571D01*
X96357142Y-95332143D01*
X96285713Y-95260714D01*
X96214285Y-95117857D01*
X96142856Y-94832143D01*
X96142856Y-94475000D01*
X96214285Y-94189286D01*
X96285713Y-94046429D01*
X96357142Y-93975000D01*
X96499999Y-93903571D01*
X83821429Y-97167857D02*
X84035715Y-97239286D01*
X84107143Y-97310714D01*
X84178572Y-97453571D01*
X84178572Y-97667857D01*
X84107143Y-97810714D01*
X84035715Y-97882143D01*
X83892857Y-97953571D01*
X83321429Y-97953571D01*
X83321429Y-96453571D01*
X83821429Y-96453571D01*
X83964286Y-96525000D01*
X84035715Y-96596429D01*
X84107143Y-96739286D01*
X84107143Y-96882143D01*
X84035715Y-97025000D01*
X83964286Y-97096429D01*
X83821429Y-97167857D01*
X83321429Y-97167857D01*
X85392857Y-97882143D02*
X85250000Y-97953571D01*
X84964286Y-97953571D01*
X84821429Y-97882143D01*
X84750000Y-97739286D01*
X84750000Y-97167857D01*
X84821429Y-97025000D01*
X84964286Y-96953571D01*
X85250000Y-96953571D01*
X85392857Y-97025000D01*
X85464286Y-97167857D01*
X85464286Y-97310714D01*
X84750000Y-97453571D01*
X86107143Y-96953571D02*
X86107143Y-97953571D01*
X86107143Y-97096429D02*
X86178571Y-97025000D01*
X86321429Y-96953571D01*
X86535714Y-96953571D01*
X86678571Y-97025000D01*
X86750000Y-97167857D01*
X86750000Y-97953571D01*
X88607143Y-97953571D02*
X88607143Y-96453571D01*
X89107143Y-97525000D01*
X89607143Y-96453571D01*
X89607143Y-97953571D01*
X90321429Y-97953571D02*
X90321429Y-96953571D01*
X90321429Y-96453571D02*
X90250000Y-96525000D01*
X90321429Y-96596429D01*
X90392857Y-96525000D01*
X90321429Y-96453571D01*
X90321429Y-96596429D01*
X90821429Y-96953571D02*
X91392858Y-96953571D01*
X91035715Y-96453571D02*
X91035715Y-97739286D01*
X91107143Y-97882143D01*
X91250001Y-97953571D01*
X91392858Y-97953571D01*
X92535715Y-97882143D02*
X92392858Y-97953571D01*
X92107144Y-97953571D01*
X91964286Y-97882143D01*
X91892858Y-97810714D01*
X91821429Y-97667857D01*
X91821429Y-97239286D01*
X91892858Y-97096429D01*
X91964286Y-97025000D01*
X92107144Y-96953571D01*
X92392858Y-96953571D01*
X92535715Y-97025000D01*
X93178572Y-97953571D02*
X93178572Y-96453571D01*
X93821429Y-97953571D02*
X93821429Y-97167857D01*
X93750000Y-97025000D01*
X93607143Y-96953571D01*
X93392858Y-96953571D01*
X93250000Y-97025000D01*
X93178572Y-97096429D01*
X95107143Y-97882143D02*
X94964286Y-97953571D01*
X94678572Y-97953571D01*
X94535715Y-97882143D01*
X94464286Y-97739286D01*
X94464286Y-97167857D01*
X94535715Y-97025000D01*
X94678572Y-96953571D01*
X94964286Y-96953571D01*
X95107143Y-97025000D01*
X95178572Y-97167857D01*
X95178572Y-97310714D01*
X94464286Y-97453571D01*
X96035715Y-97953571D02*
X95892857Y-97882143D01*
X95821429Y-97739286D01*
X95821429Y-96453571D01*
X96821429Y-97953571D02*
X96678571Y-97882143D01*
X96607143Y-97739286D01*
X96607143Y-96453571D01*
D13*
X122850000Y-74300000D02*
X122850000Y-73300000D01*
X121150000Y-73300000D02*
X121150000Y-74300000D01*
X120420000Y-77400000D02*
X120420000Y-75400000D01*
X118380000Y-75400000D02*
X118380000Y-77400000D01*
X99350000Y-52800000D02*
X98650000Y-52800000D01*
X98650000Y-51600000D02*
X99350000Y-51600000D01*
X65400000Y-68050000D02*
X65400000Y-68750000D01*
X64200000Y-68750000D02*
X64200000Y-68050000D01*
X78400000Y-81350000D02*
X78400000Y-80650000D01*
X79600000Y-80650000D02*
X79600000Y-81350000D01*
X81450000Y-83200000D02*
X82150000Y-83200000D01*
X82150000Y-84400000D02*
X81450000Y-84400000D01*
X55000000Y-72150000D02*
X55000000Y-71450000D01*
X56200000Y-71450000D02*
X56200000Y-72150000D01*
X55200000Y-82150000D02*
X55200000Y-81450000D01*
X56400000Y-81450000D02*
X56400000Y-82150000D01*
X99350000Y-79200000D02*
X98650000Y-79200000D01*
X98650000Y-78000000D02*
X99350000Y-78000000D01*
X85050000Y-82400000D02*
X85750000Y-82400000D01*
X85750000Y-83600000D02*
X85050000Y-83600000D01*
X79850000Y-76600000D02*
X80550000Y-76600000D01*
X80550000Y-77800000D02*
X79850000Y-77800000D01*
X81550000Y-72400000D02*
X80850000Y-72400000D01*
X80850000Y-71200000D02*
X81550000Y-71200000D01*
X100150000Y-77600000D02*
X99450000Y-77600000D01*
X99450000Y-76400000D02*
X100150000Y-76400000D01*
X92950000Y-67200000D02*
X92250000Y-67200000D01*
X92250000Y-66000000D02*
X92950000Y-66000000D01*
X92800000Y-84150000D02*
X92800000Y-83450000D01*
X94000000Y-83450000D02*
X94000000Y-84150000D01*
X64500000Y-81500000D02*
X64500000Y-80500000D01*
X64500000Y-80500000D02*
X62400000Y-80500000D01*
X64500000Y-81500000D02*
X62400000Y-81500000D01*
X64500000Y-75500000D02*
X64500000Y-74500000D01*
X64500000Y-74500000D02*
X62400000Y-74500000D01*
X64500000Y-75500000D02*
X62400000Y-75500000D01*
X64500000Y-77500000D02*
X64500000Y-76500000D01*
X64500000Y-76500000D02*
X62400000Y-76500000D01*
X64500000Y-77500000D02*
X62400000Y-77500000D01*
X64500000Y-79500000D02*
X64500000Y-78500000D01*
X64500000Y-78500000D02*
X62400000Y-78500000D01*
X64500000Y-79500000D02*
X62400000Y-79500000D01*
X104550000Y-78400000D02*
X107850000Y-78400000D01*
X107850000Y-78400000D02*
X107850000Y-73000000D01*
X104550000Y-78400000D02*
X104550000Y-73000000D01*
X102300000Y-55900000D02*
X102300000Y-56900000D01*
X102300000Y-56900000D02*
X104400000Y-56900000D01*
X102300000Y-55900000D02*
X104400000Y-55900000D01*
X73000000Y-70650000D02*
X73000000Y-67350000D01*
X73000000Y-67350000D02*
X67600000Y-67350000D01*
X73000000Y-70650000D02*
X67600000Y-70650000D01*
X99120000Y-59700000D02*
X99120000Y-58700000D01*
X100480000Y-58700000D02*
X100480000Y-59700000D01*
X94350000Y-48770000D02*
X85650000Y-48770000D01*
X94350000Y-55180000D02*
X85650000Y-55180000D01*
X85650000Y-55180000D02*
X85650000Y-48770000D01*
X85650000Y-50000000D02*
X94350000Y-50000000D01*
X94350000Y-48770000D02*
X94350000Y-55180000D01*
X107320000Y-87400000D02*
X107320000Y-92600000D01*
X120080000Y-87400000D02*
X107320000Y-87400000D01*
X122680000Y-92600000D02*
X107320000Y-92600000D01*
X120080000Y-87400000D02*
X120080000Y-90000000D01*
X120080000Y-90000000D02*
X122680000Y-90000000D01*
X122680000Y-90000000D02*
X122680000Y-92600000D01*
X121350000Y-87400000D02*
X122680000Y-87400000D01*
X122680000Y-87400000D02*
X122680000Y-88730000D01*
X107320000Y-57400000D02*
X107320000Y-62600000D01*
X120080000Y-57400000D02*
X107320000Y-57400000D01*
X122680000Y-62600000D02*
X107320000Y-62600000D01*
X120080000Y-57400000D02*
X120080000Y-60000000D01*
X120080000Y-60000000D02*
X122680000Y-60000000D01*
X122680000Y-60000000D02*
X122680000Y-62600000D01*
X121350000Y-57400000D02*
X122680000Y-57400000D01*
X122680000Y-57400000D02*
X122680000Y-58730000D01*
X66300000Y-80320000D02*
X67300000Y-80320000D01*
X67300000Y-81680000D02*
X66300000Y-81680000D01*
X66300000Y-74320000D02*
X67300000Y-74320000D01*
X67300000Y-75680000D02*
X66300000Y-75680000D01*
X66300000Y-76320000D02*
X67300000Y-76320000D01*
X67300000Y-77680000D02*
X66300000Y-77680000D01*
X66300000Y-78320000D02*
X67300000Y-78320000D01*
X67300000Y-79680000D02*
X66300000Y-79680000D01*
X95920000Y-62300000D02*
X95920000Y-61300000D01*
X97280000Y-61300000D02*
X97280000Y-62300000D01*
X93920000Y-62300000D02*
X93920000Y-61300000D01*
X95280000Y-61300000D02*
X95280000Y-62300000D01*
X101700000Y-51520000D02*
X102700000Y-51520000D01*
X102700000Y-52880000D02*
X101700000Y-52880000D01*
X96120000Y-55900000D02*
X96120000Y-54900000D01*
X97480000Y-54900000D02*
X97480000Y-55900000D01*
X104100000Y-59080000D02*
X103100000Y-59080000D01*
X103100000Y-57720000D02*
X104100000Y-57720000D01*
X86100000Y-88080000D02*
X85100000Y-88080000D01*
X85100000Y-86720000D02*
X86100000Y-86720000D01*
X95080000Y-87900000D02*
X95080000Y-88900000D01*
X93720000Y-88900000D02*
X93720000Y-87900000D01*
X54920000Y-68900000D02*
X54920000Y-67900000D01*
X56280000Y-67900000D02*
X56280000Y-68900000D01*
X56480000Y-77900000D02*
X56480000Y-78900000D01*
X55120000Y-78900000D02*
X55120000Y-77900000D01*
X49950000Y-67650000D02*
X49950000Y-68575000D01*
X53650000Y-67650000D02*
X53650000Y-72350000D01*
X52075000Y-72450000D02*
X51525000Y-72450000D01*
X52075000Y-67550000D02*
X51525000Y-67550000D01*
X49950000Y-71425000D02*
X49950000Y-72350000D01*
X49950000Y-77650000D02*
X49950000Y-78575000D01*
X53650000Y-77650000D02*
X53650000Y-82350000D01*
X52075000Y-82450000D02*
X51525000Y-82450000D01*
X52075000Y-77550000D02*
X51525000Y-77550000D01*
X49950000Y-81425000D02*
X49950000Y-82350000D01*
X111290000Y-71590000D02*
X111290000Y-72850000D01*
X111290000Y-78410000D02*
X111290000Y-77150000D01*
X115050000Y-71590000D02*
X111290000Y-71590000D01*
X117300000Y-78410000D02*
X111290000Y-78410000D01*
X101410000Y-56100000D02*
X101410000Y-54300000D01*
X98190000Y-54300000D02*
X98190000Y-56750000D01*
D14*
X82681445Y-75000000D02*
X83388552Y-75707107D01*
X90000000Y-67681445D02*
X90760140Y-68441585D01*
X97318555Y-75000000D02*
X96558415Y-74239860D01*
X90000000Y-82318555D02*
X89239860Y-81558415D01*
X82681445Y-75000000D02*
X83441585Y-74239860D01*
X90000000Y-82318555D02*
X90760140Y-81558415D01*
X97318555Y-75000000D02*
X96558415Y-75760140D01*
X90000000Y-67681445D02*
X89239860Y-68441585D01*
X83388552Y-75707107D02*
X82663767Y-76431891D01*
D13*
X83200000Y-79350000D02*
X80400000Y-79350000D01*
X80400000Y-79350000D02*
X80400000Y-82650000D01*
X57850000Y-55055000D02*
X78710000Y-55055000D01*
X78710000Y-55055000D02*
X78710000Y-64405000D01*
X78710000Y-64405000D02*
X57850000Y-64405000D01*
X57850000Y-64405000D02*
X57850000Y-55055000D01*
X57600000Y-64655000D02*
X60140000Y-64655000D01*
X57600000Y-64655000D02*
X57600000Y-62115000D01*
X90350000Y-85600000D02*
X89650000Y-85600000D01*
X89650000Y-84400000D02*
X90350000Y-84400000D01*
X70600000Y-94050000D02*
X70600000Y-94750000D01*
X69400000Y-94750000D02*
X69400000Y-94050000D01*
D14*
X124157143Y-73966666D02*
X124204762Y-74014285D01*
X124252381Y-74157142D01*
X124252381Y-74252380D01*
X124204762Y-74395238D01*
X124109524Y-74490476D01*
X124014286Y-74538095D01*
X123823810Y-74585714D01*
X123680952Y-74585714D01*
X123490476Y-74538095D01*
X123395238Y-74490476D01*
X123300000Y-74395238D01*
X123252381Y-74252380D01*
X123252381Y-74157142D01*
X123300000Y-74014285D01*
X123347619Y-73966666D01*
X124252381Y-73014285D02*
X124252381Y-73585714D01*
X124252381Y-73300000D02*
X123252381Y-73300000D01*
X123395238Y-73395238D01*
X123490476Y-73490476D01*
X123538095Y-73585714D01*
X121757143Y-76966666D02*
X121804762Y-77014285D01*
X121852381Y-77157142D01*
X121852381Y-77252380D01*
X121804762Y-77395238D01*
X121709524Y-77490476D01*
X121614286Y-77538095D01*
X121423810Y-77585714D01*
X121280952Y-77585714D01*
X121090476Y-77538095D01*
X120995238Y-77490476D01*
X120900000Y-77395238D01*
X120852381Y-77252380D01*
X120852381Y-77157142D01*
X120900000Y-77014285D01*
X120947619Y-76966666D01*
X120947619Y-76585714D02*
X120900000Y-76538095D01*
X120852381Y-76442857D01*
X120852381Y-76204761D01*
X120900000Y-76109523D01*
X120947619Y-76061904D01*
X121042857Y-76014285D01*
X121138095Y-76014285D01*
X121280952Y-76061904D01*
X121852381Y-76633333D01*
X121852381Y-76014285D01*
X96233334Y-52557143D02*
X96185715Y-52604762D01*
X96042858Y-52652381D01*
X95947620Y-52652381D01*
X95804762Y-52604762D01*
X95709524Y-52509524D01*
X95661905Y-52414286D01*
X95614286Y-52223810D01*
X95614286Y-52080952D01*
X95661905Y-51890476D01*
X95709524Y-51795238D01*
X95804762Y-51700000D01*
X95947620Y-51652381D01*
X96042858Y-51652381D01*
X96185715Y-51700000D01*
X96233334Y-51747619D01*
X96566667Y-51652381D02*
X97185715Y-51652381D01*
X96852381Y-52033333D01*
X96995239Y-52033333D01*
X97090477Y-52080952D01*
X97138096Y-52128571D01*
X97185715Y-52223810D01*
X97185715Y-52461905D01*
X97138096Y-52557143D01*
X97090477Y-52604762D01*
X96995239Y-52652381D01*
X96709524Y-52652381D01*
X96614286Y-52604762D01*
X96566667Y-52557143D01*
X62633334Y-68757143D02*
X62585715Y-68804762D01*
X62442858Y-68852381D01*
X62347620Y-68852381D01*
X62204762Y-68804762D01*
X62109524Y-68709524D01*
X62061905Y-68614286D01*
X62014286Y-68423810D01*
X62014286Y-68280952D01*
X62061905Y-68090476D01*
X62109524Y-67995238D01*
X62204762Y-67900000D01*
X62347620Y-67852381D01*
X62442858Y-67852381D01*
X62585715Y-67900000D01*
X62633334Y-67947619D01*
X63490477Y-68185714D02*
X63490477Y-68852381D01*
X63252381Y-67804762D02*
X63014286Y-68519048D01*
X63633334Y-68519048D01*
X77757143Y-81166666D02*
X77804762Y-81214285D01*
X77852381Y-81357142D01*
X77852381Y-81452380D01*
X77804762Y-81595238D01*
X77709524Y-81690476D01*
X77614286Y-81738095D01*
X77423810Y-81785714D01*
X77280952Y-81785714D01*
X77090476Y-81738095D01*
X76995238Y-81690476D01*
X76900000Y-81595238D01*
X76852381Y-81452380D01*
X76852381Y-81357142D01*
X76900000Y-81214285D01*
X76947619Y-81166666D01*
X76852381Y-80261904D02*
X76852381Y-80738095D01*
X77328571Y-80785714D01*
X77280952Y-80738095D01*
X77233333Y-80642857D01*
X77233333Y-80404761D01*
X77280952Y-80309523D01*
X77328571Y-80261904D01*
X77423810Y-80214285D01*
X77661905Y-80214285D01*
X77757143Y-80261904D01*
X77804762Y-80309523D01*
X77852381Y-80404761D01*
X77852381Y-80642857D01*
X77804762Y-80738095D01*
X77757143Y-80785714D01*
X81633334Y-85657143D02*
X81585715Y-85704762D01*
X81442858Y-85752381D01*
X81347620Y-85752381D01*
X81204762Y-85704762D01*
X81109524Y-85609524D01*
X81061905Y-85514286D01*
X81014286Y-85323810D01*
X81014286Y-85180952D01*
X81061905Y-84990476D01*
X81109524Y-84895238D01*
X81204762Y-84800000D01*
X81347620Y-84752381D01*
X81442858Y-84752381D01*
X81585715Y-84800000D01*
X81633334Y-84847619D01*
X82490477Y-84752381D02*
X82300000Y-84752381D01*
X82204762Y-84800000D01*
X82157143Y-84847619D01*
X82061905Y-84990476D01*
X82014286Y-85180952D01*
X82014286Y-85561905D01*
X82061905Y-85657143D01*
X82109524Y-85704762D01*
X82204762Y-85752381D01*
X82395239Y-85752381D01*
X82490477Y-85704762D01*
X82538096Y-85657143D01*
X82585715Y-85561905D01*
X82585715Y-85323810D01*
X82538096Y-85228571D01*
X82490477Y-85180952D01*
X82395239Y-85133333D01*
X82204762Y-85133333D01*
X82109524Y-85180952D01*
X82061905Y-85228571D01*
X82014286Y-85323810D01*
X57457143Y-71966666D02*
X57504762Y-72014285D01*
X57552381Y-72157142D01*
X57552381Y-72252380D01*
X57504762Y-72395238D01*
X57409524Y-72490476D01*
X57314286Y-72538095D01*
X57123810Y-72585714D01*
X56980952Y-72585714D01*
X56790476Y-72538095D01*
X56695238Y-72490476D01*
X56600000Y-72395238D01*
X56552381Y-72252380D01*
X56552381Y-72157142D01*
X56600000Y-72014285D01*
X56647619Y-71966666D01*
X56552381Y-71633333D02*
X56552381Y-70966666D01*
X57552381Y-71395238D01*
X57657143Y-81966666D02*
X57704762Y-82014285D01*
X57752381Y-82157142D01*
X57752381Y-82252380D01*
X57704762Y-82395238D01*
X57609524Y-82490476D01*
X57514286Y-82538095D01*
X57323810Y-82585714D01*
X57180952Y-82585714D01*
X56990476Y-82538095D01*
X56895238Y-82490476D01*
X56800000Y-82395238D01*
X56752381Y-82252380D01*
X56752381Y-82157142D01*
X56800000Y-82014285D01*
X56847619Y-81966666D01*
X57180952Y-81395238D02*
X57133333Y-81490476D01*
X57085714Y-81538095D01*
X56990476Y-81585714D01*
X56942857Y-81585714D01*
X56847619Y-81538095D01*
X56800000Y-81490476D01*
X56752381Y-81395238D01*
X56752381Y-81204761D01*
X56800000Y-81109523D01*
X56847619Y-81061904D01*
X56942857Y-81014285D01*
X56990476Y-81014285D01*
X57085714Y-81061904D01*
X57133333Y-81109523D01*
X57180952Y-81204761D01*
X57180952Y-81395238D01*
X57228571Y-81490476D01*
X57276190Y-81538095D01*
X57371429Y-81585714D01*
X57561905Y-81585714D01*
X57657143Y-81538095D01*
X57704762Y-81490476D01*
X57752381Y-81395238D01*
X57752381Y-81204761D01*
X57704762Y-81109523D01*
X57657143Y-81061904D01*
X57561905Y-81014285D01*
X57371429Y-81014285D01*
X57276190Y-81061904D01*
X57228571Y-81109523D01*
X57180952Y-81204761D01*
X101433334Y-78957143D02*
X101385715Y-79004762D01*
X101242858Y-79052381D01*
X101147620Y-79052381D01*
X101004762Y-79004762D01*
X100909524Y-78909524D01*
X100861905Y-78814286D01*
X100814286Y-78623810D01*
X100814286Y-78480952D01*
X100861905Y-78290476D01*
X100909524Y-78195238D01*
X101004762Y-78100000D01*
X101147620Y-78052381D01*
X101242858Y-78052381D01*
X101385715Y-78100000D01*
X101433334Y-78147619D01*
X101909524Y-79052381D02*
X102100000Y-79052381D01*
X102195239Y-79004762D01*
X102242858Y-78957143D01*
X102338096Y-78814286D01*
X102385715Y-78623810D01*
X102385715Y-78242857D01*
X102338096Y-78147619D01*
X102290477Y-78100000D01*
X102195239Y-78052381D01*
X102004762Y-78052381D01*
X101909524Y-78100000D01*
X101861905Y-78147619D01*
X101814286Y-78242857D01*
X101814286Y-78480952D01*
X101861905Y-78576190D01*
X101909524Y-78623810D01*
X102004762Y-78671429D01*
X102195239Y-78671429D01*
X102290477Y-78623810D01*
X102338096Y-78576190D01*
X102385715Y-78480952D01*
X84757143Y-84857143D02*
X84709524Y-84904762D01*
X84566667Y-84952381D01*
X84471429Y-84952381D01*
X84328571Y-84904762D01*
X84233333Y-84809524D01*
X84185714Y-84714286D01*
X84138095Y-84523810D01*
X84138095Y-84380952D01*
X84185714Y-84190476D01*
X84233333Y-84095238D01*
X84328571Y-84000000D01*
X84471429Y-83952381D01*
X84566667Y-83952381D01*
X84709524Y-84000000D01*
X84757143Y-84047619D01*
X85709524Y-84952381D02*
X85138095Y-84952381D01*
X85423809Y-84952381D02*
X85423809Y-83952381D01*
X85328571Y-84095238D01*
X85233333Y-84190476D01*
X85138095Y-84238095D01*
X86328571Y-83952381D02*
X86423810Y-83952381D01*
X86519048Y-84000000D01*
X86566667Y-84047619D01*
X86614286Y-84142857D01*
X86661905Y-84333333D01*
X86661905Y-84571429D01*
X86614286Y-84761905D01*
X86566667Y-84857143D01*
X86519048Y-84904762D01*
X86423810Y-84952381D01*
X86328571Y-84952381D01*
X86233333Y-84904762D01*
X86185714Y-84857143D01*
X86138095Y-84761905D01*
X86090476Y-84571429D01*
X86090476Y-84333333D01*
X86138095Y-84142857D01*
X86185714Y-84047619D01*
X86233333Y-84000000D01*
X86328571Y-83952381D01*
X78757143Y-76157143D02*
X78709524Y-76204762D01*
X78566667Y-76252381D01*
X78471429Y-76252381D01*
X78328571Y-76204762D01*
X78233333Y-76109524D01*
X78185714Y-76014286D01*
X78138095Y-75823810D01*
X78138095Y-75680952D01*
X78185714Y-75490476D01*
X78233333Y-75395238D01*
X78328571Y-75300000D01*
X78471429Y-75252381D01*
X78566667Y-75252381D01*
X78709524Y-75300000D01*
X78757143Y-75347619D01*
X79709524Y-76252381D02*
X79138095Y-76252381D01*
X79423809Y-76252381D02*
X79423809Y-75252381D01*
X79328571Y-75395238D01*
X79233333Y-75490476D01*
X79138095Y-75538095D01*
X80661905Y-76252381D02*
X80090476Y-76252381D01*
X80376190Y-76252381D02*
X80376190Y-75252381D01*
X80280952Y-75395238D01*
X80185714Y-75490476D01*
X80090476Y-75538095D01*
X80557143Y-70657143D02*
X80509524Y-70704762D01*
X80366667Y-70752381D01*
X80271429Y-70752381D01*
X80128571Y-70704762D01*
X80033333Y-70609524D01*
X79985714Y-70514286D01*
X79938095Y-70323810D01*
X79938095Y-70180952D01*
X79985714Y-69990476D01*
X80033333Y-69895238D01*
X80128571Y-69800000D01*
X80271429Y-69752381D01*
X80366667Y-69752381D01*
X80509524Y-69800000D01*
X80557143Y-69847619D01*
X81509524Y-70752381D02*
X80938095Y-70752381D01*
X81223809Y-70752381D02*
X81223809Y-69752381D01*
X81128571Y-69895238D01*
X81033333Y-69990476D01*
X80938095Y-70038095D01*
X81890476Y-69847619D02*
X81938095Y-69800000D01*
X82033333Y-69752381D01*
X82271429Y-69752381D01*
X82366667Y-69800000D01*
X82414286Y-69847619D01*
X82461905Y-69942857D01*
X82461905Y-70038095D01*
X82414286Y-70180952D01*
X81842857Y-70752381D01*
X82461905Y-70752381D01*
X102157143Y-77357143D02*
X102109524Y-77404762D01*
X101966667Y-77452381D01*
X101871429Y-77452381D01*
X101728571Y-77404762D01*
X101633333Y-77309524D01*
X101585714Y-77214286D01*
X101538095Y-77023810D01*
X101538095Y-76880952D01*
X101585714Y-76690476D01*
X101633333Y-76595238D01*
X101728571Y-76500000D01*
X101871429Y-76452381D01*
X101966667Y-76452381D01*
X102109524Y-76500000D01*
X102157143Y-76547619D01*
X103109524Y-77452381D02*
X102538095Y-77452381D01*
X102823809Y-77452381D02*
X102823809Y-76452381D01*
X102728571Y-76595238D01*
X102633333Y-76690476D01*
X102538095Y-76738095D01*
X103442857Y-76452381D02*
X104061905Y-76452381D01*
X103728571Y-76833333D01*
X103871429Y-76833333D01*
X103966667Y-76880952D01*
X104014286Y-76928571D01*
X104061905Y-77023810D01*
X104061905Y-77261905D01*
X104014286Y-77357143D01*
X103966667Y-77404762D01*
X103871429Y-77452381D01*
X103585714Y-77452381D01*
X103490476Y-77404762D01*
X103442857Y-77357143D01*
X91957143Y-65457143D02*
X91909524Y-65504762D01*
X91766667Y-65552381D01*
X91671429Y-65552381D01*
X91528571Y-65504762D01*
X91433333Y-65409524D01*
X91385714Y-65314286D01*
X91338095Y-65123810D01*
X91338095Y-64980952D01*
X91385714Y-64790476D01*
X91433333Y-64695238D01*
X91528571Y-64600000D01*
X91671429Y-64552381D01*
X91766667Y-64552381D01*
X91909524Y-64600000D01*
X91957143Y-64647619D01*
X92909524Y-65552381D02*
X92338095Y-65552381D01*
X92623809Y-65552381D02*
X92623809Y-64552381D01*
X92528571Y-64695238D01*
X92433333Y-64790476D01*
X92338095Y-64838095D01*
X93766667Y-64885714D02*
X93766667Y-65552381D01*
X93528571Y-64504762D02*
X93290476Y-65219048D01*
X93909524Y-65219048D01*
X95257143Y-84442857D02*
X95304762Y-84490476D01*
X95352381Y-84633333D01*
X95352381Y-84728571D01*
X95304762Y-84871429D01*
X95209524Y-84966667D01*
X95114286Y-85014286D01*
X94923810Y-85061905D01*
X94780952Y-85061905D01*
X94590476Y-85014286D01*
X94495238Y-84966667D01*
X94400000Y-84871429D01*
X94352381Y-84728571D01*
X94352381Y-84633333D01*
X94400000Y-84490476D01*
X94447619Y-84442857D01*
X95352381Y-83490476D02*
X95352381Y-84061905D01*
X95352381Y-83776191D02*
X94352381Y-83776191D01*
X94495238Y-83871429D01*
X94590476Y-83966667D01*
X94638095Y-84061905D01*
X94352381Y-82585714D02*
X94352381Y-83061905D01*
X94828571Y-83109524D01*
X94780952Y-83061905D01*
X94733333Y-82966667D01*
X94733333Y-82728571D01*
X94780952Y-82633333D01*
X94828571Y-82585714D01*
X94923810Y-82538095D01*
X95161905Y-82538095D01*
X95257143Y-82585714D01*
X95304762Y-82633333D01*
X95352381Y-82728571D01*
X95352381Y-82966667D01*
X95304762Y-83061905D01*
X95257143Y-83109524D01*
X59861905Y-81452381D02*
X59861905Y-80452381D01*
X60100000Y-80452381D01*
X60242858Y-80500000D01*
X60338096Y-80595238D01*
X60385715Y-80690476D01*
X60433334Y-80880952D01*
X60433334Y-81023810D01*
X60385715Y-81214286D01*
X60338096Y-81309524D01*
X60242858Y-81404762D01*
X60100000Y-81452381D01*
X59861905Y-81452381D01*
X61385715Y-81452381D02*
X60814286Y-81452381D01*
X61100000Y-81452381D02*
X61100000Y-80452381D01*
X61004762Y-80595238D01*
X60909524Y-80690476D01*
X60814286Y-80738095D01*
X59861905Y-75452381D02*
X59861905Y-74452381D01*
X60100000Y-74452381D01*
X60242858Y-74500000D01*
X60338096Y-74595238D01*
X60385715Y-74690476D01*
X60433334Y-74880952D01*
X60433334Y-75023810D01*
X60385715Y-75214286D01*
X60338096Y-75309524D01*
X60242858Y-75404762D01*
X60100000Y-75452381D01*
X59861905Y-75452381D01*
X60814286Y-74547619D02*
X60861905Y-74500000D01*
X60957143Y-74452381D01*
X61195239Y-74452381D01*
X61290477Y-74500000D01*
X61338096Y-74547619D01*
X61385715Y-74642857D01*
X61385715Y-74738095D01*
X61338096Y-74880952D01*
X60766667Y-75452381D01*
X61385715Y-75452381D01*
X59861905Y-77452381D02*
X59861905Y-76452381D01*
X60100000Y-76452381D01*
X60242858Y-76500000D01*
X60338096Y-76595238D01*
X60385715Y-76690476D01*
X60433334Y-76880952D01*
X60433334Y-77023810D01*
X60385715Y-77214286D01*
X60338096Y-77309524D01*
X60242858Y-77404762D01*
X60100000Y-77452381D01*
X59861905Y-77452381D01*
X60766667Y-76452381D02*
X61385715Y-76452381D01*
X61052381Y-76833333D01*
X61195239Y-76833333D01*
X61290477Y-76880952D01*
X61338096Y-76928571D01*
X61385715Y-77023810D01*
X61385715Y-77261905D01*
X61338096Y-77357143D01*
X61290477Y-77404762D01*
X61195239Y-77452381D01*
X60909524Y-77452381D01*
X60814286Y-77404762D01*
X60766667Y-77357143D01*
X59861905Y-79452381D02*
X59861905Y-78452381D01*
X60100000Y-78452381D01*
X60242858Y-78500000D01*
X60338096Y-78595238D01*
X60385715Y-78690476D01*
X60433334Y-78880952D01*
X60433334Y-79023810D01*
X60385715Y-79214286D01*
X60338096Y-79309524D01*
X60242858Y-79404762D01*
X60100000Y-79452381D01*
X59861905Y-79452381D01*
X61290477Y-78785714D02*
X61290477Y-79452381D01*
X61052381Y-78404762D02*
X60814286Y-79119048D01*
X61433334Y-79119048D01*
X102461905Y-75452381D02*
X102461905Y-74452381D01*
X102700000Y-74452381D01*
X102842858Y-74500000D01*
X102938096Y-74595238D01*
X102985715Y-74690476D01*
X103033334Y-74880952D01*
X103033334Y-75023810D01*
X102985715Y-75214286D01*
X102938096Y-75309524D01*
X102842858Y-75404762D01*
X102700000Y-75452381D01*
X102461905Y-75452381D01*
X103938096Y-74452381D02*
X103461905Y-74452381D01*
X103414286Y-74928571D01*
X103461905Y-74880952D01*
X103557143Y-74833333D01*
X103795239Y-74833333D01*
X103890477Y-74880952D01*
X103938096Y-74928571D01*
X103985715Y-75023810D01*
X103985715Y-75261905D01*
X103938096Y-75357143D01*
X103890477Y-75404762D01*
X103795239Y-75452381D01*
X103557143Y-75452381D01*
X103461905Y-75404762D01*
X103414286Y-75357143D01*
X103461905Y-55452381D02*
X103461905Y-54452381D01*
X103700000Y-54452381D01*
X103842858Y-54500000D01*
X103938096Y-54595238D01*
X103985715Y-54690476D01*
X104033334Y-54880952D01*
X104033334Y-55023810D01*
X103985715Y-55214286D01*
X103938096Y-55309524D01*
X103842858Y-55404762D01*
X103700000Y-55452381D01*
X103461905Y-55452381D01*
X104890477Y-54452381D02*
X104700000Y-54452381D01*
X104604762Y-54500000D01*
X104557143Y-54547619D01*
X104461905Y-54690476D01*
X104414286Y-54880952D01*
X104414286Y-55261905D01*
X104461905Y-55357143D01*
X104509524Y-55404762D01*
X104604762Y-55452381D01*
X104795239Y-55452381D01*
X104890477Y-55404762D01*
X104938096Y-55357143D01*
X104985715Y-55261905D01*
X104985715Y-55023810D01*
X104938096Y-54928571D01*
X104890477Y-54880952D01*
X104795239Y-54833333D01*
X104604762Y-54833333D01*
X104509524Y-54880952D01*
X104461905Y-54928571D01*
X104414286Y-55023810D01*
X73661905Y-69452381D02*
X73661905Y-68452381D01*
X73900000Y-68452381D01*
X74042858Y-68500000D01*
X74138096Y-68595238D01*
X74185715Y-68690476D01*
X74233334Y-68880952D01*
X74233334Y-69023810D01*
X74185715Y-69214286D01*
X74138096Y-69309524D01*
X74042858Y-69404762D01*
X73900000Y-69452381D01*
X73661905Y-69452381D01*
X74566667Y-68452381D02*
X75233334Y-68452381D01*
X74804762Y-69452381D01*
X101266667Y-59128571D02*
X100933333Y-59128571D01*
X100933333Y-59652381D02*
X100933333Y-58652381D01*
X101409524Y-58652381D01*
X102314286Y-59652381D02*
X101742857Y-59652381D01*
X102028571Y-59652381D02*
X102028571Y-58652381D01*
X101933333Y-58795238D01*
X101838095Y-58890476D01*
X101742857Y-58938095D01*
X89666667Y-55492381D02*
X89666667Y-56206667D01*
X89619047Y-56349524D01*
X89523809Y-56444762D01*
X89380952Y-56492381D01*
X89285714Y-56492381D01*
X90666667Y-56492381D02*
X90095238Y-56492381D01*
X90380952Y-56492381D02*
X90380952Y-55492381D01*
X90285714Y-55635238D01*
X90190476Y-55730476D01*
X90095238Y-55778095D01*
X123132381Y-90333333D02*
X123846667Y-90333333D01*
X123989524Y-90380953D01*
X124084762Y-90476191D01*
X124132381Y-90619048D01*
X124132381Y-90714286D01*
X123132381Y-89952381D02*
X123132381Y-89333333D01*
X123513333Y-89666667D01*
X123513333Y-89523809D01*
X123560952Y-89428571D01*
X123608571Y-89380952D01*
X123703810Y-89333333D01*
X123941905Y-89333333D01*
X124037143Y-89380952D01*
X124084762Y-89428571D01*
X124132381Y-89523809D01*
X124132381Y-89809524D01*
X124084762Y-89904762D01*
X124037143Y-89952381D01*
X123132381Y-60333333D02*
X123846667Y-60333333D01*
X123989524Y-60380953D01*
X124084762Y-60476191D01*
X124132381Y-60619048D01*
X124132381Y-60714286D01*
X123465714Y-59428571D02*
X124132381Y-59428571D01*
X123084762Y-59666667D02*
X123799048Y-59904762D01*
X123799048Y-59285714D01*
X70033334Y-81452381D02*
X69700000Y-80976190D01*
X69461905Y-81452381D02*
X69461905Y-80452381D01*
X69842858Y-80452381D01*
X69938096Y-80500000D01*
X69985715Y-80547619D01*
X70033334Y-80642857D01*
X70033334Y-80785714D01*
X69985715Y-80880952D01*
X69938096Y-80928571D01*
X69842858Y-80976190D01*
X69461905Y-80976190D01*
X70985715Y-81452381D02*
X70414286Y-81452381D01*
X70700000Y-81452381D02*
X70700000Y-80452381D01*
X70604762Y-80595238D01*
X70509524Y-80690476D01*
X70414286Y-80738095D01*
X69233334Y-75452381D02*
X68900000Y-74976190D01*
X68661905Y-75452381D02*
X68661905Y-74452381D01*
X69042858Y-74452381D01*
X69138096Y-74500000D01*
X69185715Y-74547619D01*
X69233334Y-74642857D01*
X69233334Y-74785714D01*
X69185715Y-74880952D01*
X69138096Y-74928571D01*
X69042858Y-74976190D01*
X68661905Y-74976190D01*
X69614286Y-74547619D02*
X69661905Y-74500000D01*
X69757143Y-74452381D01*
X69995239Y-74452381D01*
X70090477Y-74500000D01*
X70138096Y-74547619D01*
X70185715Y-74642857D01*
X70185715Y-74738095D01*
X70138096Y-74880952D01*
X69566667Y-75452381D01*
X70185715Y-75452381D01*
X69233334Y-77452381D02*
X68900000Y-76976190D01*
X68661905Y-77452381D02*
X68661905Y-76452381D01*
X69042858Y-76452381D01*
X69138096Y-76500000D01*
X69185715Y-76547619D01*
X69233334Y-76642857D01*
X69233334Y-76785714D01*
X69185715Y-76880952D01*
X69138096Y-76928571D01*
X69042858Y-76976190D01*
X68661905Y-76976190D01*
X69566667Y-76452381D02*
X70185715Y-76452381D01*
X69852381Y-76833333D01*
X69995239Y-76833333D01*
X70090477Y-76880952D01*
X70138096Y-76928571D01*
X70185715Y-77023810D01*
X70185715Y-77261905D01*
X70138096Y-77357143D01*
X70090477Y-77404762D01*
X69995239Y-77452381D01*
X69709524Y-77452381D01*
X69614286Y-77404762D01*
X69566667Y-77357143D01*
X69233334Y-79452381D02*
X68900000Y-78976190D01*
X68661905Y-79452381D02*
X68661905Y-78452381D01*
X69042858Y-78452381D01*
X69138096Y-78500000D01*
X69185715Y-78547619D01*
X69233334Y-78642857D01*
X69233334Y-78785714D01*
X69185715Y-78880952D01*
X69138096Y-78928571D01*
X69042858Y-78976190D01*
X68661905Y-78976190D01*
X70090477Y-78785714D02*
X70090477Y-79452381D01*
X69852381Y-78404762D02*
X69614286Y-79119048D01*
X70233334Y-79119048D01*
X98502381Y-61966666D02*
X98026190Y-62300000D01*
X98502381Y-62538095D02*
X97502381Y-62538095D01*
X97502381Y-62157142D01*
X97550000Y-62061904D01*
X97597619Y-62014285D01*
X97692857Y-61966666D01*
X97835714Y-61966666D01*
X97930952Y-62014285D01*
X97978571Y-62061904D01*
X98026190Y-62157142D01*
X98026190Y-62538095D01*
X97502381Y-61061904D02*
X97502381Y-61538095D01*
X97978571Y-61585714D01*
X97930952Y-61538095D01*
X97883333Y-61442857D01*
X97883333Y-61204761D01*
X97930952Y-61109523D01*
X97978571Y-61061904D01*
X98073810Y-61014285D01*
X98311905Y-61014285D01*
X98407143Y-61061904D01*
X98454762Y-61109523D01*
X98502381Y-61204761D01*
X98502381Y-61442857D01*
X98454762Y-61538095D01*
X98407143Y-61585714D01*
X93652381Y-61966666D02*
X93176190Y-62300000D01*
X93652381Y-62538095D02*
X92652381Y-62538095D01*
X92652381Y-62157142D01*
X92700000Y-62061904D01*
X92747619Y-62014285D01*
X92842857Y-61966666D01*
X92985714Y-61966666D01*
X93080952Y-62014285D01*
X93128571Y-62061904D01*
X93176190Y-62157142D01*
X93176190Y-62538095D01*
X92652381Y-61109523D02*
X92652381Y-61300000D01*
X92700000Y-61395238D01*
X92747619Y-61442857D01*
X92890476Y-61538095D01*
X93080952Y-61585714D01*
X93461905Y-61585714D01*
X93557143Y-61538095D01*
X93604762Y-61490476D01*
X93652381Y-61395238D01*
X93652381Y-61204761D01*
X93604762Y-61109523D01*
X93557143Y-61061904D01*
X93461905Y-61014285D01*
X93223810Y-61014285D01*
X93128571Y-61061904D01*
X93080952Y-61109523D01*
X93033333Y-61204761D01*
X93033333Y-61395238D01*
X93080952Y-61490476D01*
X93128571Y-61538095D01*
X93223810Y-61585714D01*
X104633334Y-52652381D02*
X104300000Y-52176190D01*
X104061905Y-52652381D02*
X104061905Y-51652381D01*
X104442858Y-51652381D01*
X104538096Y-51700000D01*
X104585715Y-51747619D01*
X104633334Y-51842857D01*
X104633334Y-51985714D01*
X104585715Y-52080952D01*
X104538096Y-52128571D01*
X104442858Y-52176190D01*
X104061905Y-52176190D01*
X104966667Y-51652381D02*
X105633334Y-51652381D01*
X105204762Y-52652381D01*
X96633334Y-58052381D02*
X96300000Y-57576190D01*
X96061905Y-58052381D02*
X96061905Y-57052381D01*
X96442858Y-57052381D01*
X96538096Y-57100000D01*
X96585715Y-57147619D01*
X96633334Y-57242857D01*
X96633334Y-57385714D01*
X96585715Y-57480952D01*
X96538096Y-57528571D01*
X96442858Y-57576190D01*
X96061905Y-57576190D01*
X97204762Y-57480952D02*
X97109524Y-57433333D01*
X97061905Y-57385714D01*
X97014286Y-57290476D01*
X97014286Y-57242857D01*
X97061905Y-57147619D01*
X97109524Y-57100000D01*
X97204762Y-57052381D01*
X97395239Y-57052381D01*
X97490477Y-57100000D01*
X97538096Y-57147619D01*
X97585715Y-57242857D01*
X97585715Y-57290476D01*
X97538096Y-57385714D01*
X97490477Y-57433333D01*
X97395239Y-57480952D01*
X97204762Y-57480952D01*
X97109524Y-57528571D01*
X97061905Y-57576190D01*
X97014286Y-57671429D01*
X97014286Y-57861905D01*
X97061905Y-57957143D01*
X97109524Y-58004762D01*
X97204762Y-58052381D01*
X97395239Y-58052381D01*
X97490477Y-58004762D01*
X97538096Y-57957143D01*
X97585715Y-57861905D01*
X97585715Y-57671429D01*
X97538096Y-57576190D01*
X97490477Y-57528571D01*
X97395239Y-57480952D01*
X103833334Y-60452381D02*
X103500000Y-59976190D01*
X103261905Y-60452381D02*
X103261905Y-59452381D01*
X103642858Y-59452381D01*
X103738096Y-59500000D01*
X103785715Y-59547619D01*
X103833334Y-59642857D01*
X103833334Y-59785714D01*
X103785715Y-59880952D01*
X103738096Y-59928571D01*
X103642858Y-59976190D01*
X103261905Y-59976190D01*
X104309524Y-60452381D02*
X104500000Y-60452381D01*
X104595239Y-60404762D01*
X104642858Y-60357143D01*
X104738096Y-60214286D01*
X104785715Y-60023810D01*
X104785715Y-59642857D01*
X104738096Y-59547619D01*
X104690477Y-59500000D01*
X104595239Y-59452381D01*
X104404762Y-59452381D01*
X104309524Y-59500000D01*
X104261905Y-59547619D01*
X104214286Y-59642857D01*
X104214286Y-59880952D01*
X104261905Y-59976190D01*
X104309524Y-60023810D01*
X104404762Y-60071429D01*
X104595239Y-60071429D01*
X104690477Y-60023810D01*
X104738096Y-59976190D01*
X104785715Y-59880952D01*
X84957143Y-86402381D02*
X84623809Y-85926190D01*
X84385714Y-86402381D02*
X84385714Y-85402381D01*
X84766667Y-85402381D01*
X84861905Y-85450000D01*
X84909524Y-85497619D01*
X84957143Y-85592857D01*
X84957143Y-85735714D01*
X84909524Y-85830952D01*
X84861905Y-85878571D01*
X84766667Y-85926190D01*
X84385714Y-85926190D01*
X85909524Y-86402381D02*
X85338095Y-86402381D01*
X85623809Y-86402381D02*
X85623809Y-85402381D01*
X85528571Y-85545238D01*
X85433333Y-85640476D01*
X85338095Y-85688095D01*
X86528571Y-85402381D02*
X86623810Y-85402381D01*
X86719048Y-85450000D01*
X86766667Y-85497619D01*
X86814286Y-85592857D01*
X86861905Y-85783333D01*
X86861905Y-86021429D01*
X86814286Y-86211905D01*
X86766667Y-86307143D01*
X86719048Y-86354762D01*
X86623810Y-86402381D01*
X86528571Y-86402381D01*
X86433333Y-86354762D01*
X86385714Y-86307143D01*
X86338095Y-86211905D01*
X86290476Y-86021429D01*
X86290476Y-85783333D01*
X86338095Y-85592857D01*
X86385714Y-85497619D01*
X86433333Y-85450000D01*
X86528571Y-85402381D01*
X93402381Y-89042857D02*
X92926190Y-89376191D01*
X93402381Y-89614286D02*
X92402381Y-89614286D01*
X92402381Y-89233333D01*
X92450000Y-89138095D01*
X92497619Y-89090476D01*
X92592857Y-89042857D01*
X92735714Y-89042857D01*
X92830952Y-89090476D01*
X92878571Y-89138095D01*
X92926190Y-89233333D01*
X92926190Y-89614286D01*
X93402381Y-88090476D02*
X93402381Y-88661905D01*
X93402381Y-88376191D02*
X92402381Y-88376191D01*
X92545238Y-88471429D01*
X92640476Y-88566667D01*
X92688095Y-88661905D01*
X93402381Y-87138095D02*
X93402381Y-87709524D01*
X93402381Y-87423810D02*
X92402381Y-87423810D01*
X92545238Y-87519048D01*
X92640476Y-87614286D01*
X92688095Y-87709524D01*
X57502381Y-69042857D02*
X57026190Y-69376191D01*
X57502381Y-69614286D02*
X56502381Y-69614286D01*
X56502381Y-69233333D01*
X56550000Y-69138095D01*
X56597619Y-69090476D01*
X56692857Y-69042857D01*
X56835714Y-69042857D01*
X56930952Y-69090476D01*
X56978571Y-69138095D01*
X57026190Y-69233333D01*
X57026190Y-69614286D01*
X57502381Y-68090476D02*
X57502381Y-68661905D01*
X57502381Y-68376191D02*
X56502381Y-68376191D01*
X56645238Y-68471429D01*
X56740476Y-68566667D01*
X56788095Y-68661905D01*
X56597619Y-67709524D02*
X56550000Y-67661905D01*
X56502381Y-67566667D01*
X56502381Y-67328571D01*
X56550000Y-67233333D01*
X56597619Y-67185714D01*
X56692857Y-67138095D01*
X56788095Y-67138095D01*
X56930952Y-67185714D01*
X57502381Y-67757143D01*
X57502381Y-67138095D01*
X57852381Y-79042857D02*
X57376190Y-79376191D01*
X57852381Y-79614286D02*
X56852381Y-79614286D01*
X56852381Y-79233333D01*
X56900000Y-79138095D01*
X56947619Y-79090476D01*
X57042857Y-79042857D01*
X57185714Y-79042857D01*
X57280952Y-79090476D01*
X57328571Y-79138095D01*
X57376190Y-79233333D01*
X57376190Y-79614286D01*
X57852381Y-78090476D02*
X57852381Y-78661905D01*
X57852381Y-78376191D02*
X56852381Y-78376191D01*
X56995238Y-78471429D01*
X57090476Y-78566667D01*
X57138095Y-78661905D01*
X56852381Y-77757143D02*
X56852381Y-77138095D01*
X57233333Y-77471429D01*
X57233333Y-77328571D01*
X57280952Y-77233333D01*
X57328571Y-77185714D01*
X57423810Y-77138095D01*
X57661905Y-77138095D01*
X57757143Y-77185714D01*
X57804762Y-77233333D01*
X57852381Y-77328571D01*
X57852381Y-77614286D01*
X57804762Y-77709524D01*
X57757143Y-77757143D01*
X47704762Y-71333333D02*
X47752381Y-71190476D01*
X47752381Y-70952380D01*
X47704762Y-70857142D01*
X47657143Y-70809523D01*
X47561905Y-70761904D01*
X47466667Y-70761904D01*
X47371429Y-70809523D01*
X47323810Y-70857142D01*
X47276190Y-70952380D01*
X47228571Y-71142857D01*
X47180952Y-71238095D01*
X47133333Y-71285714D01*
X47038095Y-71333333D01*
X46942857Y-71333333D01*
X46847619Y-71285714D01*
X46800000Y-71238095D01*
X46752381Y-71142857D01*
X46752381Y-70904761D01*
X46800000Y-70761904D01*
X46752381Y-70428571D02*
X47752381Y-70190476D01*
X47038095Y-69999999D01*
X47752381Y-69809523D01*
X46752381Y-69571428D01*
X47752381Y-68666666D02*
X47752381Y-69238095D01*
X47752381Y-68952381D02*
X46752381Y-68952381D01*
X46895238Y-69047619D01*
X46990476Y-69142857D01*
X47038095Y-69238095D01*
X47704762Y-81333333D02*
X47752381Y-81190476D01*
X47752381Y-80952380D01*
X47704762Y-80857142D01*
X47657143Y-80809523D01*
X47561905Y-80761904D01*
X47466667Y-80761904D01*
X47371429Y-80809523D01*
X47323810Y-80857142D01*
X47276190Y-80952380D01*
X47228571Y-81142857D01*
X47180952Y-81238095D01*
X47133333Y-81285714D01*
X47038095Y-81333333D01*
X46942857Y-81333333D01*
X46847619Y-81285714D01*
X46800000Y-81238095D01*
X46752381Y-81142857D01*
X46752381Y-80904761D01*
X46800000Y-80761904D01*
X46752381Y-80428571D02*
X47752381Y-80190476D01*
X47038095Y-79999999D01*
X47752381Y-79809523D01*
X46752381Y-79571428D01*
X46847619Y-79238095D02*
X46800000Y-79190476D01*
X46752381Y-79095238D01*
X46752381Y-78857142D01*
X46800000Y-78761904D01*
X46847619Y-78714285D01*
X46942857Y-78666666D01*
X47038095Y-78666666D01*
X47180952Y-78714285D01*
X47752381Y-79285714D01*
X47752381Y-78666666D01*
X113838095Y-78852381D02*
X113838095Y-79661905D01*
X113885714Y-79757143D01*
X113933333Y-79804762D01*
X114028571Y-79852381D01*
X114219048Y-79852381D01*
X114314286Y-79804762D01*
X114361905Y-79757143D01*
X114409524Y-79661905D01*
X114409524Y-78852381D01*
X115409524Y-79852381D02*
X114838095Y-79852381D01*
X115123809Y-79852381D02*
X115123809Y-78852381D01*
X115028571Y-78995238D01*
X114933333Y-79090476D01*
X114838095Y-79138095D01*
X101852381Y-55161905D02*
X102661905Y-55161905D01*
X102757143Y-55114286D01*
X102804762Y-55066667D01*
X102852381Y-54971429D01*
X102852381Y-54780952D01*
X102804762Y-54685714D01*
X102757143Y-54638095D01*
X102661905Y-54590476D01*
X101852381Y-54590476D01*
X101947619Y-54161905D02*
X101900000Y-54114286D01*
X101852381Y-54019048D01*
X101852381Y-53780952D01*
X101900000Y-53685714D01*
X101947619Y-53638095D01*
X102042857Y-53590476D01*
X102138095Y-53590476D01*
X102280952Y-53638095D01*
X102852381Y-54209524D01*
X102852381Y-53590476D01*
X83982858Y-70060354D02*
X84555278Y-70632774D01*
X84656293Y-70666446D01*
X84723636Y-70666446D01*
X84824651Y-70632774D01*
X84959339Y-70498086D01*
X84993011Y-70397071D01*
X84993011Y-70329728D01*
X84959339Y-70228713D01*
X84386919Y-69656293D01*
X85262384Y-69252231D02*
X85733789Y-69723636D01*
X84824651Y-69151217D02*
X85161369Y-69824652D01*
X85599102Y-69386919D01*
X81323809Y-78576190D02*
X81323809Y-79052381D01*
X80990476Y-78052381D02*
X81323809Y-78576190D01*
X81657143Y-78052381D01*
X82514286Y-79052381D02*
X81942857Y-79052381D01*
X82228571Y-79052381D02*
X82228571Y-78052381D01*
X82133333Y-78195238D01*
X82038095Y-78290476D01*
X81942857Y-78338095D01*
X56048381Y-60063333D02*
X56762667Y-60063333D01*
X56905524Y-60110953D01*
X57000762Y-60206191D01*
X57048381Y-60349048D01*
X57048381Y-60444286D01*
X56048381Y-59110952D02*
X56048381Y-59587143D01*
X56524571Y-59634762D01*
X56476952Y-59587143D01*
X56429333Y-59491905D01*
X56429333Y-59253809D01*
X56476952Y-59158571D01*
X56524571Y-59110952D01*
X56619810Y-59063333D01*
X56857905Y-59063333D01*
X56953143Y-59110952D01*
X57000762Y-59158571D01*
X57048381Y-59253809D01*
X57048381Y-59491905D01*
X57000762Y-59587143D01*
X56953143Y-59634762D01*
X89357143Y-83857143D02*
X89309524Y-83904762D01*
X89166667Y-83952381D01*
X89071429Y-83952381D01*
X88928571Y-83904762D01*
X88833333Y-83809524D01*
X88785714Y-83714286D01*
X88738095Y-83523810D01*
X88738095Y-83380952D01*
X88785714Y-83190476D01*
X88833333Y-83095238D01*
X88928571Y-83000000D01*
X89071429Y-82952381D01*
X89166667Y-82952381D01*
X89309524Y-83000000D01*
X89357143Y-83047619D01*
X90309524Y-83952381D02*
X89738095Y-83952381D01*
X90023809Y-83952381D02*
X90023809Y-82952381D01*
X89928571Y-83095238D01*
X89833333Y-83190476D01*
X89738095Y-83238095D01*
X91166667Y-82952381D02*
X90976190Y-82952381D01*
X90880952Y-83000000D01*
X90833333Y-83047619D01*
X90738095Y-83190476D01*
X90690476Y-83380952D01*
X90690476Y-83761905D01*
X90738095Y-83857143D01*
X90785714Y-83904762D01*
X90880952Y-83952381D01*
X91071429Y-83952381D01*
X91166667Y-83904762D01*
X91214286Y-83857143D01*
X91261905Y-83761905D01*
X91261905Y-83523810D01*
X91214286Y-83428571D01*
X91166667Y-83380952D01*
X91071429Y-83333333D01*
X90880952Y-83333333D01*
X90785714Y-83380952D01*
X90738095Y-83428571D01*
X90690476Y-83523810D01*
X68857143Y-95042857D02*
X68904762Y-95090476D01*
X68952381Y-95233333D01*
X68952381Y-95328571D01*
X68904762Y-95471429D01*
X68809524Y-95566667D01*
X68714286Y-95614286D01*
X68523810Y-95661905D01*
X68380952Y-95661905D01*
X68190476Y-95614286D01*
X68095238Y-95566667D01*
X68000000Y-95471429D01*
X67952381Y-95328571D01*
X67952381Y-95233333D01*
X68000000Y-95090476D01*
X68047619Y-95042857D01*
X68952381Y-94090476D02*
X68952381Y-94661905D01*
X68952381Y-94376191D02*
X67952381Y-94376191D01*
X68095238Y-94471429D01*
X68190476Y-94566667D01*
X68238095Y-94661905D01*
X67952381Y-93757143D02*
X67952381Y-93090476D01*
X68952381Y-93519048D01*
M02*
