M48
METRIC,TZ
T1C0.300
T2C0.400
T3C0.500
T4C0.550
T5C1.000
T6C1.016
%
G90
G05
T1
X52000Y-64000
X56000Y-91000
X60000Y-54000
X60000Y-84000
X66000Y-86000
X72000Y-80000
X73000Y-54000
X73000Y-87000
X74000Y-93400
X77000Y-75000
X78000Y-84000
X78000Y-97000
X86000Y-59000
X90000Y-93000
X98600Y-64000
X103000Y-62000
X103000Y-79000
X103000Y-87000
X108000Y-96000
X111000Y-54000
X111000Y-79000
X121000Y-96000
X123000Y-55000
X125000Y-67000
X125000Y-83000
T2
X54200Y-68600
X54200Y-71800
X54400Y-78400
X54400Y-81800
X57800Y-81000
X58200Y-69200
X60000Y-69600
X60000Y-72400
X64000Y-71600
X64800Y-66400
X68800Y-81000
X70000Y-92400
X70000Y-97000
X71600Y-73800
X72600Y-92400
X74600Y-76800
X76200Y-68400
X77000Y-87800
X78400Y-71600
X79400Y-59200
X79800Y-82800
X80200Y-79000
X81000Y-70800
X82800Y-71400
X84800Y-85000
X87200Y-89400
X88400Y-72600
X89200Y-83800
X89800Y-70000
X89800Y-73400
X90600Y-71600
X90800Y-83800
X91200Y-88400
X91800Y-65200
X92000Y-90400
X93200Y-85600
X93600Y-64800
X94400Y-86400
X94400Y-90600
X97800Y-58600
X99200Y-75000
X99800Y-79600
X100600Y-52200
X103000Y-77000
X106200Y-79600
X106800Y-64200
X116400Y-70000
X119400Y-79000
X121000Y-77900
X122000Y-76800
X123600Y-74800
T5
X108650Y-58730
X108650Y-61270
X108650Y-88730
X108650Y-91270
X111190Y-58730
X111190Y-61270
X111190Y-88730
X111190Y-91270
X113730Y-58730
X113730Y-61270
X113730Y-88730
X113730Y-91270
X116270Y-58730
X116270Y-61270
X116270Y-88730
X116270Y-91270
X118810Y-58730
X118810Y-61270
X118810Y-88730
X118810Y-91270
X121350Y-58730
X121350Y-61270
X121350Y-88730
X121350Y-91270
T6
X63200Y-58460
X63200Y-61000
X65740Y-58460
X65740Y-61000
X68280Y-58460
X68280Y-61000
X70820Y-58460
X70820Y-61000
X73360Y-58460
X73360Y-61000
T3
X86500Y-51125G85X86500Y-51775
G05
X93500Y-51125G85X93500Y-51775
G05
T4
X87650Y-54150G85X87350Y-54150
G05
X92650Y-54150G85X92350Y-54150
G05
T0
M30
