G04 #@! TF.FileFunction,Copper,L2,Bot,Signal*
%FSLAX46Y46*%
G04 Gerber Fmt 4.6, Leading zero omitted, Abs format (unit mm)*
G04 Created by KiCad (PCBNEW 4.0.7) date Tue Jan 16 16:57:22 2018*
%MOMM*%
%LPD*%
G01*
G04 APERTURE LIST*
%ADD10C,0.100000*%
%ADD11C,0.600000*%
%ADD12R,2.500000X1.100000*%
%ADD13R,1.100000X2.500000*%
%ADD14R,0.800000X1.500000*%
%ADD15R,1.450000X2.000000*%
%ADD16O,1.250000X0.950000*%
%ADD17O,1.000000X1.550000*%
%ADD18R,1.700000X1.700000*%
%ADD19O,1.700000X1.700000*%
%ADD20R,0.600000X1.800000*%
%ADD21R,1.000000X2.800000*%
%ADD22R,1.727200X1.727200*%
%ADD23O,1.727200X1.727200*%
%ADD24C,0.250000*%
%ADD25C,0.500000*%
%ADD26C,1.000000*%
G04 APERTURE END LIST*
D10*
D11*
X74000000Y-93400000D03*
X98600000Y-64000000D03*
X123000000Y-55000000D03*
X125000000Y-67000000D03*
X111000000Y-54000000D03*
X103000000Y-62000000D03*
X125000000Y-83000000D03*
X121000000Y-96000000D03*
X103000000Y-79000000D03*
X111000000Y-79000000D03*
X108000000Y-96000000D03*
X103000000Y-87000000D03*
X90000000Y-93000000D03*
X56000000Y-91000000D03*
X78000000Y-97000000D03*
X78000000Y-84000000D03*
X73000000Y-87000000D03*
X60000000Y-84000000D03*
X66000000Y-86000000D03*
X72000000Y-80000000D03*
X77000000Y-75000000D03*
X86000000Y-59000000D03*
X73000000Y-54000000D03*
X60000000Y-54000000D03*
X52000000Y-64000000D03*
D12*
X82300000Y-97400000D03*
X82300000Y-95400000D03*
X82300000Y-93400000D03*
X82300000Y-91400000D03*
X82300000Y-89400000D03*
X82300000Y-87400000D03*
X82300000Y-85400000D03*
X82300000Y-83400000D03*
X97700000Y-83400000D03*
X97700000Y-85400000D03*
X97700000Y-87400000D03*
X97700000Y-89400000D03*
X97700000Y-91400000D03*
X97700000Y-93400000D03*
X97700000Y-95400000D03*
X97700000Y-97400000D03*
D13*
X84990000Y-81700000D03*
X86990000Y-81700000D03*
X88990000Y-81700000D03*
X90990000Y-81700000D03*
X92990000Y-81700000D03*
X94990000Y-81700000D03*
D14*
X64525000Y-95350000D03*
X65625000Y-95350000D03*
X66725000Y-95350000D03*
X67825000Y-95350000D03*
X68925000Y-95350000D03*
X70025000Y-95350000D03*
X71125000Y-95350000D03*
X72225000Y-95350000D03*
D15*
X60925000Y-89650000D03*
X60925000Y-97950000D03*
X74675000Y-89650000D03*
X74675000Y-97950000D03*
D16*
X92500000Y-54150000D03*
X87500000Y-54150000D03*
D17*
X93500000Y-51450000D03*
X86500000Y-51450000D03*
D18*
X121350000Y-88730000D03*
D19*
X121350000Y-91270000D03*
X118810000Y-88730000D03*
X118810000Y-91270000D03*
X116270000Y-88730000D03*
X116270000Y-91270000D03*
X113730000Y-88730000D03*
X113730000Y-91270000D03*
X111190000Y-88730000D03*
X111190000Y-91270000D03*
X108650000Y-88730000D03*
X108650000Y-91270000D03*
D18*
X121350000Y-58730000D03*
D19*
X121350000Y-61270000D03*
X118810000Y-58730000D03*
X118810000Y-61270000D03*
X116270000Y-58730000D03*
X116270000Y-61270000D03*
X113730000Y-58730000D03*
X113730000Y-61270000D03*
X111190000Y-58730000D03*
X111190000Y-61270000D03*
X108650000Y-58730000D03*
X108650000Y-61270000D03*
D20*
X94825000Y-59000000D03*
X93575000Y-59000000D03*
D21*
X91850000Y-62200000D03*
X96550000Y-62200000D03*
D22*
X63200000Y-61000000D03*
D23*
X63200000Y-58460000D03*
X65740000Y-61000000D03*
X65740000Y-58460000D03*
X68280000Y-61000000D03*
X68280000Y-58460000D03*
X70820000Y-61000000D03*
X70820000Y-58460000D03*
X73360000Y-61000000D03*
X73360000Y-58460000D03*
D11*
X64800000Y-66400000D03*
X106800000Y-64200000D03*
X116400000Y-70000000D03*
X122000000Y-76800000D03*
X121000000Y-77900000D03*
X68800000Y-81000000D03*
X72600000Y-92400000D03*
X70000000Y-92400000D03*
X57800000Y-81000000D03*
X58200000Y-69200000D03*
X93600000Y-64800000D03*
X123600000Y-74800000D03*
X119400000Y-79000000D03*
X99800000Y-79600000D03*
X80200000Y-79000000D03*
X82800000Y-71400000D03*
X79800000Y-82800000D03*
X84800000Y-85000000D03*
X93200000Y-85600000D03*
X100600000Y-52200000D03*
X90800000Y-83800000D03*
X74600000Y-76800000D03*
X71600000Y-73800000D03*
X77000000Y-87800000D03*
X106200000Y-79600000D03*
X99200000Y-75000000D03*
X81000000Y-70800000D03*
X91800000Y-65200000D03*
X76200000Y-68400000D03*
X103000000Y-77000000D03*
X89200000Y-83800000D03*
X70000000Y-97000000D03*
X94400000Y-86400000D03*
X60000000Y-69600000D03*
X60000000Y-72400000D03*
X54400000Y-78400000D03*
X54400000Y-81800000D03*
X97800000Y-58600000D03*
X79400000Y-59200000D03*
X87200000Y-89400000D03*
X94400000Y-90600000D03*
X91200000Y-88400000D03*
X92000000Y-90400000D03*
X88400000Y-72600000D03*
X90600000Y-71600000D03*
X89800000Y-73400000D03*
X89800000Y-70000000D03*
X54200000Y-71800000D03*
X54200000Y-68600000D03*
X78400000Y-71600000D03*
X64000000Y-71600000D03*
D24*
X64800000Y-67600000D02*
X64800000Y-66400000D01*
D25*
X110600000Y-64200000D02*
X106800000Y-64200000D01*
X116400000Y-70000000D02*
X110600000Y-64200000D01*
X70025000Y-95350000D02*
X70025000Y-92425000D01*
X70025000Y-92425000D02*
X70000000Y-92400000D01*
X90800000Y-83800000D02*
X96600000Y-83800000D01*
X96600000Y-83800000D02*
X97000000Y-83400000D01*
X83000000Y-83400000D02*
X81000000Y-83400000D01*
X77000000Y-87400000D02*
X77000000Y-87800000D01*
X81000000Y-83400000D02*
X77000000Y-87400000D01*
D26*
X76400000Y-93400000D02*
X76400000Y-92200000D01*
X76400000Y-92200000D02*
X77000000Y-91600000D01*
X77000000Y-91600000D02*
X77000000Y-87800000D01*
X77000000Y-87800000D02*
X77000000Y-87800000D01*
X71600000Y-73800000D02*
X74600000Y-76800000D01*
X106200000Y-86280000D02*
X108650000Y-88730000D01*
X106200000Y-79600000D02*
X106200000Y-86280000D01*
X108650000Y-88730000D02*
X108650000Y-91270000D01*
D25*
X99200000Y-75000000D02*
X99100000Y-75100000D01*
D24*
X77500000Y-67300000D02*
X77300000Y-67300000D01*
D25*
X81000000Y-70800000D02*
X77500000Y-67300000D01*
D24*
X91800000Y-65200000D02*
X90500000Y-66500000D01*
D26*
X76200000Y-68400000D02*
X77300000Y-67300000D01*
X89600000Y-65600000D02*
X90500000Y-66500000D01*
X77300000Y-67300000D02*
X79000000Y-65600000D01*
X79000000Y-65600000D02*
X89600000Y-65600000D01*
X90500000Y-66500000D02*
X99100000Y-75100000D01*
X99100000Y-75100000D02*
X101000000Y-77000000D01*
X101000000Y-77000000D02*
X103000000Y-77000000D01*
D25*
X89200000Y-83800000D02*
X83400000Y-83800000D01*
X83400000Y-83800000D02*
X83000000Y-83400000D01*
D24*
X97000000Y-87400000D02*
X95400000Y-87400000D01*
X95400000Y-87400000D02*
X94400000Y-86400000D01*
D25*
X67825000Y-95350000D02*
X67825000Y-96425000D01*
X76400000Y-93400000D02*
X83000000Y-93400000D01*
X72800000Y-97000000D02*
X76400000Y-93400000D01*
X68400000Y-97000000D02*
X70000000Y-97000000D01*
X70000000Y-97000000D02*
X72800000Y-97000000D01*
X67825000Y-96425000D02*
X68400000Y-97000000D01*
D24*
X60000000Y-69600000D02*
X60000000Y-72400000D01*
X54400000Y-81800000D02*
X54400000Y-78400000D01*
D25*
X94825000Y-59000000D02*
X97400000Y-59000000D01*
X97400000Y-59000000D02*
X97800000Y-58600000D01*
D24*
X77800000Y-57600000D02*
X75400000Y-55200000D01*
X79400000Y-59200000D02*
X77800000Y-57600000D01*
X66460000Y-55200000D02*
X63200000Y-58460000D01*
X75400000Y-55200000D02*
X66460000Y-55200000D01*
X85200000Y-97400000D02*
X87200000Y-95400000D01*
X83000000Y-97400000D02*
X85200000Y-97400000D01*
X87200000Y-95400000D02*
X87200000Y-89400000D01*
X97000000Y-89400000D02*
X95600000Y-89400000D01*
X95600000Y-89400000D02*
X94400000Y-90600000D01*
X97000000Y-95400000D02*
X94800000Y-95400000D01*
X93000000Y-90200000D02*
X91200000Y-88400000D01*
X93000000Y-93600000D02*
X93000000Y-90200000D01*
X94800000Y-95400000D02*
X93000000Y-93600000D01*
X97000000Y-97400000D02*
X95400000Y-97400000D01*
X92000000Y-94000000D02*
X92000000Y-90400000D01*
X95400000Y-97400000D02*
X92000000Y-94000000D01*
X66725000Y-89275000D02*
X81200000Y-74800000D01*
X81200000Y-74800000D02*
X86200000Y-74800000D01*
X86200000Y-74800000D02*
X88400000Y-72600000D01*
X66725000Y-89275000D02*
X66725000Y-95350000D01*
X68925000Y-95350000D02*
X68925000Y-87875000D01*
X86600000Y-75600000D02*
X90600000Y-71600000D01*
X81200000Y-75600000D02*
X86600000Y-75600000D01*
X68925000Y-87875000D02*
X81200000Y-75600000D01*
X71125000Y-95350000D02*
X71125000Y-86475000D01*
X86800000Y-76400000D02*
X89800000Y-73400000D01*
X81200000Y-76400000D02*
X86800000Y-76400000D01*
X71125000Y-86475000D02*
X81200000Y-76400000D01*
X65625000Y-95350000D02*
X65625000Y-89575000D01*
X85800000Y-74000000D02*
X89800000Y-70000000D01*
X81200000Y-74000000D02*
X85800000Y-74000000D01*
X65625000Y-89575000D02*
X81200000Y-74000000D01*
X54200000Y-68600000D02*
X54200000Y-71800000D01*
X78400000Y-71600000D02*
X64000000Y-71600000D01*
D25*
G36*
X85242000Y-51171000D02*
X85242000Y-51446000D01*
X86496000Y-51446000D01*
X86496000Y-51426000D01*
X86504000Y-51426000D01*
X86504000Y-51446000D01*
X87758000Y-51446000D01*
X87758000Y-51171000D01*
X87688032Y-50825000D01*
X92311968Y-50825000D01*
X92242000Y-51171000D01*
X92242000Y-51446000D01*
X93496000Y-51446000D01*
X93496000Y-51426000D01*
X93504000Y-51426000D01*
X93504000Y-51446000D01*
X94758000Y-51446000D01*
X94758000Y-51171000D01*
X94688032Y-50825000D01*
X119918743Y-50825000D01*
X123504935Y-51538338D01*
X126476276Y-53523724D01*
X128461662Y-56495064D01*
X129175000Y-60081256D01*
X129175000Y-89918744D01*
X128461662Y-93504936D01*
X126476276Y-96476276D01*
X123504935Y-98461662D01*
X119918743Y-99175000D01*
X76127255Y-99175000D01*
X76158000Y-99100775D01*
X76158000Y-98143500D01*
X75968500Y-97954000D01*
X74679000Y-97954000D01*
X74679000Y-97974000D01*
X74671000Y-97974000D01*
X74671000Y-97954000D01*
X73381500Y-97954000D01*
X73192000Y-98143500D01*
X73192000Y-99100775D01*
X73222745Y-99175000D01*
X62377255Y-99175000D01*
X62408000Y-99100775D01*
X62408000Y-98143500D01*
X62218500Y-97954000D01*
X60929000Y-97954000D01*
X60929000Y-97974000D01*
X60921000Y-97974000D01*
X60921000Y-97954000D01*
X59631500Y-97954000D01*
X59442000Y-98143500D01*
X59442000Y-99047844D01*
X56495064Y-98461662D01*
X54007052Y-96799225D01*
X59442000Y-96799225D01*
X59442000Y-97756500D01*
X59631500Y-97946000D01*
X60921000Y-97946000D01*
X60921000Y-96381500D01*
X60929000Y-96381500D01*
X60929000Y-97946000D01*
X62218500Y-97946000D01*
X62408000Y-97756500D01*
X62408000Y-96799225D01*
X62292602Y-96520628D01*
X62079373Y-96307399D01*
X61800776Y-96192000D01*
X61118500Y-96192000D01*
X60929000Y-96381500D01*
X60921000Y-96381500D01*
X60731500Y-96192000D01*
X60049224Y-96192000D01*
X59770627Y-96307399D01*
X59557398Y-96520628D01*
X59442000Y-96799225D01*
X54007052Y-96799225D01*
X53523724Y-96476276D01*
X52270037Y-94600000D01*
X63360307Y-94600000D01*
X63360307Y-96100000D01*
X63412604Y-96377933D01*
X63576862Y-96633198D01*
X63827492Y-96804446D01*
X64125000Y-96864693D01*
X64925000Y-96864693D01*
X65080506Y-96835432D01*
X65225000Y-96864693D01*
X66025000Y-96864693D01*
X66180506Y-96835432D01*
X66325000Y-96864693D01*
X66939212Y-96864693D01*
X67117893Y-97132107D01*
X67692893Y-97707107D01*
X68017316Y-97923880D01*
X68400000Y-98000000D01*
X69670251Y-98000000D01*
X69790226Y-98049818D01*
X70207942Y-98050182D01*
X70329392Y-98000000D01*
X72800000Y-98000000D01*
X73182684Y-97923880D01*
X73288605Y-97853105D01*
X73381500Y-97946000D01*
X74671000Y-97946000D01*
X74671000Y-97926000D01*
X74679000Y-97926000D01*
X74679000Y-97946000D01*
X75968500Y-97946000D01*
X76039446Y-97875054D01*
X77369181Y-97875054D01*
X77752067Y-98049849D01*
X78172700Y-98064814D01*
X78567040Y-97917670D01*
X78630819Y-97875054D01*
X78625944Y-97631601D01*
X78000000Y-97005657D01*
X77374056Y-97631601D01*
X77369181Y-97875054D01*
X76039446Y-97875054D01*
X76158000Y-97756500D01*
X76158000Y-97172700D01*
X76935186Y-97172700D01*
X77082330Y-97567040D01*
X77124946Y-97630819D01*
X77368399Y-97625944D01*
X77994343Y-97000000D01*
X78005657Y-97000000D01*
X78631601Y-97625944D01*
X78875054Y-97630819D01*
X79049849Y-97247933D01*
X79064814Y-96827300D01*
X78917670Y-96432960D01*
X78875054Y-96369181D01*
X78631601Y-96374056D01*
X78005657Y-97000000D01*
X77994343Y-97000000D01*
X77368399Y-96374056D01*
X77124946Y-96369181D01*
X76950151Y-96752067D01*
X76935186Y-97172700D01*
X76158000Y-97172700D01*
X76158000Y-96799225D01*
X76042602Y-96520628D01*
X75829373Y-96307399D01*
X75550776Y-96192000D01*
X75022214Y-96192000D01*
X75089268Y-96124946D01*
X77369181Y-96124946D01*
X77374056Y-96368399D01*
X78000000Y-96994343D01*
X78625944Y-96368399D01*
X78630819Y-96124946D01*
X78247933Y-95950151D01*
X77827300Y-95935186D01*
X77432960Y-96082330D01*
X77369181Y-96124946D01*
X75089268Y-96124946D01*
X76604989Y-94609225D01*
X76878354Y-94554849D01*
X77110102Y-94400000D01*
X80448326Y-94400000D01*
X80449015Y-94401071D01*
X80345554Y-94552492D01*
X80285307Y-94850000D01*
X80285307Y-95950000D01*
X80337604Y-96227933D01*
X80449015Y-96401071D01*
X80345554Y-96552492D01*
X80285307Y-96850000D01*
X80285307Y-97950000D01*
X80337604Y-98227933D01*
X80501862Y-98483198D01*
X80752492Y-98654446D01*
X81050000Y-98714693D01*
X83550000Y-98714693D01*
X83827933Y-98662396D01*
X84083198Y-98498138D01*
X84235662Y-98275000D01*
X85200000Y-98275000D01*
X85534848Y-98208395D01*
X85818718Y-98018718D01*
X87818718Y-96018719D01*
X88008395Y-95734848D01*
X88075000Y-95400000D01*
X88075000Y-93875054D01*
X89369181Y-93875054D01*
X89752067Y-94049849D01*
X90172700Y-94064814D01*
X90567040Y-93917670D01*
X90630819Y-93875054D01*
X90625944Y-93631601D01*
X90000000Y-93005657D01*
X89374056Y-93631601D01*
X89369181Y-93875054D01*
X88075000Y-93875054D01*
X88075000Y-93172700D01*
X88935186Y-93172700D01*
X89082330Y-93567040D01*
X89124946Y-93630819D01*
X89368399Y-93625944D01*
X89994343Y-93000000D01*
X90005657Y-93000000D01*
X90631601Y-93625944D01*
X90875054Y-93630819D01*
X91049849Y-93247933D01*
X91064814Y-92827300D01*
X90917670Y-92432960D01*
X90875054Y-92369181D01*
X90631601Y-92374056D01*
X90005657Y-93000000D01*
X89994343Y-93000000D01*
X89368399Y-92374056D01*
X89124946Y-92369181D01*
X88950151Y-92752067D01*
X88935186Y-93172700D01*
X88075000Y-93172700D01*
X88075000Y-92124946D01*
X89369181Y-92124946D01*
X89374056Y-92368399D01*
X90000000Y-92994343D01*
X90625944Y-92368399D01*
X90630819Y-92124946D01*
X90247933Y-91950151D01*
X89827300Y-91935186D01*
X89432960Y-92082330D01*
X89369181Y-92124946D01*
X88075000Y-92124946D01*
X88075000Y-90010156D01*
X88089628Y-89995554D01*
X88249818Y-89609774D01*
X88250182Y-89192058D01*
X88090666Y-88806000D01*
X87892954Y-88607942D01*
X90149818Y-88607942D01*
X90309334Y-88994000D01*
X90604446Y-89289628D01*
X90990226Y-89449818D01*
X91012401Y-89449837D01*
X91238803Y-89676239D01*
X91110372Y-89804446D01*
X90950182Y-90190226D01*
X90949818Y-90607942D01*
X91109334Y-90994000D01*
X91125000Y-91009693D01*
X91125000Y-94000000D01*
X91188188Y-94317670D01*
X91191605Y-94334848D01*
X91381282Y-94618718D01*
X94781281Y-98018718D01*
X94968030Y-98143500D01*
X95065152Y-98208395D01*
X95400000Y-98275000D01*
X95767891Y-98275000D01*
X95901862Y-98483198D01*
X96152492Y-98654446D01*
X96450000Y-98714693D01*
X98950000Y-98714693D01*
X99227933Y-98662396D01*
X99483198Y-98498138D01*
X99654446Y-98247508D01*
X99714693Y-97950000D01*
X99714693Y-96875054D01*
X107369181Y-96875054D01*
X107752067Y-97049849D01*
X108172700Y-97064814D01*
X108567040Y-96917670D01*
X108630819Y-96875054D01*
X120369181Y-96875054D01*
X120752067Y-97049849D01*
X121172700Y-97064814D01*
X121567040Y-96917670D01*
X121630819Y-96875054D01*
X121625944Y-96631601D01*
X121000000Y-96005657D01*
X120374056Y-96631601D01*
X120369181Y-96875054D01*
X108630819Y-96875054D01*
X108625944Y-96631601D01*
X108000000Y-96005657D01*
X107374056Y-96631601D01*
X107369181Y-96875054D01*
X99714693Y-96875054D01*
X99714693Y-96850000D01*
X99662396Y-96572067D01*
X99550985Y-96398929D01*
X99654446Y-96247508D01*
X99669595Y-96172700D01*
X106935186Y-96172700D01*
X107082330Y-96567040D01*
X107124946Y-96630819D01*
X107368399Y-96625944D01*
X107994343Y-96000000D01*
X108005657Y-96000000D01*
X108631601Y-96625944D01*
X108875054Y-96630819D01*
X109049849Y-96247933D01*
X109052525Y-96172700D01*
X119935186Y-96172700D01*
X120082330Y-96567040D01*
X120124946Y-96630819D01*
X120368399Y-96625944D01*
X120994343Y-96000000D01*
X121005657Y-96000000D01*
X121631601Y-96625944D01*
X121875054Y-96630819D01*
X122049849Y-96247933D01*
X122064814Y-95827300D01*
X121917670Y-95432960D01*
X121875054Y-95369181D01*
X121631601Y-95374056D01*
X121005657Y-96000000D01*
X120994343Y-96000000D01*
X120368399Y-95374056D01*
X120124946Y-95369181D01*
X119950151Y-95752067D01*
X119935186Y-96172700D01*
X109052525Y-96172700D01*
X109064814Y-95827300D01*
X108917670Y-95432960D01*
X108875054Y-95369181D01*
X108631601Y-95374056D01*
X108005657Y-96000000D01*
X107994343Y-96000000D01*
X107368399Y-95374056D01*
X107124946Y-95369181D01*
X106950151Y-95752067D01*
X106935186Y-96172700D01*
X99669595Y-96172700D01*
X99714693Y-95950000D01*
X99714693Y-95124946D01*
X107369181Y-95124946D01*
X107374056Y-95368399D01*
X108000000Y-95994343D01*
X108625944Y-95368399D01*
X108630819Y-95124946D01*
X120369181Y-95124946D01*
X120374056Y-95368399D01*
X121000000Y-95994343D01*
X121625944Y-95368399D01*
X121630819Y-95124946D01*
X121247933Y-94950151D01*
X120827300Y-94935186D01*
X120432960Y-95082330D01*
X120369181Y-95124946D01*
X108630819Y-95124946D01*
X108247933Y-94950151D01*
X107827300Y-94935186D01*
X107432960Y-95082330D01*
X107369181Y-95124946D01*
X99714693Y-95124946D01*
X99714693Y-94850000D01*
X99662396Y-94572067D01*
X99550985Y-94398929D01*
X99654446Y-94247508D01*
X99714693Y-93950000D01*
X99714693Y-92850000D01*
X99662396Y-92572067D01*
X99550985Y-92398929D01*
X99654446Y-92247508D01*
X99714693Y-91950000D01*
X99714693Y-90850000D01*
X99662396Y-90572067D01*
X99550985Y-90398929D01*
X99654446Y-90247508D01*
X99714693Y-89950000D01*
X99714693Y-88850000D01*
X99662396Y-88572067D01*
X99550985Y-88398929D01*
X99654446Y-88247508D01*
X99714693Y-87950000D01*
X99714693Y-87875054D01*
X102369181Y-87875054D01*
X102752067Y-88049849D01*
X103172700Y-88064814D01*
X103567040Y-87917670D01*
X103630819Y-87875054D01*
X103625944Y-87631601D01*
X103000000Y-87005657D01*
X102374056Y-87631601D01*
X102369181Y-87875054D01*
X99714693Y-87875054D01*
X99714693Y-87172700D01*
X101935186Y-87172700D01*
X102082330Y-87567040D01*
X102124946Y-87630819D01*
X102368399Y-87625944D01*
X102994343Y-87000000D01*
X103005657Y-87000000D01*
X103631601Y-87625944D01*
X103875054Y-87630819D01*
X104049849Y-87247933D01*
X104064814Y-86827300D01*
X103917670Y-86432960D01*
X103875054Y-86369181D01*
X103631601Y-86374056D01*
X103005657Y-87000000D01*
X102994343Y-87000000D01*
X102368399Y-86374056D01*
X102124946Y-86369181D01*
X101950151Y-86752067D01*
X101935186Y-87172700D01*
X99714693Y-87172700D01*
X99714693Y-86850000D01*
X99662396Y-86572067D01*
X99559622Y-86412352D01*
X99592602Y-86379372D01*
X99697988Y-86124946D01*
X102369181Y-86124946D01*
X102374056Y-86368399D01*
X103000000Y-86994343D01*
X103625944Y-86368399D01*
X103630819Y-86124946D01*
X103247933Y-85950151D01*
X102827300Y-85935186D01*
X102432960Y-86082330D01*
X102369181Y-86124946D01*
X99697988Y-86124946D01*
X99708000Y-86100775D01*
X99708000Y-85593500D01*
X99518500Y-85404000D01*
X97704000Y-85404000D01*
X97704000Y-85424000D01*
X97696000Y-85424000D01*
X97696000Y-85404000D01*
X95881500Y-85404000D01*
X95692000Y-85593500D01*
X95692000Y-86100775D01*
X95807398Y-86379372D01*
X95840930Y-86412904D01*
X95764338Y-86525000D01*
X95762437Y-86525000D01*
X95450164Y-86212728D01*
X95450182Y-86192058D01*
X95290666Y-85806000D01*
X94995554Y-85510372D01*
X94609774Y-85350182D01*
X94192058Y-85349818D01*
X93806000Y-85509334D01*
X93510372Y-85804446D01*
X93350182Y-86190226D01*
X93349818Y-86607942D01*
X93509334Y-86994000D01*
X93804446Y-87289628D01*
X94190226Y-87449818D01*
X94212401Y-87449837D01*
X94781282Y-88018719D01*
X95065152Y-88208395D01*
X95400000Y-88275000D01*
X95767891Y-88275000D01*
X95849015Y-88401071D01*
X95764338Y-88525000D01*
X95600000Y-88525000D01*
X95265152Y-88591605D01*
X94981281Y-88781282D01*
X94212728Y-89549836D01*
X94192058Y-89549818D01*
X93806000Y-89709334D01*
X93744981Y-89770246D01*
X93618718Y-89581281D01*
X92250164Y-88212728D01*
X92250182Y-88192058D01*
X92090666Y-87806000D01*
X91795554Y-87510372D01*
X91409774Y-87350182D01*
X90992058Y-87349818D01*
X90606000Y-87509334D01*
X90310372Y-87804446D01*
X90150182Y-88190226D01*
X90149818Y-88607942D01*
X87892954Y-88607942D01*
X87795554Y-88510372D01*
X87409774Y-88350182D01*
X86992058Y-88349818D01*
X86606000Y-88509334D01*
X86310372Y-88804446D01*
X86150182Y-89190226D01*
X86149818Y-89607942D01*
X86309334Y-89994000D01*
X86325000Y-90009693D01*
X86325000Y-95037563D01*
X84837564Y-96525000D01*
X84232109Y-96525000D01*
X84150985Y-96398929D01*
X84254446Y-96247508D01*
X84314693Y-95950000D01*
X84314693Y-94850000D01*
X84262396Y-94572067D01*
X84150985Y-94398929D01*
X84254446Y-94247508D01*
X84314693Y-93950000D01*
X84314693Y-92850000D01*
X84262396Y-92572067D01*
X84150985Y-92398929D01*
X84254446Y-92247508D01*
X84314693Y-91950000D01*
X84314693Y-90850000D01*
X84262396Y-90572067D01*
X84150985Y-90398929D01*
X84254446Y-90247508D01*
X84314693Y-89950000D01*
X84314693Y-88850000D01*
X84262396Y-88572067D01*
X84150985Y-88398929D01*
X84254446Y-88247508D01*
X84314693Y-87950000D01*
X84314693Y-86850000D01*
X84262396Y-86572067D01*
X84150985Y-86398929D01*
X84254446Y-86247508D01*
X84314693Y-85950000D01*
X84314693Y-84850000D01*
X84305285Y-84800000D01*
X88870251Y-84800000D01*
X88990226Y-84849818D01*
X89407942Y-84850182D01*
X89794000Y-84690666D01*
X90089628Y-84395554D01*
X90249818Y-84009774D01*
X90250109Y-83676239D01*
X90440000Y-83714693D01*
X91540000Y-83714693D01*
X91817933Y-83662396D01*
X91991071Y-83550985D01*
X92142492Y-83654446D01*
X92440000Y-83714693D01*
X93540000Y-83714693D01*
X93817933Y-83662396D01*
X93991071Y-83550985D01*
X94142492Y-83654446D01*
X94440000Y-83714693D01*
X95540000Y-83714693D01*
X95692000Y-83686092D01*
X95692000Y-84100775D01*
X95807398Y-84379372D01*
X95828026Y-84400000D01*
X95807398Y-84420628D01*
X95692000Y-84699225D01*
X95692000Y-85206500D01*
X95881500Y-85396000D01*
X97696000Y-85396000D01*
X97696000Y-83404000D01*
X97704000Y-83404000D01*
X97704000Y-85396000D01*
X99518500Y-85396000D01*
X99708000Y-85206500D01*
X99708000Y-84699225D01*
X99592602Y-84420628D01*
X99571974Y-84400000D01*
X99592602Y-84379372D01*
X99708000Y-84100775D01*
X99708000Y-83593500D01*
X99518500Y-83404000D01*
X97704000Y-83404000D01*
X97696000Y-83404000D01*
X97676000Y-83404000D01*
X97676000Y-83396000D01*
X97696000Y-83396000D01*
X97696000Y-82281500D01*
X97704000Y-82281500D01*
X97704000Y-83396000D01*
X99518500Y-83396000D01*
X99708000Y-83206500D01*
X99708000Y-82699225D01*
X99592602Y-82420628D01*
X99379373Y-82207399D01*
X99100776Y-82092000D01*
X97893500Y-82092000D01*
X97704000Y-82281500D01*
X97696000Y-82281500D01*
X97506500Y-82092000D01*
X96304693Y-82092000D01*
X96304693Y-80450000D01*
X96252396Y-80172067D01*
X96088138Y-79916802D01*
X96027038Y-79875054D01*
X102369181Y-79875054D01*
X102752067Y-80049849D01*
X103172700Y-80064814D01*
X103567040Y-79917670D01*
X103630819Y-79875054D01*
X103625944Y-79631601D01*
X103000000Y-79005657D01*
X102374056Y-79631601D01*
X102369181Y-79875054D01*
X96027038Y-79875054D01*
X95837508Y-79745554D01*
X95540000Y-79685307D01*
X94440000Y-79685307D01*
X94162067Y-79737604D01*
X93988929Y-79849015D01*
X93837508Y-79745554D01*
X93540000Y-79685307D01*
X92440000Y-79685307D01*
X92162067Y-79737604D01*
X91988929Y-79849015D01*
X91837508Y-79745554D01*
X91540000Y-79685307D01*
X90440000Y-79685307D01*
X90162067Y-79737604D01*
X89988929Y-79849015D01*
X89837508Y-79745554D01*
X89540000Y-79685307D01*
X88440000Y-79685307D01*
X88162067Y-79737604D01*
X87988929Y-79849015D01*
X87837508Y-79745554D01*
X87540000Y-79685307D01*
X86440000Y-79685307D01*
X86162067Y-79737604D01*
X85988929Y-79849015D01*
X85837508Y-79745554D01*
X85540000Y-79685307D01*
X84440000Y-79685307D01*
X84162067Y-79737604D01*
X83906802Y-79901862D01*
X83735554Y-80152492D01*
X83675307Y-80450000D01*
X83675307Y-82110682D01*
X83550000Y-82085307D01*
X81050000Y-82085307D01*
X80772067Y-82137604D01*
X80516802Y-82301862D01*
X80345554Y-82552492D01*
X80320913Y-82674170D01*
X80292893Y-82692893D01*
X79061358Y-83924428D01*
X79064814Y-83827300D01*
X78917670Y-83432960D01*
X78875054Y-83369181D01*
X78631601Y-83374056D01*
X78005657Y-84000000D01*
X78019799Y-84014142D01*
X78014142Y-84019799D01*
X78000000Y-84005657D01*
X77374056Y-84631601D01*
X77369181Y-84875054D01*
X77752067Y-85049849D01*
X77929620Y-85056166D01*
X76292893Y-86692893D01*
X76166018Y-86882774D01*
X76116117Y-86916117D01*
X75845151Y-87321646D01*
X75750000Y-87800000D01*
X75750000Y-87974522D01*
X75550776Y-87892000D01*
X74868500Y-87892000D01*
X74679000Y-88081500D01*
X74679000Y-89646000D01*
X74699000Y-89646000D01*
X74699000Y-89654000D01*
X74679000Y-89654000D01*
X74679000Y-91218500D01*
X74868500Y-91408000D01*
X75454723Y-91408000D01*
X75245151Y-91721646D01*
X75150000Y-92200000D01*
X75150000Y-93235786D01*
X75061358Y-93324428D01*
X75064814Y-93227300D01*
X74917670Y-92832960D01*
X74875054Y-92769181D01*
X74631601Y-92774056D01*
X74005657Y-93400000D01*
X74019799Y-93414142D01*
X74014142Y-93419799D01*
X74000000Y-93405657D01*
X73374056Y-94031601D01*
X73369181Y-94275054D01*
X73752067Y-94449849D01*
X73929620Y-94456166D01*
X73389693Y-94996093D01*
X73389693Y-94600000D01*
X73337396Y-94322067D01*
X73173138Y-94066802D01*
X72922508Y-93895554D01*
X72625000Y-93835307D01*
X72000000Y-93835307D01*
X72000000Y-93572700D01*
X72935186Y-93572700D01*
X73082330Y-93967040D01*
X73124946Y-94030819D01*
X73368399Y-94025944D01*
X73994343Y-93400000D01*
X73368399Y-92774056D01*
X73124946Y-92769181D01*
X72950151Y-93152067D01*
X72935186Y-93572700D01*
X72000000Y-93572700D01*
X72000000Y-92524946D01*
X73369181Y-92524946D01*
X73374056Y-92768399D01*
X74000000Y-93394343D01*
X74625944Y-92768399D01*
X74630819Y-92524946D01*
X74247933Y-92350151D01*
X73827300Y-92335186D01*
X73432960Y-92482330D01*
X73369181Y-92524946D01*
X72000000Y-92524946D01*
X72000000Y-89843500D01*
X73192000Y-89843500D01*
X73192000Y-90800775D01*
X73307398Y-91079372D01*
X73520627Y-91292601D01*
X73799224Y-91408000D01*
X74481500Y-91408000D01*
X74671000Y-91218500D01*
X74671000Y-89654000D01*
X73381500Y-89654000D01*
X73192000Y-89843500D01*
X72000000Y-89843500D01*
X72000000Y-88499225D01*
X73192000Y-88499225D01*
X73192000Y-89456500D01*
X73381500Y-89646000D01*
X74671000Y-89646000D01*
X74671000Y-88081500D01*
X74481500Y-87892000D01*
X73799224Y-87892000D01*
X73520627Y-88007399D01*
X73307398Y-88220628D01*
X73192000Y-88499225D01*
X72000000Y-88499225D01*
X72000000Y-87875054D01*
X72369181Y-87875054D01*
X72752067Y-88049849D01*
X73172700Y-88064814D01*
X73567040Y-87917670D01*
X73630819Y-87875054D01*
X73625944Y-87631601D01*
X73000000Y-87005657D01*
X72374056Y-87631601D01*
X72369181Y-87875054D01*
X72000000Y-87875054D01*
X72000000Y-87346399D01*
X72082330Y-87567040D01*
X72124946Y-87630819D01*
X72368399Y-87625944D01*
X72994343Y-87000000D01*
X73005657Y-87000000D01*
X73631601Y-87625944D01*
X73875054Y-87630819D01*
X74049849Y-87247933D01*
X74064814Y-86827300D01*
X73917670Y-86432960D01*
X73875054Y-86369181D01*
X73631601Y-86374056D01*
X73005657Y-87000000D01*
X72994343Y-87000000D01*
X72980201Y-86985858D01*
X72985858Y-86980201D01*
X73000000Y-86994343D01*
X73625944Y-86368399D01*
X73630819Y-86124946D01*
X73247933Y-85950151D01*
X72899675Y-85937761D01*
X74664736Y-84172700D01*
X76935186Y-84172700D01*
X77082330Y-84567040D01*
X77124946Y-84630819D01*
X77368399Y-84625944D01*
X77994343Y-84000000D01*
X77368399Y-83374056D01*
X77124946Y-83369181D01*
X76950151Y-83752067D01*
X76935186Y-84172700D01*
X74664736Y-84172700D01*
X75712490Y-83124946D01*
X77369181Y-83124946D01*
X77374056Y-83368399D01*
X78000000Y-83994343D01*
X78625944Y-83368399D01*
X78630819Y-83124946D01*
X78247933Y-82950151D01*
X77827300Y-82935186D01*
X77432960Y-83082330D01*
X77369181Y-83124946D01*
X75712490Y-83124946D01*
X81562437Y-77275000D01*
X86800000Y-77275000D01*
X87134848Y-77208395D01*
X87418718Y-77018718D01*
X89987273Y-74450164D01*
X90007942Y-74450182D01*
X90394000Y-74290666D01*
X90689628Y-73995554D01*
X90849818Y-73609774D01*
X90850182Y-73192058D01*
X90690666Y-72806000D01*
X90661077Y-72776360D01*
X90787273Y-72650164D01*
X90807942Y-72650182D01*
X91194000Y-72490666D01*
X91489628Y-72195554D01*
X91649818Y-71809774D01*
X91650182Y-71392058D01*
X91490666Y-71006000D01*
X91195554Y-70710372D01*
X90809774Y-70550182D01*
X90708505Y-70550094D01*
X90849818Y-70209774D01*
X90850182Y-69792058D01*
X90690666Y-69406000D01*
X90395554Y-69110372D01*
X90009774Y-68950182D01*
X89592058Y-68949818D01*
X89206000Y-69109334D01*
X88910372Y-69404446D01*
X88750182Y-69790226D01*
X88750163Y-69812400D01*
X85437564Y-73125000D01*
X81200000Y-73125000D01*
X80872085Y-73190226D01*
X80865152Y-73191605D01*
X80581281Y-73381282D01*
X65006282Y-88956282D01*
X64816605Y-89240152D01*
X64750000Y-89575000D01*
X64750000Y-93835307D01*
X64125000Y-93835307D01*
X63847067Y-93887604D01*
X63591802Y-94051862D01*
X63420554Y-94302492D01*
X63360307Y-94600000D01*
X52270037Y-94600000D01*
X51538338Y-93504935D01*
X51214135Y-91875054D01*
X55369181Y-91875054D01*
X55752067Y-92049849D01*
X56172700Y-92064814D01*
X56567040Y-91917670D01*
X56630819Y-91875054D01*
X56625944Y-91631601D01*
X56000000Y-91005657D01*
X55374056Y-91631601D01*
X55369181Y-91875054D01*
X51214135Y-91875054D01*
X51074428Y-91172700D01*
X54935186Y-91172700D01*
X55082330Y-91567040D01*
X55124946Y-91630819D01*
X55368399Y-91625944D01*
X55994343Y-91000000D01*
X56005657Y-91000000D01*
X56631601Y-91625944D01*
X56875054Y-91630819D01*
X57049849Y-91247933D01*
X57064814Y-90827300D01*
X56917670Y-90432960D01*
X56875054Y-90369181D01*
X56631601Y-90374056D01*
X56005657Y-91000000D01*
X55994343Y-91000000D01*
X55368399Y-90374056D01*
X55124946Y-90369181D01*
X54950151Y-90752067D01*
X54935186Y-91172700D01*
X51074428Y-91172700D01*
X50866017Y-90124946D01*
X55369181Y-90124946D01*
X55374056Y-90368399D01*
X56000000Y-90994343D01*
X56625944Y-90368399D01*
X56630819Y-90124946D01*
X56247933Y-89950151D01*
X55827300Y-89935186D01*
X55432960Y-90082330D01*
X55369181Y-90124946D01*
X50866017Y-90124946D01*
X50825000Y-89918743D01*
X50825000Y-89843500D01*
X59442000Y-89843500D01*
X59442000Y-90800775D01*
X59557398Y-91079372D01*
X59770627Y-91292601D01*
X60049224Y-91408000D01*
X60731500Y-91408000D01*
X60921000Y-91218500D01*
X60921000Y-89654000D01*
X60929000Y-89654000D01*
X60929000Y-91218500D01*
X61118500Y-91408000D01*
X61800776Y-91408000D01*
X62079373Y-91292601D01*
X62292602Y-91079372D01*
X62408000Y-90800775D01*
X62408000Y-89843500D01*
X62218500Y-89654000D01*
X60929000Y-89654000D01*
X60921000Y-89654000D01*
X59631500Y-89654000D01*
X59442000Y-89843500D01*
X50825000Y-89843500D01*
X50825000Y-88499225D01*
X59442000Y-88499225D01*
X59442000Y-89456500D01*
X59631500Y-89646000D01*
X60921000Y-89646000D01*
X60921000Y-88081500D01*
X60929000Y-88081500D01*
X60929000Y-89646000D01*
X62218500Y-89646000D01*
X62408000Y-89456500D01*
X62408000Y-88499225D01*
X62292602Y-88220628D01*
X62079373Y-88007399D01*
X61800776Y-87892000D01*
X61118500Y-87892000D01*
X60929000Y-88081500D01*
X60921000Y-88081500D01*
X60731500Y-87892000D01*
X60049224Y-87892000D01*
X59770627Y-88007399D01*
X59557398Y-88220628D01*
X59442000Y-88499225D01*
X50825000Y-88499225D01*
X50825000Y-86875054D01*
X65369181Y-86875054D01*
X65752067Y-87049849D01*
X66172700Y-87064814D01*
X66567040Y-86917670D01*
X66630819Y-86875054D01*
X66625944Y-86631601D01*
X66000000Y-86005657D01*
X65374056Y-86631601D01*
X65369181Y-86875054D01*
X50825000Y-86875054D01*
X50825000Y-86172700D01*
X64935186Y-86172700D01*
X65082330Y-86567040D01*
X65124946Y-86630819D01*
X65368399Y-86625944D01*
X65994343Y-86000000D01*
X66005657Y-86000000D01*
X66631601Y-86625944D01*
X66875054Y-86630819D01*
X67049849Y-86247933D01*
X67064814Y-85827300D01*
X66917670Y-85432960D01*
X66875054Y-85369181D01*
X66631601Y-85374056D01*
X66005657Y-86000000D01*
X65994343Y-86000000D01*
X65368399Y-85374056D01*
X65124946Y-85369181D01*
X64950151Y-85752067D01*
X64935186Y-86172700D01*
X50825000Y-86172700D01*
X50825000Y-85124946D01*
X65369181Y-85124946D01*
X65374056Y-85368399D01*
X66000000Y-85994343D01*
X66625944Y-85368399D01*
X66630819Y-85124946D01*
X66247933Y-84950151D01*
X65827300Y-84935186D01*
X65432960Y-85082330D01*
X65369181Y-85124946D01*
X50825000Y-85124946D01*
X50825000Y-84875054D01*
X59369181Y-84875054D01*
X59752067Y-85049849D01*
X60172700Y-85064814D01*
X60567040Y-84917670D01*
X60630819Y-84875054D01*
X60625944Y-84631601D01*
X60000000Y-84005657D01*
X59374056Y-84631601D01*
X59369181Y-84875054D01*
X50825000Y-84875054D01*
X50825000Y-84172700D01*
X58935186Y-84172700D01*
X59082330Y-84567040D01*
X59124946Y-84630819D01*
X59368399Y-84625944D01*
X59994343Y-84000000D01*
X60005657Y-84000000D01*
X60631601Y-84625944D01*
X60875054Y-84630819D01*
X61049849Y-84247933D01*
X61064814Y-83827300D01*
X60917670Y-83432960D01*
X60875054Y-83369181D01*
X60631601Y-83374056D01*
X60005657Y-84000000D01*
X59994343Y-84000000D01*
X59368399Y-83374056D01*
X59124946Y-83369181D01*
X58950151Y-83752067D01*
X58935186Y-84172700D01*
X50825000Y-84172700D01*
X50825000Y-83124946D01*
X59369181Y-83124946D01*
X59374056Y-83368399D01*
X60000000Y-83994343D01*
X60625944Y-83368399D01*
X60630819Y-83124946D01*
X60247933Y-82950151D01*
X59827300Y-82935186D01*
X59432960Y-83082330D01*
X59369181Y-83124946D01*
X50825000Y-83124946D01*
X50825000Y-78607942D01*
X53349818Y-78607942D01*
X53509334Y-78994000D01*
X53525000Y-79009693D01*
X53525000Y-81189844D01*
X53510372Y-81204446D01*
X53350182Y-81590226D01*
X53349818Y-82007942D01*
X53509334Y-82394000D01*
X53804446Y-82689628D01*
X54190226Y-82849818D01*
X54607942Y-82850182D01*
X54994000Y-82690666D01*
X55289628Y-82395554D01*
X55449818Y-82009774D01*
X55450182Y-81592058D01*
X55290666Y-81206000D01*
X55275000Y-81190307D01*
X55275000Y-80875054D01*
X71369181Y-80875054D01*
X71752067Y-81049849D01*
X72172700Y-81064814D01*
X72567040Y-80917670D01*
X72630819Y-80875054D01*
X72625944Y-80631601D01*
X72000000Y-80005657D01*
X71374056Y-80631601D01*
X71369181Y-80875054D01*
X55275000Y-80875054D01*
X55275000Y-80172700D01*
X70935186Y-80172700D01*
X71082330Y-80567040D01*
X71124946Y-80630819D01*
X71368399Y-80625944D01*
X71994343Y-80000000D01*
X72005657Y-80000000D01*
X72631601Y-80625944D01*
X72875054Y-80630819D01*
X73049849Y-80247933D01*
X73064814Y-79827300D01*
X72917670Y-79432960D01*
X72875054Y-79369181D01*
X72631601Y-79374056D01*
X72005657Y-80000000D01*
X71994343Y-80000000D01*
X71368399Y-79374056D01*
X71124946Y-79369181D01*
X70950151Y-79752067D01*
X70935186Y-80172700D01*
X55275000Y-80172700D01*
X55275000Y-79124946D01*
X71369181Y-79124946D01*
X71374056Y-79368399D01*
X72000000Y-79994343D01*
X72625944Y-79368399D01*
X72630819Y-79124946D01*
X72247933Y-78950151D01*
X71827300Y-78935186D01*
X71432960Y-79082330D01*
X71369181Y-79124946D01*
X55275000Y-79124946D01*
X55275000Y-79010156D01*
X55289628Y-78995554D01*
X55449818Y-78609774D01*
X55450182Y-78192058D01*
X55290666Y-77806000D01*
X54995554Y-77510372D01*
X54609774Y-77350182D01*
X54192058Y-77349818D01*
X53806000Y-77509334D01*
X53510372Y-77804446D01*
X53350182Y-78190226D01*
X53349818Y-78607942D01*
X50825000Y-78607942D01*
X50825000Y-73800000D01*
X70350001Y-73800000D01*
X70445151Y-74278354D01*
X70716117Y-74683883D01*
X73716117Y-77683884D01*
X74121646Y-77954849D01*
X74600000Y-78050000D01*
X75078354Y-77954849D01*
X75483884Y-77683884D01*
X75754849Y-77278354D01*
X75850000Y-76800000D01*
X75754849Y-76321646D01*
X75483884Y-75916117D01*
X75442821Y-75875054D01*
X76369181Y-75875054D01*
X76752067Y-76049849D01*
X77172700Y-76064814D01*
X77567040Y-75917670D01*
X77630819Y-75875054D01*
X77625944Y-75631601D01*
X77000000Y-75005657D01*
X76374056Y-75631601D01*
X76369181Y-75875054D01*
X75442821Y-75875054D01*
X74740467Y-75172700D01*
X75935186Y-75172700D01*
X76082330Y-75567040D01*
X76124946Y-75630819D01*
X76368399Y-75625944D01*
X76994343Y-75000000D01*
X77005657Y-75000000D01*
X77631601Y-75625944D01*
X77875054Y-75630819D01*
X78049849Y-75247933D01*
X78064814Y-74827300D01*
X77917670Y-74432960D01*
X77875054Y-74369181D01*
X77631601Y-74374056D01*
X77005657Y-75000000D01*
X76994343Y-75000000D01*
X76368399Y-74374056D01*
X76124946Y-74369181D01*
X75950151Y-74752067D01*
X75935186Y-75172700D01*
X74740467Y-75172700D01*
X73692713Y-74124946D01*
X76369181Y-74124946D01*
X76374056Y-74368399D01*
X77000000Y-74994343D01*
X77625944Y-74368399D01*
X77630819Y-74124946D01*
X77247933Y-73950151D01*
X76827300Y-73935186D01*
X76432960Y-74082330D01*
X76369181Y-74124946D01*
X73692713Y-74124946D01*
X72483883Y-72916117D01*
X72078354Y-72645151D01*
X71600000Y-72550001D01*
X71121646Y-72645151D01*
X70716117Y-72916117D01*
X70445151Y-73321646D01*
X70350001Y-73800000D01*
X50825000Y-73800000D01*
X50825000Y-68807942D01*
X53149818Y-68807942D01*
X53309334Y-69194000D01*
X53325000Y-69209693D01*
X53325000Y-71189844D01*
X53310372Y-71204446D01*
X53150182Y-71590226D01*
X53149818Y-72007942D01*
X53309334Y-72394000D01*
X53604446Y-72689628D01*
X53990226Y-72849818D01*
X54407942Y-72850182D01*
X54794000Y-72690666D01*
X55089628Y-72395554D01*
X55249818Y-72009774D01*
X55250182Y-71592058D01*
X55090666Y-71206000D01*
X55075000Y-71190307D01*
X55075000Y-69807942D01*
X58949818Y-69807942D01*
X59109334Y-70194000D01*
X59125000Y-70209693D01*
X59125000Y-71789844D01*
X59110372Y-71804446D01*
X58950182Y-72190226D01*
X58949818Y-72607942D01*
X59109334Y-72994000D01*
X59404446Y-73289628D01*
X59790226Y-73449818D01*
X60207942Y-73450182D01*
X60594000Y-73290666D01*
X60889628Y-72995554D01*
X61049818Y-72609774D01*
X61050182Y-72192058D01*
X60891469Y-71807942D01*
X62949818Y-71807942D01*
X63109334Y-72194000D01*
X63404446Y-72489628D01*
X63790226Y-72649818D01*
X64207942Y-72650182D01*
X64594000Y-72490666D01*
X64609693Y-72475000D01*
X77789844Y-72475000D01*
X77804446Y-72489628D01*
X78190226Y-72649818D01*
X78607942Y-72650182D01*
X78994000Y-72490666D01*
X79289628Y-72195554D01*
X79449818Y-71809774D01*
X79450182Y-71392058D01*
X79290666Y-71006000D01*
X78995554Y-70710372D01*
X78609774Y-70550182D01*
X78192058Y-70549818D01*
X77806000Y-70709334D01*
X77790307Y-70725000D01*
X64610156Y-70725000D01*
X64595554Y-70710372D01*
X64209774Y-70550182D01*
X63792058Y-70549818D01*
X63406000Y-70709334D01*
X63110372Y-71004446D01*
X62950182Y-71390226D01*
X62949818Y-71807942D01*
X60891469Y-71807942D01*
X60890666Y-71806000D01*
X60875000Y-71790307D01*
X60875000Y-70210156D01*
X60889628Y-70195554D01*
X61049818Y-69809774D01*
X61050182Y-69392058D01*
X60890666Y-69006000D01*
X60595554Y-68710372D01*
X60209774Y-68550182D01*
X59792058Y-68549818D01*
X59406000Y-68709334D01*
X59110372Y-69004446D01*
X58950182Y-69390226D01*
X58949818Y-69807942D01*
X55075000Y-69807942D01*
X55075000Y-69210156D01*
X55089628Y-69195554D01*
X55249818Y-68809774D01*
X55250182Y-68392058D01*
X55090666Y-68006000D01*
X54795554Y-67710372D01*
X54409774Y-67550182D01*
X53992058Y-67549818D01*
X53606000Y-67709334D01*
X53310372Y-68004446D01*
X53150182Y-68390226D01*
X53149818Y-68807942D01*
X50825000Y-68807942D01*
X50825000Y-66607942D01*
X63749818Y-66607942D01*
X63909334Y-66994000D01*
X63925000Y-67009693D01*
X63925000Y-67600000D01*
X63991605Y-67934848D01*
X64181282Y-68218718D01*
X64465152Y-68408395D01*
X64800000Y-68475000D01*
X65134848Y-68408395D01*
X65147411Y-68400000D01*
X74950001Y-68400000D01*
X75045151Y-68878354D01*
X75316117Y-69283883D01*
X75721646Y-69554849D01*
X76200000Y-69649999D01*
X76678354Y-69554849D01*
X77083883Y-69283883D01*
X77576776Y-68790990D01*
X80059726Y-71273939D01*
X80109334Y-71394000D01*
X80404446Y-71689628D01*
X80790226Y-71849818D01*
X81207942Y-71850182D01*
X81594000Y-71690666D01*
X81889628Y-71395554D01*
X82049818Y-71009774D01*
X82050182Y-70592058D01*
X81890666Y-70206000D01*
X81595554Y-69910372D01*
X81474190Y-69859977D01*
X78990990Y-67376776D01*
X79517767Y-66850000D01*
X89082234Y-66850000D01*
X89616116Y-67383883D01*
X89616119Y-67383885D01*
X98216117Y-75983884D01*
X98216120Y-75983886D01*
X100116117Y-77883884D01*
X100476893Y-78124946D01*
X100521646Y-78154849D01*
X101000000Y-78250000D01*
X102244341Y-78250000D01*
X102368397Y-78374056D01*
X102124946Y-78369181D01*
X101950151Y-78752067D01*
X101935186Y-79172700D01*
X102082330Y-79567040D01*
X102124946Y-79630819D01*
X102368399Y-79625944D01*
X102994343Y-79000000D01*
X103005657Y-79000000D01*
X103631601Y-79625944D01*
X103875054Y-79630819D01*
X103889123Y-79600000D01*
X104950000Y-79600000D01*
X104950000Y-86280000D01*
X105026064Y-86662396D01*
X105045151Y-86758354D01*
X105316117Y-87163883D01*
X107083874Y-88931641D01*
X107171793Y-89373639D01*
X107400000Y-89715176D01*
X107400000Y-90284824D01*
X107171793Y-90626361D01*
X107050000Y-91238654D01*
X107050000Y-91301346D01*
X107171793Y-91913639D01*
X107518629Y-92432717D01*
X108037707Y-92779553D01*
X108650000Y-92901346D01*
X109262293Y-92779553D01*
X109781371Y-92432717D01*
X109920000Y-92225244D01*
X110058629Y-92432717D01*
X110577707Y-92779553D01*
X111190000Y-92901346D01*
X111802293Y-92779553D01*
X112321371Y-92432717D01*
X112460000Y-92225244D01*
X112598629Y-92432717D01*
X113117707Y-92779553D01*
X113730000Y-92901346D01*
X114342293Y-92779553D01*
X114861371Y-92432717D01*
X115000000Y-92225244D01*
X115138629Y-92432717D01*
X115657707Y-92779553D01*
X116270000Y-92901346D01*
X116882293Y-92779553D01*
X117401371Y-92432717D01*
X117540000Y-92225244D01*
X117678629Y-92432717D01*
X118197707Y-92779553D01*
X118810000Y-92901346D01*
X119422293Y-92779553D01*
X119941371Y-92432717D01*
X120080000Y-92225244D01*
X120218629Y-92432717D01*
X120737707Y-92779553D01*
X121350000Y-92901346D01*
X121962293Y-92779553D01*
X122481371Y-92432717D01*
X122828207Y-91913639D01*
X122950000Y-91301346D01*
X122950000Y-91238654D01*
X122828207Y-90626361D01*
X122566835Y-90235189D01*
X122733198Y-90128138D01*
X122904446Y-89877508D01*
X122964693Y-89580000D01*
X122964693Y-87880000D01*
X122912396Y-87602067D01*
X122748138Y-87346802D01*
X122497508Y-87175554D01*
X122200000Y-87115307D01*
X120500000Y-87115307D01*
X120222067Y-87167604D01*
X119966802Y-87331862D01*
X119848394Y-87505158D01*
X119422293Y-87220447D01*
X118810000Y-87098654D01*
X118197707Y-87220447D01*
X117678629Y-87567283D01*
X117540000Y-87774756D01*
X117401371Y-87567283D01*
X116882293Y-87220447D01*
X116270000Y-87098654D01*
X115657707Y-87220447D01*
X115138629Y-87567283D01*
X115000000Y-87774756D01*
X114861371Y-87567283D01*
X114342293Y-87220447D01*
X113730000Y-87098654D01*
X113117707Y-87220447D01*
X112598629Y-87567283D01*
X112460000Y-87774756D01*
X112321371Y-87567283D01*
X111802293Y-87220447D01*
X111190000Y-87098654D01*
X110577707Y-87220447D01*
X110058629Y-87567283D01*
X109920000Y-87774756D01*
X109781371Y-87567283D01*
X109262293Y-87220447D01*
X108820294Y-87132528D01*
X107450000Y-85762234D01*
X107450000Y-83875054D01*
X124369181Y-83875054D01*
X124752067Y-84049849D01*
X125172700Y-84064814D01*
X125567040Y-83917670D01*
X125630819Y-83875054D01*
X125625944Y-83631601D01*
X125000000Y-83005657D01*
X124374056Y-83631601D01*
X124369181Y-83875054D01*
X107450000Y-83875054D01*
X107450000Y-83172700D01*
X123935186Y-83172700D01*
X124082330Y-83567040D01*
X124124946Y-83630819D01*
X124368399Y-83625944D01*
X124994343Y-83000000D01*
X125005657Y-83000000D01*
X125631601Y-83625944D01*
X125875054Y-83630819D01*
X126049849Y-83247933D01*
X126064814Y-82827300D01*
X125917670Y-82432960D01*
X125875054Y-82369181D01*
X125631601Y-82374056D01*
X125005657Y-83000000D01*
X124994343Y-83000000D01*
X124368399Y-82374056D01*
X124124946Y-82369181D01*
X123950151Y-82752067D01*
X123935186Y-83172700D01*
X107450000Y-83172700D01*
X107450000Y-82124946D01*
X124369181Y-82124946D01*
X124374056Y-82368399D01*
X125000000Y-82994343D01*
X125625944Y-82368399D01*
X125630819Y-82124946D01*
X125247933Y-81950151D01*
X124827300Y-81935186D01*
X124432960Y-82082330D01*
X124369181Y-82124946D01*
X107450000Y-82124946D01*
X107450000Y-79875054D01*
X110369181Y-79875054D01*
X110752067Y-80049849D01*
X111172700Y-80064814D01*
X111567040Y-79917670D01*
X111630819Y-79875054D01*
X111625944Y-79631601D01*
X111000000Y-79005657D01*
X110374056Y-79631601D01*
X110369181Y-79875054D01*
X107450000Y-79875054D01*
X107450000Y-79600000D01*
X107365005Y-79172700D01*
X109935186Y-79172700D01*
X110082330Y-79567040D01*
X110124946Y-79630819D01*
X110368399Y-79625944D01*
X110994343Y-79000000D01*
X111005657Y-79000000D01*
X111631601Y-79625944D01*
X111875054Y-79630819D01*
X112049849Y-79247933D01*
X112064814Y-78827300D01*
X111917670Y-78432960D01*
X111875054Y-78369181D01*
X111631601Y-78374056D01*
X111005657Y-79000000D01*
X110994343Y-79000000D01*
X110368399Y-78374056D01*
X110124946Y-78369181D01*
X109950151Y-78752067D01*
X109935186Y-79172700D01*
X107365005Y-79172700D01*
X107354849Y-79121646D01*
X107083883Y-78716117D01*
X106678354Y-78445151D01*
X106200000Y-78350000D01*
X105721646Y-78445151D01*
X105316117Y-78716117D01*
X105045151Y-79121646D01*
X104950000Y-79600000D01*
X103889123Y-79600000D01*
X104049849Y-79247933D01*
X104064814Y-78827300D01*
X103917670Y-78432960D01*
X103875054Y-78369181D01*
X103631601Y-78374056D01*
X103005657Y-79000000D01*
X102994343Y-79000000D01*
X102980201Y-78985858D01*
X102985858Y-78980201D01*
X103000000Y-78994343D01*
X103625944Y-78368399D01*
X103630819Y-78124946D01*
X110369181Y-78124946D01*
X110374056Y-78368399D01*
X111000000Y-78994343D01*
X111625944Y-78368399D01*
X111630819Y-78124946D01*
X111247933Y-77950151D01*
X110827300Y-77935186D01*
X110432960Y-78082330D01*
X110369181Y-78124946D01*
X103630819Y-78124946D01*
X103566828Y-78095733D01*
X103883883Y-77883883D01*
X104154849Y-77478354D01*
X104250000Y-77000000D01*
X104154849Y-76521646D01*
X103883883Y-76116117D01*
X103478354Y-75845151D01*
X103000000Y-75750000D01*
X101517767Y-75750000D01*
X99983886Y-74216120D01*
X99983884Y-74216117D01*
X92015022Y-66247256D01*
X92394000Y-66090666D01*
X92689628Y-65795554D01*
X92849818Y-65409774D01*
X92850182Y-64992058D01*
X92801837Y-64875054D01*
X97969181Y-64875054D01*
X98352067Y-65049849D01*
X98772700Y-65064814D01*
X99167040Y-64917670D01*
X99230819Y-64875054D01*
X99225944Y-64631601D01*
X98600000Y-64005657D01*
X97974056Y-64631601D01*
X97969181Y-64875054D01*
X92801837Y-64875054D01*
X92690666Y-64606000D01*
X92434002Y-64348887D01*
X92627933Y-64312396D01*
X92883198Y-64148138D01*
X93054446Y-63897508D01*
X93114693Y-63600000D01*
X93114693Y-60800000D01*
X93084910Y-60641715D01*
X93124224Y-60658000D01*
X93381500Y-60658000D01*
X93571000Y-60468500D01*
X93571000Y-59004000D01*
X92706500Y-59004000D01*
X92517000Y-59193500D01*
X92517000Y-60050775D01*
X92525297Y-60070806D01*
X92350000Y-60035307D01*
X91350000Y-60035307D01*
X91072067Y-60087604D01*
X90816802Y-60251862D01*
X90645554Y-60502492D01*
X90585307Y-60800000D01*
X90585307Y-63600000D01*
X90637604Y-63877933D01*
X90801862Y-64133198D01*
X91052492Y-64304446D01*
X91184182Y-64331114D01*
X90910372Y-64604446D01*
X90752474Y-64984707D01*
X90483883Y-64716117D01*
X90078354Y-64445151D01*
X89600000Y-64350000D01*
X79000000Y-64350000D01*
X78521646Y-64445151D01*
X78116116Y-64716117D01*
X76416120Y-66416114D01*
X76416117Y-66416116D01*
X75316117Y-67516117D01*
X75045151Y-67921646D01*
X74950001Y-68400000D01*
X65147411Y-68400000D01*
X65418718Y-68218718D01*
X65608395Y-67934848D01*
X65675000Y-67600000D01*
X65675000Y-67010156D01*
X65689628Y-66995554D01*
X65849818Y-66609774D01*
X65850182Y-66192058D01*
X65690666Y-65806000D01*
X65395554Y-65510372D01*
X65009774Y-65350182D01*
X64592058Y-65349818D01*
X64206000Y-65509334D01*
X63910372Y-65804446D01*
X63750182Y-66190226D01*
X63749818Y-66607942D01*
X50825000Y-66607942D01*
X50825000Y-64875054D01*
X51369181Y-64875054D01*
X51752067Y-65049849D01*
X52172700Y-65064814D01*
X52567040Y-64917670D01*
X52630819Y-64875054D01*
X52625944Y-64631601D01*
X52000000Y-64005657D01*
X51374056Y-64631601D01*
X51369181Y-64875054D01*
X50825000Y-64875054D01*
X50825000Y-64172700D01*
X50935186Y-64172700D01*
X51082330Y-64567040D01*
X51124946Y-64630819D01*
X51368399Y-64625944D01*
X51994343Y-64000000D01*
X52005657Y-64000000D01*
X52631601Y-64625944D01*
X52875054Y-64630819D01*
X53049849Y-64247933D01*
X53064814Y-63827300D01*
X52917670Y-63432960D01*
X52875054Y-63369181D01*
X52631601Y-63374056D01*
X52005657Y-64000000D01*
X51994343Y-64000000D01*
X51368399Y-63374056D01*
X51124946Y-63369181D01*
X50950151Y-63752067D01*
X50935186Y-64172700D01*
X50825000Y-64172700D01*
X50825000Y-63124946D01*
X51369181Y-63124946D01*
X51374056Y-63368399D01*
X52000000Y-63994343D01*
X52625944Y-63368399D01*
X52630819Y-63124946D01*
X52247933Y-62950151D01*
X51827300Y-62935186D01*
X51432960Y-63082330D01*
X51369181Y-63124946D01*
X50825000Y-63124946D01*
X50825000Y-60136400D01*
X61571707Y-60136400D01*
X61571707Y-61863600D01*
X61624004Y-62141533D01*
X61788262Y-62396798D01*
X62038892Y-62568046D01*
X62336400Y-62628293D01*
X64063600Y-62628293D01*
X64341533Y-62575996D01*
X64596798Y-62411738D01*
X64709672Y-62246541D01*
X65122502Y-62522384D01*
X65740000Y-62645212D01*
X66357498Y-62522384D01*
X66880988Y-62172600D01*
X67013820Y-61973803D01*
X67330087Y-62314249D01*
X67905336Y-62577724D01*
X68022376Y-62601005D01*
X68276000Y-62432094D01*
X68276000Y-61004000D01*
X68256000Y-61004000D01*
X68256000Y-60996000D01*
X68276000Y-60996000D01*
X68276000Y-58464000D01*
X68256000Y-58464000D01*
X68256000Y-58456000D01*
X68276000Y-58456000D01*
X68276000Y-57027906D01*
X68284000Y-57027906D01*
X68284000Y-58456000D01*
X68304000Y-58456000D01*
X68304000Y-58464000D01*
X68284000Y-58464000D01*
X68284000Y-60996000D01*
X68304000Y-60996000D01*
X68304000Y-61004000D01*
X68284000Y-61004000D01*
X68284000Y-62432094D01*
X68537624Y-62601005D01*
X68654664Y-62577724D01*
X69229913Y-62314249D01*
X69546180Y-61973803D01*
X69679012Y-62172600D01*
X70202502Y-62522384D01*
X70820000Y-62645212D01*
X71437498Y-62522384D01*
X71960988Y-62172600D01*
X72090000Y-61979519D01*
X72219012Y-62172600D01*
X72742502Y-62522384D01*
X73360000Y-62645212D01*
X73977498Y-62522384D01*
X74500988Y-62172600D01*
X74850772Y-61649110D01*
X74973600Y-61031612D01*
X74973600Y-60968388D01*
X74850772Y-60350890D01*
X74500988Y-59827400D01*
X74355218Y-59730000D01*
X74500988Y-59632600D01*
X74850772Y-59109110D01*
X74973600Y-58491612D01*
X74973600Y-58428388D01*
X74850772Y-57810890D01*
X74500988Y-57287400D01*
X73977498Y-56937616D01*
X73360000Y-56814788D01*
X72742502Y-56937616D01*
X72219012Y-57287400D01*
X72090000Y-57480481D01*
X71960988Y-57287400D01*
X71437498Y-56937616D01*
X70820000Y-56814788D01*
X70202502Y-56937616D01*
X69679012Y-57287400D01*
X69546180Y-57486197D01*
X69229913Y-57145751D01*
X68654664Y-56882276D01*
X68537624Y-56858995D01*
X68284000Y-57027906D01*
X68276000Y-57027906D01*
X68022376Y-56858995D01*
X67905336Y-56882276D01*
X67330087Y-57145751D01*
X67013820Y-57486197D01*
X66880988Y-57287400D01*
X66357498Y-56937616D01*
X66025800Y-56871637D01*
X66822437Y-56075000D01*
X75037564Y-56075000D01*
X77181282Y-58218719D01*
X77181285Y-58218721D01*
X78349836Y-59387273D01*
X78349818Y-59407942D01*
X78509334Y-59794000D01*
X78804446Y-60089628D01*
X79190226Y-60249818D01*
X79607942Y-60250182D01*
X79994000Y-60090666D01*
X80209988Y-59875054D01*
X85369181Y-59875054D01*
X85752067Y-60049849D01*
X86172700Y-60064814D01*
X86567040Y-59917670D01*
X86630819Y-59875054D01*
X86625944Y-59631601D01*
X86000000Y-59005657D01*
X85374056Y-59631601D01*
X85369181Y-59875054D01*
X80209988Y-59875054D01*
X80289628Y-59795554D01*
X80449818Y-59409774D01*
X80450024Y-59172700D01*
X84935186Y-59172700D01*
X85082330Y-59567040D01*
X85124946Y-59630819D01*
X85368399Y-59625944D01*
X85994343Y-59000000D01*
X86005657Y-59000000D01*
X86631601Y-59625944D01*
X86875054Y-59630819D01*
X87049849Y-59247933D01*
X87064814Y-58827300D01*
X86917670Y-58432960D01*
X86875054Y-58369181D01*
X86631601Y-58374056D01*
X86005657Y-59000000D01*
X85994343Y-59000000D01*
X85368399Y-58374056D01*
X85124946Y-58369181D01*
X84950151Y-58752067D01*
X84935186Y-59172700D01*
X80450024Y-59172700D01*
X80450182Y-58992058D01*
X80290666Y-58606000D01*
X79995554Y-58310372D01*
X79609774Y-58150182D01*
X79587599Y-58150163D01*
X79562382Y-58124946D01*
X85369181Y-58124946D01*
X85374056Y-58368399D01*
X86000000Y-58994343D01*
X86625944Y-58368399D01*
X86630819Y-58124946D01*
X86247933Y-57950151D01*
X86221906Y-57949225D01*
X92517000Y-57949225D01*
X92517000Y-58806500D01*
X92706500Y-58996000D01*
X93571000Y-58996000D01*
X93571000Y-57531500D01*
X93579000Y-57531500D01*
X93579000Y-58996000D01*
X93599000Y-58996000D01*
X93599000Y-59004000D01*
X93579000Y-59004000D01*
X93579000Y-60468500D01*
X93768500Y-60658000D01*
X94025776Y-60658000D01*
X94200157Y-60585769D01*
X94227492Y-60604446D01*
X94525000Y-60664693D01*
X95125000Y-60664693D01*
X95320143Y-60627974D01*
X95285307Y-60800000D01*
X95285307Y-63600000D01*
X95337604Y-63877933D01*
X95501862Y-64133198D01*
X95752492Y-64304446D01*
X96050000Y-64364693D01*
X97050000Y-64364693D01*
X97327933Y-64312396D01*
X97537091Y-64177807D01*
X97682330Y-64567040D01*
X97724946Y-64630819D01*
X97968399Y-64625944D01*
X98594343Y-64000000D01*
X98605657Y-64000000D01*
X99231601Y-64625944D01*
X99475054Y-64630819D01*
X99576801Y-64407942D01*
X105749818Y-64407942D01*
X105909334Y-64794000D01*
X106204446Y-65089628D01*
X106590226Y-65249818D01*
X107007942Y-65250182D01*
X107129392Y-65200000D01*
X110185786Y-65200000D01*
X115459726Y-70473940D01*
X115509334Y-70594000D01*
X115804446Y-70889628D01*
X116190226Y-71049818D01*
X116607942Y-71050182D01*
X116994000Y-70890666D01*
X117289628Y-70595554D01*
X117449818Y-70209774D01*
X117450182Y-69792058D01*
X117290666Y-69406000D01*
X116995554Y-69110372D01*
X116874192Y-69059978D01*
X115689268Y-67875054D01*
X124369181Y-67875054D01*
X124752067Y-68049849D01*
X125172700Y-68064814D01*
X125567040Y-67917670D01*
X125630819Y-67875054D01*
X125625944Y-67631601D01*
X125000000Y-67005657D01*
X124374056Y-67631601D01*
X124369181Y-67875054D01*
X115689268Y-67875054D01*
X114986914Y-67172700D01*
X123935186Y-67172700D01*
X124082330Y-67567040D01*
X124124946Y-67630819D01*
X124368399Y-67625944D01*
X124994343Y-67000000D01*
X125005657Y-67000000D01*
X125631601Y-67625944D01*
X125875054Y-67630819D01*
X126049849Y-67247933D01*
X126064814Y-66827300D01*
X125917670Y-66432960D01*
X125875054Y-66369181D01*
X125631601Y-66374056D01*
X125005657Y-67000000D01*
X124994343Y-67000000D01*
X124368399Y-66374056D01*
X124124946Y-66369181D01*
X123950151Y-66752067D01*
X123935186Y-67172700D01*
X114986914Y-67172700D01*
X113939160Y-66124946D01*
X124369181Y-66124946D01*
X124374056Y-66368399D01*
X125000000Y-66994343D01*
X125625944Y-66368399D01*
X125630819Y-66124946D01*
X125247933Y-65950151D01*
X124827300Y-65935186D01*
X124432960Y-66082330D01*
X124369181Y-66124946D01*
X113939160Y-66124946D01*
X111307107Y-63492893D01*
X110982684Y-63276120D01*
X110600000Y-63200000D01*
X107129749Y-63200000D01*
X107009774Y-63150182D01*
X106592058Y-63149818D01*
X106206000Y-63309334D01*
X105910372Y-63604446D01*
X105750182Y-63990226D01*
X105749818Y-64407942D01*
X99576801Y-64407942D01*
X99649849Y-64247933D01*
X99664814Y-63827300D01*
X99517670Y-63432960D01*
X99475054Y-63369181D01*
X99231601Y-63374056D01*
X98605657Y-64000000D01*
X98594343Y-64000000D01*
X97968399Y-63374056D01*
X97814693Y-63370978D01*
X97814693Y-63124946D01*
X97969181Y-63124946D01*
X97974056Y-63368399D01*
X98600000Y-63994343D01*
X99225944Y-63368399D01*
X99230819Y-63124946D01*
X98847933Y-62950151D01*
X98427300Y-62935186D01*
X98032960Y-63082330D01*
X97969181Y-63124946D01*
X97814693Y-63124946D01*
X97814693Y-62875054D01*
X102369181Y-62875054D01*
X102752067Y-63049849D01*
X103172700Y-63064814D01*
X103567040Y-62917670D01*
X103630819Y-62875054D01*
X103625944Y-62631601D01*
X103000000Y-62005657D01*
X102374056Y-62631601D01*
X102369181Y-62875054D01*
X97814693Y-62875054D01*
X97814693Y-62172700D01*
X101935186Y-62172700D01*
X102082330Y-62567040D01*
X102124946Y-62630819D01*
X102368399Y-62625944D01*
X102994343Y-62000000D01*
X103005657Y-62000000D01*
X103631601Y-62625944D01*
X103875054Y-62630819D01*
X104049849Y-62247933D01*
X104064814Y-61827300D01*
X103952200Y-61525497D01*
X107062428Y-61525497D01*
X107281049Y-62113586D01*
X107708081Y-62573247D01*
X108278511Y-62834500D01*
X108394503Y-62857572D01*
X108646000Y-62688494D01*
X108646000Y-61274000D01*
X107231505Y-61274000D01*
X107062428Y-61525497D01*
X103952200Y-61525497D01*
X103917670Y-61432960D01*
X103875054Y-61369181D01*
X103631601Y-61374056D01*
X103005657Y-62000000D01*
X102994343Y-62000000D01*
X102368399Y-61374056D01*
X102124946Y-61369181D01*
X101950151Y-61752067D01*
X101935186Y-62172700D01*
X97814693Y-62172700D01*
X97814693Y-61124946D01*
X102369181Y-61124946D01*
X102374056Y-61368399D01*
X103000000Y-61994343D01*
X103625944Y-61368399D01*
X103630819Y-61124946D01*
X103247933Y-60950151D01*
X102827300Y-60935186D01*
X102432960Y-61082330D01*
X102369181Y-61124946D01*
X97814693Y-61124946D01*
X97814693Y-60800000D01*
X97762396Y-60522067D01*
X97598138Y-60266802D01*
X97347508Y-60095554D01*
X97050000Y-60035307D01*
X96050000Y-60035307D01*
X95854857Y-60072026D01*
X95869442Y-60000000D01*
X97400000Y-60000000D01*
X97782684Y-59923880D01*
X98107107Y-59707107D01*
X98273940Y-59540274D01*
X98394000Y-59490666D01*
X98689628Y-59195554D01*
X98776851Y-58985497D01*
X107062428Y-58985497D01*
X107281049Y-59573586D01*
X107677194Y-60000000D01*
X107281049Y-60426414D01*
X107062428Y-61014503D01*
X107231505Y-61266000D01*
X108646000Y-61266000D01*
X108646000Y-58734000D01*
X107231505Y-58734000D01*
X107062428Y-58985497D01*
X98776851Y-58985497D01*
X98849818Y-58809774D01*
X98850110Y-58474503D01*
X107062428Y-58474503D01*
X107231505Y-58726000D01*
X108646000Y-58726000D01*
X108646000Y-57311506D01*
X108654000Y-57311506D01*
X108654000Y-58726000D01*
X108674000Y-58726000D01*
X108674000Y-58734000D01*
X108654000Y-58734000D01*
X108654000Y-61266000D01*
X108674000Y-61266000D01*
X108674000Y-61274000D01*
X108654000Y-61274000D01*
X108654000Y-62688494D01*
X108905497Y-62857572D01*
X109021489Y-62834500D01*
X109591919Y-62573247D01*
X109918000Y-62222250D01*
X110058629Y-62432717D01*
X110577707Y-62779553D01*
X111190000Y-62901346D01*
X111802293Y-62779553D01*
X112321371Y-62432717D01*
X112460000Y-62225244D01*
X112598629Y-62432717D01*
X113117707Y-62779553D01*
X113730000Y-62901346D01*
X114342293Y-62779553D01*
X114861371Y-62432717D01*
X115000000Y-62225244D01*
X115138629Y-62432717D01*
X115657707Y-62779553D01*
X116270000Y-62901346D01*
X116882293Y-62779553D01*
X117401371Y-62432717D01*
X117540000Y-62225244D01*
X117678629Y-62432717D01*
X118197707Y-62779553D01*
X118810000Y-62901346D01*
X119422293Y-62779553D01*
X119941371Y-62432717D01*
X120080000Y-62225244D01*
X120218629Y-62432717D01*
X120737707Y-62779553D01*
X121350000Y-62901346D01*
X121962293Y-62779553D01*
X122481371Y-62432717D01*
X122828207Y-61913639D01*
X122950000Y-61301346D01*
X122950000Y-61238654D01*
X122828207Y-60626361D01*
X122566835Y-60235189D01*
X122733198Y-60128138D01*
X122904446Y-59877508D01*
X122964693Y-59580000D01*
X122964693Y-57880000D01*
X122912396Y-57602067D01*
X122748138Y-57346802D01*
X122497508Y-57175554D01*
X122200000Y-57115307D01*
X120500000Y-57115307D01*
X120222067Y-57167604D01*
X119966802Y-57331862D01*
X119848394Y-57505158D01*
X119422293Y-57220447D01*
X118810000Y-57098654D01*
X118197707Y-57220447D01*
X117678629Y-57567283D01*
X117540000Y-57774756D01*
X117401371Y-57567283D01*
X116882293Y-57220447D01*
X116270000Y-57098654D01*
X115657707Y-57220447D01*
X115138629Y-57567283D01*
X115000000Y-57774756D01*
X114861371Y-57567283D01*
X114342293Y-57220447D01*
X113730000Y-57098654D01*
X113117707Y-57220447D01*
X112598629Y-57567283D01*
X112460000Y-57774756D01*
X112321371Y-57567283D01*
X111802293Y-57220447D01*
X111190000Y-57098654D01*
X110577707Y-57220447D01*
X110058629Y-57567283D01*
X109918000Y-57777750D01*
X109591919Y-57426753D01*
X109021489Y-57165500D01*
X108905497Y-57142428D01*
X108654000Y-57311506D01*
X108646000Y-57311506D01*
X108394503Y-57142428D01*
X108278511Y-57165500D01*
X107708081Y-57426753D01*
X107281049Y-57886414D01*
X107062428Y-58474503D01*
X98850110Y-58474503D01*
X98850182Y-58392058D01*
X98690666Y-58006000D01*
X98395554Y-57710372D01*
X98009774Y-57550182D01*
X97592058Y-57549818D01*
X97206000Y-57709334D01*
X96914826Y-58000000D01*
X95870877Y-58000000D01*
X95837396Y-57822067D01*
X95673138Y-57566802D01*
X95422508Y-57395554D01*
X95125000Y-57335307D01*
X94525000Y-57335307D01*
X94247067Y-57387604D01*
X94203521Y-57415625D01*
X94025776Y-57342000D01*
X93768500Y-57342000D01*
X93579000Y-57531500D01*
X93571000Y-57531500D01*
X93381500Y-57342000D01*
X93124224Y-57342000D01*
X92845627Y-57457399D01*
X92632398Y-57670628D01*
X92517000Y-57949225D01*
X86221906Y-57949225D01*
X85827300Y-57935186D01*
X85432960Y-58082330D01*
X85369181Y-58124946D01*
X79562382Y-58124946D01*
X78418721Y-56981285D01*
X78418719Y-56981282D01*
X77312491Y-55875054D01*
X122369181Y-55875054D01*
X122752067Y-56049849D01*
X123172700Y-56064814D01*
X123567040Y-55917670D01*
X123630819Y-55875054D01*
X123625944Y-55631601D01*
X123000000Y-55005657D01*
X122374056Y-55631601D01*
X122369181Y-55875054D01*
X77312491Y-55875054D01*
X76018718Y-54581282D01*
X75734848Y-54391605D01*
X75509768Y-54346834D01*
X86132812Y-54346834D01*
X86209326Y-54618154D01*
X86475309Y-55019035D01*
X86874456Y-55287613D01*
X87346000Y-55383000D01*
X87496000Y-55383000D01*
X87496000Y-54154000D01*
X87504000Y-54154000D01*
X87504000Y-55383000D01*
X87654000Y-55383000D01*
X88125544Y-55287613D01*
X88524691Y-55019035D01*
X88790674Y-54618154D01*
X88867188Y-54346834D01*
X91132812Y-54346834D01*
X91209326Y-54618154D01*
X91475309Y-55019035D01*
X91874456Y-55287613D01*
X92346000Y-55383000D01*
X92496000Y-55383000D01*
X92496000Y-54154000D01*
X92504000Y-54154000D01*
X92504000Y-55383000D01*
X92654000Y-55383000D01*
X93125544Y-55287613D01*
X93296321Y-55172700D01*
X121935186Y-55172700D01*
X122082330Y-55567040D01*
X122124946Y-55630819D01*
X122368399Y-55625944D01*
X122994343Y-55000000D01*
X123005657Y-55000000D01*
X123631601Y-55625944D01*
X123875054Y-55630819D01*
X124049849Y-55247933D01*
X124064814Y-54827300D01*
X123917670Y-54432960D01*
X123875054Y-54369181D01*
X123631601Y-54374056D01*
X123005657Y-55000000D01*
X122994343Y-55000000D01*
X122368399Y-54374056D01*
X122124946Y-54369181D01*
X121950151Y-54752067D01*
X121935186Y-55172700D01*
X93296321Y-55172700D01*
X93524691Y-55019035D01*
X93620221Y-54875054D01*
X110369181Y-54875054D01*
X110752067Y-55049849D01*
X111172700Y-55064814D01*
X111567040Y-54917670D01*
X111630819Y-54875054D01*
X111625944Y-54631601D01*
X111000000Y-54005657D01*
X110374056Y-54631601D01*
X110369181Y-54875054D01*
X93620221Y-54875054D01*
X93790674Y-54618154D01*
X93867188Y-54346834D01*
X93710337Y-54172700D01*
X109935186Y-54172700D01*
X110082330Y-54567040D01*
X110124946Y-54630819D01*
X110368399Y-54625944D01*
X110994343Y-54000000D01*
X111005657Y-54000000D01*
X111631601Y-54625944D01*
X111875054Y-54630819D01*
X112049849Y-54247933D01*
X112054224Y-54124946D01*
X122369181Y-54124946D01*
X122374056Y-54368399D01*
X123000000Y-54994343D01*
X123625944Y-54368399D01*
X123630819Y-54124946D01*
X123247933Y-53950151D01*
X122827300Y-53935186D01*
X122432960Y-54082330D01*
X122369181Y-54124946D01*
X112054224Y-54124946D01*
X112064814Y-53827300D01*
X111917670Y-53432960D01*
X111875054Y-53369181D01*
X111631601Y-53374056D01*
X111005657Y-54000000D01*
X110994343Y-54000000D01*
X110368399Y-53374056D01*
X110124946Y-53369181D01*
X109950151Y-53752067D01*
X109935186Y-54172700D01*
X93710337Y-54172700D01*
X93693492Y-54154000D01*
X92504000Y-54154000D01*
X92496000Y-54154000D01*
X91306508Y-54154000D01*
X91132812Y-54346834D01*
X88867188Y-54346834D01*
X88693492Y-54154000D01*
X87504000Y-54154000D01*
X87496000Y-54154000D01*
X86306508Y-54154000D01*
X86132812Y-54346834D01*
X75509768Y-54346834D01*
X75400000Y-54325000D01*
X74014666Y-54325000D01*
X74049849Y-54247933D01*
X74060336Y-53953166D01*
X86132812Y-53953166D01*
X86306508Y-54146000D01*
X87496000Y-54146000D01*
X87496000Y-52917000D01*
X87504000Y-52917000D01*
X87504000Y-54146000D01*
X88693492Y-54146000D01*
X88867188Y-53953166D01*
X91132812Y-53953166D01*
X91306508Y-54146000D01*
X92496000Y-54146000D01*
X92496000Y-52917000D01*
X92504000Y-52917000D01*
X92504000Y-54146000D01*
X93693492Y-54146000D01*
X93867188Y-53953166D01*
X93790674Y-53681846D01*
X93524691Y-53280965D01*
X93292824Y-53124946D01*
X110369181Y-53124946D01*
X110374056Y-53368399D01*
X111000000Y-53994343D01*
X111625944Y-53368399D01*
X111630819Y-53124946D01*
X111247933Y-52950151D01*
X110827300Y-52935186D01*
X110432960Y-53082330D01*
X110369181Y-53124946D01*
X93292824Y-53124946D01*
X93125544Y-53012387D01*
X92654000Y-52917000D01*
X92504000Y-52917000D01*
X92496000Y-52917000D01*
X92346000Y-52917000D01*
X91874456Y-53012387D01*
X91475309Y-53280965D01*
X91209326Y-53681846D01*
X91132812Y-53953166D01*
X88867188Y-53953166D01*
X88790674Y-53681846D01*
X88524691Y-53280965D01*
X88125544Y-53012387D01*
X87654000Y-52917000D01*
X87504000Y-52917000D01*
X87496000Y-52917000D01*
X87346000Y-52917000D01*
X86874456Y-53012387D01*
X86475309Y-53280965D01*
X86209326Y-53681846D01*
X86132812Y-53953166D01*
X74060336Y-53953166D01*
X74064814Y-53827300D01*
X73917670Y-53432960D01*
X73875054Y-53369181D01*
X73631601Y-53374056D01*
X73005657Y-54000000D01*
X73019799Y-54014142D01*
X73014142Y-54019799D01*
X73000000Y-54005657D01*
X72985858Y-54019799D01*
X72980201Y-54014142D01*
X72994343Y-54000000D01*
X72368399Y-53374056D01*
X72124946Y-53369181D01*
X71950151Y-53752067D01*
X71935186Y-54172700D01*
X71992015Y-54325000D01*
X66460000Y-54325000D01*
X66125152Y-54391605D01*
X65841281Y-54581282D01*
X63540121Y-56882442D01*
X63200000Y-56814788D01*
X62582502Y-56937616D01*
X62059012Y-57287400D01*
X61709228Y-57810890D01*
X61586400Y-58428388D01*
X61586400Y-58491612D01*
X61709228Y-59109110D01*
X61961377Y-59486479D01*
X61803202Y-59588262D01*
X61631954Y-59838892D01*
X61571707Y-60136400D01*
X50825000Y-60136400D01*
X50825000Y-60081257D01*
X51538338Y-56495065D01*
X52620794Y-54875054D01*
X59369181Y-54875054D01*
X59752067Y-55049849D01*
X60172700Y-55064814D01*
X60567040Y-54917670D01*
X60630819Y-54875054D01*
X60625944Y-54631601D01*
X60000000Y-54005657D01*
X59374056Y-54631601D01*
X59369181Y-54875054D01*
X52620794Y-54875054D01*
X53090092Y-54172700D01*
X58935186Y-54172700D01*
X59082330Y-54567040D01*
X59124946Y-54630819D01*
X59368399Y-54625944D01*
X59994343Y-54000000D01*
X60005657Y-54000000D01*
X60631601Y-54625944D01*
X60875054Y-54630819D01*
X61049849Y-54247933D01*
X61064814Y-53827300D01*
X60917670Y-53432960D01*
X60875054Y-53369181D01*
X60631601Y-53374056D01*
X60005657Y-54000000D01*
X59994343Y-54000000D01*
X59368399Y-53374056D01*
X59124946Y-53369181D01*
X58950151Y-53752067D01*
X58935186Y-54172700D01*
X53090092Y-54172700D01*
X53523724Y-53523724D01*
X54120537Y-53124946D01*
X59369181Y-53124946D01*
X59374056Y-53368399D01*
X60000000Y-53994343D01*
X60625944Y-53368399D01*
X60630819Y-53124946D01*
X72369181Y-53124946D01*
X72374056Y-53368399D01*
X73000000Y-53994343D01*
X73625944Y-53368399D01*
X73630819Y-53124946D01*
X73247933Y-52950151D01*
X72827300Y-52935186D01*
X72432960Y-53082330D01*
X72369181Y-53124946D01*
X60630819Y-53124946D01*
X60247933Y-52950151D01*
X59827300Y-52935186D01*
X59432960Y-53082330D01*
X59369181Y-53124946D01*
X54120537Y-53124946D01*
X56495064Y-51538338D01*
X56919059Y-51454000D01*
X85242000Y-51454000D01*
X85242000Y-51729000D01*
X85339290Y-52210111D01*
X85613288Y-52617369D01*
X86022280Y-52888771D01*
X86299256Y-52966880D01*
X86496000Y-52793493D01*
X86496000Y-51454000D01*
X86504000Y-51454000D01*
X86504000Y-52793493D01*
X86700744Y-52966880D01*
X86977720Y-52888771D01*
X87386712Y-52617369D01*
X87660710Y-52210111D01*
X87758000Y-51729000D01*
X87758000Y-51454000D01*
X92242000Y-51454000D01*
X92242000Y-51729000D01*
X92339290Y-52210111D01*
X92613288Y-52617369D01*
X93022280Y-52888771D01*
X93299256Y-52966880D01*
X93496000Y-52793493D01*
X93496000Y-51454000D01*
X93504000Y-51454000D01*
X93504000Y-52793493D01*
X93700744Y-52966880D01*
X93977720Y-52888771D01*
X94386712Y-52617369D01*
X94660710Y-52210111D01*
X94758000Y-51729000D01*
X94758000Y-51454000D01*
X93504000Y-51454000D01*
X93496000Y-51454000D01*
X92242000Y-51454000D01*
X87758000Y-51454000D01*
X86504000Y-51454000D01*
X86496000Y-51454000D01*
X85242000Y-51454000D01*
X56919059Y-51454000D01*
X60081256Y-50825000D01*
X85311968Y-50825000D01*
X85242000Y-51171000D01*
X85242000Y-51171000D01*
G37*
X85242000Y-51171000D02*
X85242000Y-51446000D01*
X86496000Y-51446000D01*
X86496000Y-51426000D01*
X86504000Y-51426000D01*
X86504000Y-51446000D01*
X87758000Y-51446000D01*
X87758000Y-51171000D01*
X87688032Y-50825000D01*
X92311968Y-50825000D01*
X92242000Y-51171000D01*
X92242000Y-51446000D01*
X93496000Y-51446000D01*
X93496000Y-51426000D01*
X93504000Y-51426000D01*
X93504000Y-51446000D01*
X94758000Y-51446000D01*
X94758000Y-51171000D01*
X94688032Y-50825000D01*
X119918743Y-50825000D01*
X123504935Y-51538338D01*
X126476276Y-53523724D01*
X128461662Y-56495064D01*
X129175000Y-60081256D01*
X129175000Y-89918744D01*
X128461662Y-93504936D01*
X126476276Y-96476276D01*
X123504935Y-98461662D01*
X119918743Y-99175000D01*
X76127255Y-99175000D01*
X76158000Y-99100775D01*
X76158000Y-98143500D01*
X75968500Y-97954000D01*
X74679000Y-97954000D01*
X74679000Y-97974000D01*
X74671000Y-97974000D01*
X74671000Y-97954000D01*
X73381500Y-97954000D01*
X73192000Y-98143500D01*
X73192000Y-99100775D01*
X73222745Y-99175000D01*
X62377255Y-99175000D01*
X62408000Y-99100775D01*
X62408000Y-98143500D01*
X62218500Y-97954000D01*
X60929000Y-97954000D01*
X60929000Y-97974000D01*
X60921000Y-97974000D01*
X60921000Y-97954000D01*
X59631500Y-97954000D01*
X59442000Y-98143500D01*
X59442000Y-99047844D01*
X56495064Y-98461662D01*
X54007052Y-96799225D01*
X59442000Y-96799225D01*
X59442000Y-97756500D01*
X59631500Y-97946000D01*
X60921000Y-97946000D01*
X60921000Y-96381500D01*
X60929000Y-96381500D01*
X60929000Y-97946000D01*
X62218500Y-97946000D01*
X62408000Y-97756500D01*
X62408000Y-96799225D01*
X62292602Y-96520628D01*
X62079373Y-96307399D01*
X61800776Y-96192000D01*
X61118500Y-96192000D01*
X60929000Y-96381500D01*
X60921000Y-96381500D01*
X60731500Y-96192000D01*
X60049224Y-96192000D01*
X59770627Y-96307399D01*
X59557398Y-96520628D01*
X59442000Y-96799225D01*
X54007052Y-96799225D01*
X53523724Y-96476276D01*
X52270037Y-94600000D01*
X63360307Y-94600000D01*
X63360307Y-96100000D01*
X63412604Y-96377933D01*
X63576862Y-96633198D01*
X63827492Y-96804446D01*
X64125000Y-96864693D01*
X64925000Y-96864693D01*
X65080506Y-96835432D01*
X65225000Y-96864693D01*
X66025000Y-96864693D01*
X66180506Y-96835432D01*
X66325000Y-96864693D01*
X66939212Y-96864693D01*
X67117893Y-97132107D01*
X67692893Y-97707107D01*
X68017316Y-97923880D01*
X68400000Y-98000000D01*
X69670251Y-98000000D01*
X69790226Y-98049818D01*
X70207942Y-98050182D01*
X70329392Y-98000000D01*
X72800000Y-98000000D01*
X73182684Y-97923880D01*
X73288605Y-97853105D01*
X73381500Y-97946000D01*
X74671000Y-97946000D01*
X74671000Y-97926000D01*
X74679000Y-97926000D01*
X74679000Y-97946000D01*
X75968500Y-97946000D01*
X76039446Y-97875054D01*
X77369181Y-97875054D01*
X77752067Y-98049849D01*
X78172700Y-98064814D01*
X78567040Y-97917670D01*
X78630819Y-97875054D01*
X78625944Y-97631601D01*
X78000000Y-97005657D01*
X77374056Y-97631601D01*
X77369181Y-97875054D01*
X76039446Y-97875054D01*
X76158000Y-97756500D01*
X76158000Y-97172700D01*
X76935186Y-97172700D01*
X77082330Y-97567040D01*
X77124946Y-97630819D01*
X77368399Y-97625944D01*
X77994343Y-97000000D01*
X78005657Y-97000000D01*
X78631601Y-97625944D01*
X78875054Y-97630819D01*
X79049849Y-97247933D01*
X79064814Y-96827300D01*
X78917670Y-96432960D01*
X78875054Y-96369181D01*
X78631601Y-96374056D01*
X78005657Y-97000000D01*
X77994343Y-97000000D01*
X77368399Y-96374056D01*
X77124946Y-96369181D01*
X76950151Y-96752067D01*
X76935186Y-97172700D01*
X76158000Y-97172700D01*
X76158000Y-96799225D01*
X76042602Y-96520628D01*
X75829373Y-96307399D01*
X75550776Y-96192000D01*
X75022214Y-96192000D01*
X75089268Y-96124946D01*
X77369181Y-96124946D01*
X77374056Y-96368399D01*
X78000000Y-96994343D01*
X78625944Y-96368399D01*
X78630819Y-96124946D01*
X78247933Y-95950151D01*
X77827300Y-95935186D01*
X77432960Y-96082330D01*
X77369181Y-96124946D01*
X75089268Y-96124946D01*
X76604989Y-94609225D01*
X76878354Y-94554849D01*
X77110102Y-94400000D01*
X80448326Y-94400000D01*
X80449015Y-94401071D01*
X80345554Y-94552492D01*
X80285307Y-94850000D01*
X80285307Y-95950000D01*
X80337604Y-96227933D01*
X80449015Y-96401071D01*
X80345554Y-96552492D01*
X80285307Y-96850000D01*
X80285307Y-97950000D01*
X80337604Y-98227933D01*
X80501862Y-98483198D01*
X80752492Y-98654446D01*
X81050000Y-98714693D01*
X83550000Y-98714693D01*
X83827933Y-98662396D01*
X84083198Y-98498138D01*
X84235662Y-98275000D01*
X85200000Y-98275000D01*
X85534848Y-98208395D01*
X85818718Y-98018718D01*
X87818718Y-96018719D01*
X88008395Y-95734848D01*
X88075000Y-95400000D01*
X88075000Y-93875054D01*
X89369181Y-93875054D01*
X89752067Y-94049849D01*
X90172700Y-94064814D01*
X90567040Y-93917670D01*
X90630819Y-93875054D01*
X90625944Y-93631601D01*
X90000000Y-93005657D01*
X89374056Y-93631601D01*
X89369181Y-93875054D01*
X88075000Y-93875054D01*
X88075000Y-93172700D01*
X88935186Y-93172700D01*
X89082330Y-93567040D01*
X89124946Y-93630819D01*
X89368399Y-93625944D01*
X89994343Y-93000000D01*
X90005657Y-93000000D01*
X90631601Y-93625944D01*
X90875054Y-93630819D01*
X91049849Y-93247933D01*
X91064814Y-92827300D01*
X90917670Y-92432960D01*
X90875054Y-92369181D01*
X90631601Y-92374056D01*
X90005657Y-93000000D01*
X89994343Y-93000000D01*
X89368399Y-92374056D01*
X89124946Y-92369181D01*
X88950151Y-92752067D01*
X88935186Y-93172700D01*
X88075000Y-93172700D01*
X88075000Y-92124946D01*
X89369181Y-92124946D01*
X89374056Y-92368399D01*
X90000000Y-92994343D01*
X90625944Y-92368399D01*
X90630819Y-92124946D01*
X90247933Y-91950151D01*
X89827300Y-91935186D01*
X89432960Y-92082330D01*
X89369181Y-92124946D01*
X88075000Y-92124946D01*
X88075000Y-90010156D01*
X88089628Y-89995554D01*
X88249818Y-89609774D01*
X88250182Y-89192058D01*
X88090666Y-88806000D01*
X87892954Y-88607942D01*
X90149818Y-88607942D01*
X90309334Y-88994000D01*
X90604446Y-89289628D01*
X90990226Y-89449818D01*
X91012401Y-89449837D01*
X91238803Y-89676239D01*
X91110372Y-89804446D01*
X90950182Y-90190226D01*
X90949818Y-90607942D01*
X91109334Y-90994000D01*
X91125000Y-91009693D01*
X91125000Y-94000000D01*
X91188188Y-94317670D01*
X91191605Y-94334848D01*
X91381282Y-94618718D01*
X94781281Y-98018718D01*
X94968030Y-98143500D01*
X95065152Y-98208395D01*
X95400000Y-98275000D01*
X95767891Y-98275000D01*
X95901862Y-98483198D01*
X96152492Y-98654446D01*
X96450000Y-98714693D01*
X98950000Y-98714693D01*
X99227933Y-98662396D01*
X99483198Y-98498138D01*
X99654446Y-98247508D01*
X99714693Y-97950000D01*
X99714693Y-96875054D01*
X107369181Y-96875054D01*
X107752067Y-97049849D01*
X108172700Y-97064814D01*
X108567040Y-96917670D01*
X108630819Y-96875054D01*
X120369181Y-96875054D01*
X120752067Y-97049849D01*
X121172700Y-97064814D01*
X121567040Y-96917670D01*
X121630819Y-96875054D01*
X121625944Y-96631601D01*
X121000000Y-96005657D01*
X120374056Y-96631601D01*
X120369181Y-96875054D01*
X108630819Y-96875054D01*
X108625944Y-96631601D01*
X108000000Y-96005657D01*
X107374056Y-96631601D01*
X107369181Y-96875054D01*
X99714693Y-96875054D01*
X99714693Y-96850000D01*
X99662396Y-96572067D01*
X99550985Y-96398929D01*
X99654446Y-96247508D01*
X99669595Y-96172700D01*
X106935186Y-96172700D01*
X107082330Y-96567040D01*
X107124946Y-96630819D01*
X107368399Y-96625944D01*
X107994343Y-96000000D01*
X108005657Y-96000000D01*
X108631601Y-96625944D01*
X108875054Y-96630819D01*
X109049849Y-96247933D01*
X109052525Y-96172700D01*
X119935186Y-96172700D01*
X120082330Y-96567040D01*
X120124946Y-96630819D01*
X120368399Y-96625944D01*
X120994343Y-96000000D01*
X121005657Y-96000000D01*
X121631601Y-96625944D01*
X121875054Y-96630819D01*
X122049849Y-96247933D01*
X122064814Y-95827300D01*
X121917670Y-95432960D01*
X121875054Y-95369181D01*
X121631601Y-95374056D01*
X121005657Y-96000000D01*
X120994343Y-96000000D01*
X120368399Y-95374056D01*
X120124946Y-95369181D01*
X119950151Y-95752067D01*
X119935186Y-96172700D01*
X109052525Y-96172700D01*
X109064814Y-95827300D01*
X108917670Y-95432960D01*
X108875054Y-95369181D01*
X108631601Y-95374056D01*
X108005657Y-96000000D01*
X107994343Y-96000000D01*
X107368399Y-95374056D01*
X107124946Y-95369181D01*
X106950151Y-95752067D01*
X106935186Y-96172700D01*
X99669595Y-96172700D01*
X99714693Y-95950000D01*
X99714693Y-95124946D01*
X107369181Y-95124946D01*
X107374056Y-95368399D01*
X108000000Y-95994343D01*
X108625944Y-95368399D01*
X108630819Y-95124946D01*
X120369181Y-95124946D01*
X120374056Y-95368399D01*
X121000000Y-95994343D01*
X121625944Y-95368399D01*
X121630819Y-95124946D01*
X121247933Y-94950151D01*
X120827300Y-94935186D01*
X120432960Y-95082330D01*
X120369181Y-95124946D01*
X108630819Y-95124946D01*
X108247933Y-94950151D01*
X107827300Y-94935186D01*
X107432960Y-95082330D01*
X107369181Y-95124946D01*
X99714693Y-95124946D01*
X99714693Y-94850000D01*
X99662396Y-94572067D01*
X99550985Y-94398929D01*
X99654446Y-94247508D01*
X99714693Y-93950000D01*
X99714693Y-92850000D01*
X99662396Y-92572067D01*
X99550985Y-92398929D01*
X99654446Y-92247508D01*
X99714693Y-91950000D01*
X99714693Y-90850000D01*
X99662396Y-90572067D01*
X99550985Y-90398929D01*
X99654446Y-90247508D01*
X99714693Y-89950000D01*
X99714693Y-88850000D01*
X99662396Y-88572067D01*
X99550985Y-88398929D01*
X99654446Y-88247508D01*
X99714693Y-87950000D01*
X99714693Y-87875054D01*
X102369181Y-87875054D01*
X102752067Y-88049849D01*
X103172700Y-88064814D01*
X103567040Y-87917670D01*
X103630819Y-87875054D01*
X103625944Y-87631601D01*
X103000000Y-87005657D01*
X102374056Y-87631601D01*
X102369181Y-87875054D01*
X99714693Y-87875054D01*
X99714693Y-87172700D01*
X101935186Y-87172700D01*
X102082330Y-87567040D01*
X102124946Y-87630819D01*
X102368399Y-87625944D01*
X102994343Y-87000000D01*
X103005657Y-87000000D01*
X103631601Y-87625944D01*
X103875054Y-87630819D01*
X104049849Y-87247933D01*
X104064814Y-86827300D01*
X103917670Y-86432960D01*
X103875054Y-86369181D01*
X103631601Y-86374056D01*
X103005657Y-87000000D01*
X102994343Y-87000000D01*
X102368399Y-86374056D01*
X102124946Y-86369181D01*
X101950151Y-86752067D01*
X101935186Y-87172700D01*
X99714693Y-87172700D01*
X99714693Y-86850000D01*
X99662396Y-86572067D01*
X99559622Y-86412352D01*
X99592602Y-86379372D01*
X99697988Y-86124946D01*
X102369181Y-86124946D01*
X102374056Y-86368399D01*
X103000000Y-86994343D01*
X103625944Y-86368399D01*
X103630819Y-86124946D01*
X103247933Y-85950151D01*
X102827300Y-85935186D01*
X102432960Y-86082330D01*
X102369181Y-86124946D01*
X99697988Y-86124946D01*
X99708000Y-86100775D01*
X99708000Y-85593500D01*
X99518500Y-85404000D01*
X97704000Y-85404000D01*
X97704000Y-85424000D01*
X97696000Y-85424000D01*
X97696000Y-85404000D01*
X95881500Y-85404000D01*
X95692000Y-85593500D01*
X95692000Y-86100775D01*
X95807398Y-86379372D01*
X95840930Y-86412904D01*
X95764338Y-86525000D01*
X95762437Y-86525000D01*
X95450164Y-86212728D01*
X95450182Y-86192058D01*
X95290666Y-85806000D01*
X94995554Y-85510372D01*
X94609774Y-85350182D01*
X94192058Y-85349818D01*
X93806000Y-85509334D01*
X93510372Y-85804446D01*
X93350182Y-86190226D01*
X93349818Y-86607942D01*
X93509334Y-86994000D01*
X93804446Y-87289628D01*
X94190226Y-87449818D01*
X94212401Y-87449837D01*
X94781282Y-88018719D01*
X95065152Y-88208395D01*
X95400000Y-88275000D01*
X95767891Y-88275000D01*
X95849015Y-88401071D01*
X95764338Y-88525000D01*
X95600000Y-88525000D01*
X95265152Y-88591605D01*
X94981281Y-88781282D01*
X94212728Y-89549836D01*
X94192058Y-89549818D01*
X93806000Y-89709334D01*
X93744981Y-89770246D01*
X93618718Y-89581281D01*
X92250164Y-88212728D01*
X92250182Y-88192058D01*
X92090666Y-87806000D01*
X91795554Y-87510372D01*
X91409774Y-87350182D01*
X90992058Y-87349818D01*
X90606000Y-87509334D01*
X90310372Y-87804446D01*
X90150182Y-88190226D01*
X90149818Y-88607942D01*
X87892954Y-88607942D01*
X87795554Y-88510372D01*
X87409774Y-88350182D01*
X86992058Y-88349818D01*
X86606000Y-88509334D01*
X86310372Y-88804446D01*
X86150182Y-89190226D01*
X86149818Y-89607942D01*
X86309334Y-89994000D01*
X86325000Y-90009693D01*
X86325000Y-95037563D01*
X84837564Y-96525000D01*
X84232109Y-96525000D01*
X84150985Y-96398929D01*
X84254446Y-96247508D01*
X84314693Y-95950000D01*
X84314693Y-94850000D01*
X84262396Y-94572067D01*
X84150985Y-94398929D01*
X84254446Y-94247508D01*
X84314693Y-93950000D01*
X84314693Y-92850000D01*
X84262396Y-92572067D01*
X84150985Y-92398929D01*
X84254446Y-92247508D01*
X84314693Y-91950000D01*
X84314693Y-90850000D01*
X84262396Y-90572067D01*
X84150985Y-90398929D01*
X84254446Y-90247508D01*
X84314693Y-89950000D01*
X84314693Y-88850000D01*
X84262396Y-88572067D01*
X84150985Y-88398929D01*
X84254446Y-88247508D01*
X84314693Y-87950000D01*
X84314693Y-86850000D01*
X84262396Y-86572067D01*
X84150985Y-86398929D01*
X84254446Y-86247508D01*
X84314693Y-85950000D01*
X84314693Y-84850000D01*
X84305285Y-84800000D01*
X88870251Y-84800000D01*
X88990226Y-84849818D01*
X89407942Y-84850182D01*
X89794000Y-84690666D01*
X90089628Y-84395554D01*
X90249818Y-84009774D01*
X90250109Y-83676239D01*
X90440000Y-83714693D01*
X91540000Y-83714693D01*
X91817933Y-83662396D01*
X91991071Y-83550985D01*
X92142492Y-83654446D01*
X92440000Y-83714693D01*
X93540000Y-83714693D01*
X93817933Y-83662396D01*
X93991071Y-83550985D01*
X94142492Y-83654446D01*
X94440000Y-83714693D01*
X95540000Y-83714693D01*
X95692000Y-83686092D01*
X95692000Y-84100775D01*
X95807398Y-84379372D01*
X95828026Y-84400000D01*
X95807398Y-84420628D01*
X95692000Y-84699225D01*
X95692000Y-85206500D01*
X95881500Y-85396000D01*
X97696000Y-85396000D01*
X97696000Y-83404000D01*
X97704000Y-83404000D01*
X97704000Y-85396000D01*
X99518500Y-85396000D01*
X99708000Y-85206500D01*
X99708000Y-84699225D01*
X99592602Y-84420628D01*
X99571974Y-84400000D01*
X99592602Y-84379372D01*
X99708000Y-84100775D01*
X99708000Y-83593500D01*
X99518500Y-83404000D01*
X97704000Y-83404000D01*
X97696000Y-83404000D01*
X97676000Y-83404000D01*
X97676000Y-83396000D01*
X97696000Y-83396000D01*
X97696000Y-82281500D01*
X97704000Y-82281500D01*
X97704000Y-83396000D01*
X99518500Y-83396000D01*
X99708000Y-83206500D01*
X99708000Y-82699225D01*
X99592602Y-82420628D01*
X99379373Y-82207399D01*
X99100776Y-82092000D01*
X97893500Y-82092000D01*
X97704000Y-82281500D01*
X97696000Y-82281500D01*
X97506500Y-82092000D01*
X96304693Y-82092000D01*
X96304693Y-80450000D01*
X96252396Y-80172067D01*
X96088138Y-79916802D01*
X96027038Y-79875054D01*
X102369181Y-79875054D01*
X102752067Y-80049849D01*
X103172700Y-80064814D01*
X103567040Y-79917670D01*
X103630819Y-79875054D01*
X103625944Y-79631601D01*
X103000000Y-79005657D01*
X102374056Y-79631601D01*
X102369181Y-79875054D01*
X96027038Y-79875054D01*
X95837508Y-79745554D01*
X95540000Y-79685307D01*
X94440000Y-79685307D01*
X94162067Y-79737604D01*
X93988929Y-79849015D01*
X93837508Y-79745554D01*
X93540000Y-79685307D01*
X92440000Y-79685307D01*
X92162067Y-79737604D01*
X91988929Y-79849015D01*
X91837508Y-79745554D01*
X91540000Y-79685307D01*
X90440000Y-79685307D01*
X90162067Y-79737604D01*
X89988929Y-79849015D01*
X89837508Y-79745554D01*
X89540000Y-79685307D01*
X88440000Y-79685307D01*
X88162067Y-79737604D01*
X87988929Y-79849015D01*
X87837508Y-79745554D01*
X87540000Y-79685307D01*
X86440000Y-79685307D01*
X86162067Y-79737604D01*
X85988929Y-79849015D01*
X85837508Y-79745554D01*
X85540000Y-79685307D01*
X84440000Y-79685307D01*
X84162067Y-79737604D01*
X83906802Y-79901862D01*
X83735554Y-80152492D01*
X83675307Y-80450000D01*
X83675307Y-82110682D01*
X83550000Y-82085307D01*
X81050000Y-82085307D01*
X80772067Y-82137604D01*
X80516802Y-82301862D01*
X80345554Y-82552492D01*
X80320913Y-82674170D01*
X80292893Y-82692893D01*
X79061358Y-83924428D01*
X79064814Y-83827300D01*
X78917670Y-83432960D01*
X78875054Y-83369181D01*
X78631601Y-83374056D01*
X78005657Y-84000000D01*
X78019799Y-84014142D01*
X78014142Y-84019799D01*
X78000000Y-84005657D01*
X77374056Y-84631601D01*
X77369181Y-84875054D01*
X77752067Y-85049849D01*
X77929620Y-85056166D01*
X76292893Y-86692893D01*
X76166018Y-86882774D01*
X76116117Y-86916117D01*
X75845151Y-87321646D01*
X75750000Y-87800000D01*
X75750000Y-87974522D01*
X75550776Y-87892000D01*
X74868500Y-87892000D01*
X74679000Y-88081500D01*
X74679000Y-89646000D01*
X74699000Y-89646000D01*
X74699000Y-89654000D01*
X74679000Y-89654000D01*
X74679000Y-91218500D01*
X74868500Y-91408000D01*
X75454723Y-91408000D01*
X75245151Y-91721646D01*
X75150000Y-92200000D01*
X75150000Y-93235786D01*
X75061358Y-93324428D01*
X75064814Y-93227300D01*
X74917670Y-92832960D01*
X74875054Y-92769181D01*
X74631601Y-92774056D01*
X74005657Y-93400000D01*
X74019799Y-93414142D01*
X74014142Y-93419799D01*
X74000000Y-93405657D01*
X73374056Y-94031601D01*
X73369181Y-94275054D01*
X73752067Y-94449849D01*
X73929620Y-94456166D01*
X73389693Y-94996093D01*
X73389693Y-94600000D01*
X73337396Y-94322067D01*
X73173138Y-94066802D01*
X72922508Y-93895554D01*
X72625000Y-93835307D01*
X72000000Y-93835307D01*
X72000000Y-93572700D01*
X72935186Y-93572700D01*
X73082330Y-93967040D01*
X73124946Y-94030819D01*
X73368399Y-94025944D01*
X73994343Y-93400000D01*
X73368399Y-92774056D01*
X73124946Y-92769181D01*
X72950151Y-93152067D01*
X72935186Y-93572700D01*
X72000000Y-93572700D01*
X72000000Y-92524946D01*
X73369181Y-92524946D01*
X73374056Y-92768399D01*
X74000000Y-93394343D01*
X74625944Y-92768399D01*
X74630819Y-92524946D01*
X74247933Y-92350151D01*
X73827300Y-92335186D01*
X73432960Y-92482330D01*
X73369181Y-92524946D01*
X72000000Y-92524946D01*
X72000000Y-89843500D01*
X73192000Y-89843500D01*
X73192000Y-90800775D01*
X73307398Y-91079372D01*
X73520627Y-91292601D01*
X73799224Y-91408000D01*
X74481500Y-91408000D01*
X74671000Y-91218500D01*
X74671000Y-89654000D01*
X73381500Y-89654000D01*
X73192000Y-89843500D01*
X72000000Y-89843500D01*
X72000000Y-88499225D01*
X73192000Y-88499225D01*
X73192000Y-89456500D01*
X73381500Y-89646000D01*
X74671000Y-89646000D01*
X74671000Y-88081500D01*
X74481500Y-87892000D01*
X73799224Y-87892000D01*
X73520627Y-88007399D01*
X73307398Y-88220628D01*
X73192000Y-88499225D01*
X72000000Y-88499225D01*
X72000000Y-87875054D01*
X72369181Y-87875054D01*
X72752067Y-88049849D01*
X73172700Y-88064814D01*
X73567040Y-87917670D01*
X73630819Y-87875054D01*
X73625944Y-87631601D01*
X73000000Y-87005657D01*
X72374056Y-87631601D01*
X72369181Y-87875054D01*
X72000000Y-87875054D01*
X72000000Y-87346399D01*
X72082330Y-87567040D01*
X72124946Y-87630819D01*
X72368399Y-87625944D01*
X72994343Y-87000000D01*
X73005657Y-87000000D01*
X73631601Y-87625944D01*
X73875054Y-87630819D01*
X74049849Y-87247933D01*
X74064814Y-86827300D01*
X73917670Y-86432960D01*
X73875054Y-86369181D01*
X73631601Y-86374056D01*
X73005657Y-87000000D01*
X72994343Y-87000000D01*
X72980201Y-86985858D01*
X72985858Y-86980201D01*
X73000000Y-86994343D01*
X73625944Y-86368399D01*
X73630819Y-86124946D01*
X73247933Y-85950151D01*
X72899675Y-85937761D01*
X74664736Y-84172700D01*
X76935186Y-84172700D01*
X77082330Y-84567040D01*
X77124946Y-84630819D01*
X77368399Y-84625944D01*
X77994343Y-84000000D01*
X77368399Y-83374056D01*
X77124946Y-83369181D01*
X76950151Y-83752067D01*
X76935186Y-84172700D01*
X74664736Y-84172700D01*
X75712490Y-83124946D01*
X77369181Y-83124946D01*
X77374056Y-83368399D01*
X78000000Y-83994343D01*
X78625944Y-83368399D01*
X78630819Y-83124946D01*
X78247933Y-82950151D01*
X77827300Y-82935186D01*
X77432960Y-83082330D01*
X77369181Y-83124946D01*
X75712490Y-83124946D01*
X81562437Y-77275000D01*
X86800000Y-77275000D01*
X87134848Y-77208395D01*
X87418718Y-77018718D01*
X89987273Y-74450164D01*
X90007942Y-74450182D01*
X90394000Y-74290666D01*
X90689628Y-73995554D01*
X90849818Y-73609774D01*
X90850182Y-73192058D01*
X90690666Y-72806000D01*
X90661077Y-72776360D01*
X90787273Y-72650164D01*
X90807942Y-72650182D01*
X91194000Y-72490666D01*
X91489628Y-72195554D01*
X91649818Y-71809774D01*
X91650182Y-71392058D01*
X91490666Y-71006000D01*
X91195554Y-70710372D01*
X90809774Y-70550182D01*
X90708505Y-70550094D01*
X90849818Y-70209774D01*
X90850182Y-69792058D01*
X90690666Y-69406000D01*
X90395554Y-69110372D01*
X90009774Y-68950182D01*
X89592058Y-68949818D01*
X89206000Y-69109334D01*
X88910372Y-69404446D01*
X88750182Y-69790226D01*
X88750163Y-69812400D01*
X85437564Y-73125000D01*
X81200000Y-73125000D01*
X80872085Y-73190226D01*
X80865152Y-73191605D01*
X80581281Y-73381282D01*
X65006282Y-88956282D01*
X64816605Y-89240152D01*
X64750000Y-89575000D01*
X64750000Y-93835307D01*
X64125000Y-93835307D01*
X63847067Y-93887604D01*
X63591802Y-94051862D01*
X63420554Y-94302492D01*
X63360307Y-94600000D01*
X52270037Y-94600000D01*
X51538338Y-93504935D01*
X51214135Y-91875054D01*
X55369181Y-91875054D01*
X55752067Y-92049849D01*
X56172700Y-92064814D01*
X56567040Y-91917670D01*
X56630819Y-91875054D01*
X56625944Y-91631601D01*
X56000000Y-91005657D01*
X55374056Y-91631601D01*
X55369181Y-91875054D01*
X51214135Y-91875054D01*
X51074428Y-91172700D01*
X54935186Y-91172700D01*
X55082330Y-91567040D01*
X55124946Y-91630819D01*
X55368399Y-91625944D01*
X55994343Y-91000000D01*
X56005657Y-91000000D01*
X56631601Y-91625944D01*
X56875054Y-91630819D01*
X57049849Y-91247933D01*
X57064814Y-90827300D01*
X56917670Y-90432960D01*
X56875054Y-90369181D01*
X56631601Y-90374056D01*
X56005657Y-91000000D01*
X55994343Y-91000000D01*
X55368399Y-90374056D01*
X55124946Y-90369181D01*
X54950151Y-90752067D01*
X54935186Y-91172700D01*
X51074428Y-91172700D01*
X50866017Y-90124946D01*
X55369181Y-90124946D01*
X55374056Y-90368399D01*
X56000000Y-90994343D01*
X56625944Y-90368399D01*
X56630819Y-90124946D01*
X56247933Y-89950151D01*
X55827300Y-89935186D01*
X55432960Y-90082330D01*
X55369181Y-90124946D01*
X50866017Y-90124946D01*
X50825000Y-89918743D01*
X50825000Y-89843500D01*
X59442000Y-89843500D01*
X59442000Y-90800775D01*
X59557398Y-91079372D01*
X59770627Y-91292601D01*
X60049224Y-91408000D01*
X60731500Y-91408000D01*
X60921000Y-91218500D01*
X60921000Y-89654000D01*
X60929000Y-89654000D01*
X60929000Y-91218500D01*
X61118500Y-91408000D01*
X61800776Y-91408000D01*
X62079373Y-91292601D01*
X62292602Y-91079372D01*
X62408000Y-90800775D01*
X62408000Y-89843500D01*
X62218500Y-89654000D01*
X60929000Y-89654000D01*
X60921000Y-89654000D01*
X59631500Y-89654000D01*
X59442000Y-89843500D01*
X50825000Y-89843500D01*
X50825000Y-88499225D01*
X59442000Y-88499225D01*
X59442000Y-89456500D01*
X59631500Y-89646000D01*
X60921000Y-89646000D01*
X60921000Y-88081500D01*
X60929000Y-88081500D01*
X60929000Y-89646000D01*
X62218500Y-89646000D01*
X62408000Y-89456500D01*
X62408000Y-88499225D01*
X62292602Y-88220628D01*
X62079373Y-88007399D01*
X61800776Y-87892000D01*
X61118500Y-87892000D01*
X60929000Y-88081500D01*
X60921000Y-88081500D01*
X60731500Y-87892000D01*
X60049224Y-87892000D01*
X59770627Y-88007399D01*
X59557398Y-88220628D01*
X59442000Y-88499225D01*
X50825000Y-88499225D01*
X50825000Y-86875054D01*
X65369181Y-86875054D01*
X65752067Y-87049849D01*
X66172700Y-87064814D01*
X66567040Y-86917670D01*
X66630819Y-86875054D01*
X66625944Y-86631601D01*
X66000000Y-86005657D01*
X65374056Y-86631601D01*
X65369181Y-86875054D01*
X50825000Y-86875054D01*
X50825000Y-86172700D01*
X64935186Y-86172700D01*
X65082330Y-86567040D01*
X65124946Y-86630819D01*
X65368399Y-86625944D01*
X65994343Y-86000000D01*
X66005657Y-86000000D01*
X66631601Y-86625944D01*
X66875054Y-86630819D01*
X67049849Y-86247933D01*
X67064814Y-85827300D01*
X66917670Y-85432960D01*
X66875054Y-85369181D01*
X66631601Y-85374056D01*
X66005657Y-86000000D01*
X65994343Y-86000000D01*
X65368399Y-85374056D01*
X65124946Y-85369181D01*
X64950151Y-85752067D01*
X64935186Y-86172700D01*
X50825000Y-86172700D01*
X50825000Y-85124946D01*
X65369181Y-85124946D01*
X65374056Y-85368399D01*
X66000000Y-85994343D01*
X66625944Y-85368399D01*
X66630819Y-85124946D01*
X66247933Y-84950151D01*
X65827300Y-84935186D01*
X65432960Y-85082330D01*
X65369181Y-85124946D01*
X50825000Y-85124946D01*
X50825000Y-84875054D01*
X59369181Y-84875054D01*
X59752067Y-85049849D01*
X60172700Y-85064814D01*
X60567040Y-84917670D01*
X60630819Y-84875054D01*
X60625944Y-84631601D01*
X60000000Y-84005657D01*
X59374056Y-84631601D01*
X59369181Y-84875054D01*
X50825000Y-84875054D01*
X50825000Y-84172700D01*
X58935186Y-84172700D01*
X59082330Y-84567040D01*
X59124946Y-84630819D01*
X59368399Y-84625944D01*
X59994343Y-84000000D01*
X60005657Y-84000000D01*
X60631601Y-84625944D01*
X60875054Y-84630819D01*
X61049849Y-84247933D01*
X61064814Y-83827300D01*
X60917670Y-83432960D01*
X60875054Y-83369181D01*
X60631601Y-83374056D01*
X60005657Y-84000000D01*
X59994343Y-84000000D01*
X59368399Y-83374056D01*
X59124946Y-83369181D01*
X58950151Y-83752067D01*
X58935186Y-84172700D01*
X50825000Y-84172700D01*
X50825000Y-83124946D01*
X59369181Y-83124946D01*
X59374056Y-83368399D01*
X60000000Y-83994343D01*
X60625944Y-83368399D01*
X60630819Y-83124946D01*
X60247933Y-82950151D01*
X59827300Y-82935186D01*
X59432960Y-83082330D01*
X59369181Y-83124946D01*
X50825000Y-83124946D01*
X50825000Y-78607942D01*
X53349818Y-78607942D01*
X53509334Y-78994000D01*
X53525000Y-79009693D01*
X53525000Y-81189844D01*
X53510372Y-81204446D01*
X53350182Y-81590226D01*
X53349818Y-82007942D01*
X53509334Y-82394000D01*
X53804446Y-82689628D01*
X54190226Y-82849818D01*
X54607942Y-82850182D01*
X54994000Y-82690666D01*
X55289628Y-82395554D01*
X55449818Y-82009774D01*
X55450182Y-81592058D01*
X55290666Y-81206000D01*
X55275000Y-81190307D01*
X55275000Y-80875054D01*
X71369181Y-80875054D01*
X71752067Y-81049849D01*
X72172700Y-81064814D01*
X72567040Y-80917670D01*
X72630819Y-80875054D01*
X72625944Y-80631601D01*
X72000000Y-80005657D01*
X71374056Y-80631601D01*
X71369181Y-80875054D01*
X55275000Y-80875054D01*
X55275000Y-80172700D01*
X70935186Y-80172700D01*
X71082330Y-80567040D01*
X71124946Y-80630819D01*
X71368399Y-80625944D01*
X71994343Y-80000000D01*
X72005657Y-80000000D01*
X72631601Y-80625944D01*
X72875054Y-80630819D01*
X73049849Y-80247933D01*
X73064814Y-79827300D01*
X72917670Y-79432960D01*
X72875054Y-79369181D01*
X72631601Y-79374056D01*
X72005657Y-80000000D01*
X71994343Y-80000000D01*
X71368399Y-79374056D01*
X71124946Y-79369181D01*
X70950151Y-79752067D01*
X70935186Y-80172700D01*
X55275000Y-80172700D01*
X55275000Y-79124946D01*
X71369181Y-79124946D01*
X71374056Y-79368399D01*
X72000000Y-79994343D01*
X72625944Y-79368399D01*
X72630819Y-79124946D01*
X72247933Y-78950151D01*
X71827300Y-78935186D01*
X71432960Y-79082330D01*
X71369181Y-79124946D01*
X55275000Y-79124946D01*
X55275000Y-79010156D01*
X55289628Y-78995554D01*
X55449818Y-78609774D01*
X55450182Y-78192058D01*
X55290666Y-77806000D01*
X54995554Y-77510372D01*
X54609774Y-77350182D01*
X54192058Y-77349818D01*
X53806000Y-77509334D01*
X53510372Y-77804446D01*
X53350182Y-78190226D01*
X53349818Y-78607942D01*
X50825000Y-78607942D01*
X50825000Y-73800000D01*
X70350001Y-73800000D01*
X70445151Y-74278354D01*
X70716117Y-74683883D01*
X73716117Y-77683884D01*
X74121646Y-77954849D01*
X74600000Y-78050000D01*
X75078354Y-77954849D01*
X75483884Y-77683884D01*
X75754849Y-77278354D01*
X75850000Y-76800000D01*
X75754849Y-76321646D01*
X75483884Y-75916117D01*
X75442821Y-75875054D01*
X76369181Y-75875054D01*
X76752067Y-76049849D01*
X77172700Y-76064814D01*
X77567040Y-75917670D01*
X77630819Y-75875054D01*
X77625944Y-75631601D01*
X77000000Y-75005657D01*
X76374056Y-75631601D01*
X76369181Y-75875054D01*
X75442821Y-75875054D01*
X74740467Y-75172700D01*
X75935186Y-75172700D01*
X76082330Y-75567040D01*
X76124946Y-75630819D01*
X76368399Y-75625944D01*
X76994343Y-75000000D01*
X77005657Y-75000000D01*
X77631601Y-75625944D01*
X77875054Y-75630819D01*
X78049849Y-75247933D01*
X78064814Y-74827300D01*
X77917670Y-74432960D01*
X77875054Y-74369181D01*
X77631601Y-74374056D01*
X77005657Y-75000000D01*
X76994343Y-75000000D01*
X76368399Y-74374056D01*
X76124946Y-74369181D01*
X75950151Y-74752067D01*
X75935186Y-75172700D01*
X74740467Y-75172700D01*
X73692713Y-74124946D01*
X76369181Y-74124946D01*
X76374056Y-74368399D01*
X77000000Y-74994343D01*
X77625944Y-74368399D01*
X77630819Y-74124946D01*
X77247933Y-73950151D01*
X76827300Y-73935186D01*
X76432960Y-74082330D01*
X76369181Y-74124946D01*
X73692713Y-74124946D01*
X72483883Y-72916117D01*
X72078354Y-72645151D01*
X71600000Y-72550001D01*
X71121646Y-72645151D01*
X70716117Y-72916117D01*
X70445151Y-73321646D01*
X70350001Y-73800000D01*
X50825000Y-73800000D01*
X50825000Y-68807942D01*
X53149818Y-68807942D01*
X53309334Y-69194000D01*
X53325000Y-69209693D01*
X53325000Y-71189844D01*
X53310372Y-71204446D01*
X53150182Y-71590226D01*
X53149818Y-72007942D01*
X53309334Y-72394000D01*
X53604446Y-72689628D01*
X53990226Y-72849818D01*
X54407942Y-72850182D01*
X54794000Y-72690666D01*
X55089628Y-72395554D01*
X55249818Y-72009774D01*
X55250182Y-71592058D01*
X55090666Y-71206000D01*
X55075000Y-71190307D01*
X55075000Y-69807942D01*
X58949818Y-69807942D01*
X59109334Y-70194000D01*
X59125000Y-70209693D01*
X59125000Y-71789844D01*
X59110372Y-71804446D01*
X58950182Y-72190226D01*
X58949818Y-72607942D01*
X59109334Y-72994000D01*
X59404446Y-73289628D01*
X59790226Y-73449818D01*
X60207942Y-73450182D01*
X60594000Y-73290666D01*
X60889628Y-72995554D01*
X61049818Y-72609774D01*
X61050182Y-72192058D01*
X60891469Y-71807942D01*
X62949818Y-71807942D01*
X63109334Y-72194000D01*
X63404446Y-72489628D01*
X63790226Y-72649818D01*
X64207942Y-72650182D01*
X64594000Y-72490666D01*
X64609693Y-72475000D01*
X77789844Y-72475000D01*
X77804446Y-72489628D01*
X78190226Y-72649818D01*
X78607942Y-72650182D01*
X78994000Y-72490666D01*
X79289628Y-72195554D01*
X79449818Y-71809774D01*
X79450182Y-71392058D01*
X79290666Y-71006000D01*
X78995554Y-70710372D01*
X78609774Y-70550182D01*
X78192058Y-70549818D01*
X77806000Y-70709334D01*
X77790307Y-70725000D01*
X64610156Y-70725000D01*
X64595554Y-70710372D01*
X64209774Y-70550182D01*
X63792058Y-70549818D01*
X63406000Y-70709334D01*
X63110372Y-71004446D01*
X62950182Y-71390226D01*
X62949818Y-71807942D01*
X60891469Y-71807942D01*
X60890666Y-71806000D01*
X60875000Y-71790307D01*
X60875000Y-70210156D01*
X60889628Y-70195554D01*
X61049818Y-69809774D01*
X61050182Y-69392058D01*
X60890666Y-69006000D01*
X60595554Y-68710372D01*
X60209774Y-68550182D01*
X59792058Y-68549818D01*
X59406000Y-68709334D01*
X59110372Y-69004446D01*
X58950182Y-69390226D01*
X58949818Y-69807942D01*
X55075000Y-69807942D01*
X55075000Y-69210156D01*
X55089628Y-69195554D01*
X55249818Y-68809774D01*
X55250182Y-68392058D01*
X55090666Y-68006000D01*
X54795554Y-67710372D01*
X54409774Y-67550182D01*
X53992058Y-67549818D01*
X53606000Y-67709334D01*
X53310372Y-68004446D01*
X53150182Y-68390226D01*
X53149818Y-68807942D01*
X50825000Y-68807942D01*
X50825000Y-66607942D01*
X63749818Y-66607942D01*
X63909334Y-66994000D01*
X63925000Y-67009693D01*
X63925000Y-67600000D01*
X63991605Y-67934848D01*
X64181282Y-68218718D01*
X64465152Y-68408395D01*
X64800000Y-68475000D01*
X65134848Y-68408395D01*
X65147411Y-68400000D01*
X74950001Y-68400000D01*
X75045151Y-68878354D01*
X75316117Y-69283883D01*
X75721646Y-69554849D01*
X76200000Y-69649999D01*
X76678354Y-69554849D01*
X77083883Y-69283883D01*
X77576776Y-68790990D01*
X80059726Y-71273939D01*
X80109334Y-71394000D01*
X80404446Y-71689628D01*
X80790226Y-71849818D01*
X81207942Y-71850182D01*
X81594000Y-71690666D01*
X81889628Y-71395554D01*
X82049818Y-71009774D01*
X82050182Y-70592058D01*
X81890666Y-70206000D01*
X81595554Y-69910372D01*
X81474190Y-69859977D01*
X78990990Y-67376776D01*
X79517767Y-66850000D01*
X89082234Y-66850000D01*
X89616116Y-67383883D01*
X89616119Y-67383885D01*
X98216117Y-75983884D01*
X98216120Y-75983886D01*
X100116117Y-77883884D01*
X100476893Y-78124946D01*
X100521646Y-78154849D01*
X101000000Y-78250000D01*
X102244341Y-78250000D01*
X102368397Y-78374056D01*
X102124946Y-78369181D01*
X101950151Y-78752067D01*
X101935186Y-79172700D01*
X102082330Y-79567040D01*
X102124946Y-79630819D01*
X102368399Y-79625944D01*
X102994343Y-79000000D01*
X103005657Y-79000000D01*
X103631601Y-79625944D01*
X103875054Y-79630819D01*
X103889123Y-79600000D01*
X104950000Y-79600000D01*
X104950000Y-86280000D01*
X105026064Y-86662396D01*
X105045151Y-86758354D01*
X105316117Y-87163883D01*
X107083874Y-88931641D01*
X107171793Y-89373639D01*
X107400000Y-89715176D01*
X107400000Y-90284824D01*
X107171793Y-90626361D01*
X107050000Y-91238654D01*
X107050000Y-91301346D01*
X107171793Y-91913639D01*
X107518629Y-92432717D01*
X108037707Y-92779553D01*
X108650000Y-92901346D01*
X109262293Y-92779553D01*
X109781371Y-92432717D01*
X109920000Y-92225244D01*
X110058629Y-92432717D01*
X110577707Y-92779553D01*
X111190000Y-92901346D01*
X111802293Y-92779553D01*
X112321371Y-92432717D01*
X112460000Y-92225244D01*
X112598629Y-92432717D01*
X113117707Y-92779553D01*
X113730000Y-92901346D01*
X114342293Y-92779553D01*
X114861371Y-92432717D01*
X115000000Y-92225244D01*
X115138629Y-92432717D01*
X115657707Y-92779553D01*
X116270000Y-92901346D01*
X116882293Y-92779553D01*
X117401371Y-92432717D01*
X117540000Y-92225244D01*
X117678629Y-92432717D01*
X118197707Y-92779553D01*
X118810000Y-92901346D01*
X119422293Y-92779553D01*
X119941371Y-92432717D01*
X120080000Y-92225244D01*
X120218629Y-92432717D01*
X120737707Y-92779553D01*
X121350000Y-92901346D01*
X121962293Y-92779553D01*
X122481371Y-92432717D01*
X122828207Y-91913639D01*
X122950000Y-91301346D01*
X122950000Y-91238654D01*
X122828207Y-90626361D01*
X122566835Y-90235189D01*
X122733198Y-90128138D01*
X122904446Y-89877508D01*
X122964693Y-89580000D01*
X122964693Y-87880000D01*
X122912396Y-87602067D01*
X122748138Y-87346802D01*
X122497508Y-87175554D01*
X122200000Y-87115307D01*
X120500000Y-87115307D01*
X120222067Y-87167604D01*
X119966802Y-87331862D01*
X119848394Y-87505158D01*
X119422293Y-87220447D01*
X118810000Y-87098654D01*
X118197707Y-87220447D01*
X117678629Y-87567283D01*
X117540000Y-87774756D01*
X117401371Y-87567283D01*
X116882293Y-87220447D01*
X116270000Y-87098654D01*
X115657707Y-87220447D01*
X115138629Y-87567283D01*
X115000000Y-87774756D01*
X114861371Y-87567283D01*
X114342293Y-87220447D01*
X113730000Y-87098654D01*
X113117707Y-87220447D01*
X112598629Y-87567283D01*
X112460000Y-87774756D01*
X112321371Y-87567283D01*
X111802293Y-87220447D01*
X111190000Y-87098654D01*
X110577707Y-87220447D01*
X110058629Y-87567283D01*
X109920000Y-87774756D01*
X109781371Y-87567283D01*
X109262293Y-87220447D01*
X108820294Y-87132528D01*
X107450000Y-85762234D01*
X107450000Y-83875054D01*
X124369181Y-83875054D01*
X124752067Y-84049849D01*
X125172700Y-84064814D01*
X125567040Y-83917670D01*
X125630819Y-83875054D01*
X125625944Y-83631601D01*
X125000000Y-83005657D01*
X124374056Y-83631601D01*
X124369181Y-83875054D01*
X107450000Y-83875054D01*
X107450000Y-83172700D01*
X123935186Y-83172700D01*
X124082330Y-83567040D01*
X124124946Y-83630819D01*
X124368399Y-83625944D01*
X124994343Y-83000000D01*
X125005657Y-83000000D01*
X125631601Y-83625944D01*
X125875054Y-83630819D01*
X126049849Y-83247933D01*
X126064814Y-82827300D01*
X125917670Y-82432960D01*
X125875054Y-82369181D01*
X125631601Y-82374056D01*
X125005657Y-83000000D01*
X124994343Y-83000000D01*
X124368399Y-82374056D01*
X124124946Y-82369181D01*
X123950151Y-82752067D01*
X123935186Y-83172700D01*
X107450000Y-83172700D01*
X107450000Y-82124946D01*
X124369181Y-82124946D01*
X124374056Y-82368399D01*
X125000000Y-82994343D01*
X125625944Y-82368399D01*
X125630819Y-82124946D01*
X125247933Y-81950151D01*
X124827300Y-81935186D01*
X124432960Y-82082330D01*
X124369181Y-82124946D01*
X107450000Y-82124946D01*
X107450000Y-79875054D01*
X110369181Y-79875054D01*
X110752067Y-80049849D01*
X111172700Y-80064814D01*
X111567040Y-79917670D01*
X111630819Y-79875054D01*
X111625944Y-79631601D01*
X111000000Y-79005657D01*
X110374056Y-79631601D01*
X110369181Y-79875054D01*
X107450000Y-79875054D01*
X107450000Y-79600000D01*
X107365005Y-79172700D01*
X109935186Y-79172700D01*
X110082330Y-79567040D01*
X110124946Y-79630819D01*
X110368399Y-79625944D01*
X110994343Y-79000000D01*
X111005657Y-79000000D01*
X111631601Y-79625944D01*
X111875054Y-79630819D01*
X112049849Y-79247933D01*
X112064814Y-78827300D01*
X111917670Y-78432960D01*
X111875054Y-78369181D01*
X111631601Y-78374056D01*
X111005657Y-79000000D01*
X110994343Y-79000000D01*
X110368399Y-78374056D01*
X110124946Y-78369181D01*
X109950151Y-78752067D01*
X109935186Y-79172700D01*
X107365005Y-79172700D01*
X107354849Y-79121646D01*
X107083883Y-78716117D01*
X106678354Y-78445151D01*
X106200000Y-78350000D01*
X105721646Y-78445151D01*
X105316117Y-78716117D01*
X105045151Y-79121646D01*
X104950000Y-79600000D01*
X103889123Y-79600000D01*
X104049849Y-79247933D01*
X104064814Y-78827300D01*
X103917670Y-78432960D01*
X103875054Y-78369181D01*
X103631601Y-78374056D01*
X103005657Y-79000000D01*
X102994343Y-79000000D01*
X102980201Y-78985858D01*
X102985858Y-78980201D01*
X103000000Y-78994343D01*
X103625944Y-78368399D01*
X103630819Y-78124946D01*
X110369181Y-78124946D01*
X110374056Y-78368399D01*
X111000000Y-78994343D01*
X111625944Y-78368399D01*
X111630819Y-78124946D01*
X111247933Y-77950151D01*
X110827300Y-77935186D01*
X110432960Y-78082330D01*
X110369181Y-78124946D01*
X103630819Y-78124946D01*
X103566828Y-78095733D01*
X103883883Y-77883883D01*
X104154849Y-77478354D01*
X104250000Y-77000000D01*
X104154849Y-76521646D01*
X103883883Y-76116117D01*
X103478354Y-75845151D01*
X103000000Y-75750000D01*
X101517767Y-75750000D01*
X99983886Y-74216120D01*
X99983884Y-74216117D01*
X92015022Y-66247256D01*
X92394000Y-66090666D01*
X92689628Y-65795554D01*
X92849818Y-65409774D01*
X92850182Y-64992058D01*
X92801837Y-64875054D01*
X97969181Y-64875054D01*
X98352067Y-65049849D01*
X98772700Y-65064814D01*
X99167040Y-64917670D01*
X99230819Y-64875054D01*
X99225944Y-64631601D01*
X98600000Y-64005657D01*
X97974056Y-64631601D01*
X97969181Y-64875054D01*
X92801837Y-64875054D01*
X92690666Y-64606000D01*
X92434002Y-64348887D01*
X92627933Y-64312396D01*
X92883198Y-64148138D01*
X93054446Y-63897508D01*
X93114693Y-63600000D01*
X93114693Y-60800000D01*
X93084910Y-60641715D01*
X93124224Y-60658000D01*
X93381500Y-60658000D01*
X93571000Y-60468500D01*
X93571000Y-59004000D01*
X92706500Y-59004000D01*
X92517000Y-59193500D01*
X92517000Y-60050775D01*
X92525297Y-60070806D01*
X92350000Y-60035307D01*
X91350000Y-60035307D01*
X91072067Y-60087604D01*
X90816802Y-60251862D01*
X90645554Y-60502492D01*
X90585307Y-60800000D01*
X90585307Y-63600000D01*
X90637604Y-63877933D01*
X90801862Y-64133198D01*
X91052492Y-64304446D01*
X91184182Y-64331114D01*
X90910372Y-64604446D01*
X90752474Y-64984707D01*
X90483883Y-64716117D01*
X90078354Y-64445151D01*
X89600000Y-64350000D01*
X79000000Y-64350000D01*
X78521646Y-64445151D01*
X78116116Y-64716117D01*
X76416120Y-66416114D01*
X76416117Y-66416116D01*
X75316117Y-67516117D01*
X75045151Y-67921646D01*
X74950001Y-68400000D01*
X65147411Y-68400000D01*
X65418718Y-68218718D01*
X65608395Y-67934848D01*
X65675000Y-67600000D01*
X65675000Y-67010156D01*
X65689628Y-66995554D01*
X65849818Y-66609774D01*
X65850182Y-66192058D01*
X65690666Y-65806000D01*
X65395554Y-65510372D01*
X65009774Y-65350182D01*
X64592058Y-65349818D01*
X64206000Y-65509334D01*
X63910372Y-65804446D01*
X63750182Y-66190226D01*
X63749818Y-66607942D01*
X50825000Y-66607942D01*
X50825000Y-64875054D01*
X51369181Y-64875054D01*
X51752067Y-65049849D01*
X52172700Y-65064814D01*
X52567040Y-64917670D01*
X52630819Y-64875054D01*
X52625944Y-64631601D01*
X52000000Y-64005657D01*
X51374056Y-64631601D01*
X51369181Y-64875054D01*
X50825000Y-64875054D01*
X50825000Y-64172700D01*
X50935186Y-64172700D01*
X51082330Y-64567040D01*
X51124946Y-64630819D01*
X51368399Y-64625944D01*
X51994343Y-64000000D01*
X52005657Y-64000000D01*
X52631601Y-64625944D01*
X52875054Y-64630819D01*
X53049849Y-64247933D01*
X53064814Y-63827300D01*
X52917670Y-63432960D01*
X52875054Y-63369181D01*
X52631601Y-63374056D01*
X52005657Y-64000000D01*
X51994343Y-64000000D01*
X51368399Y-63374056D01*
X51124946Y-63369181D01*
X50950151Y-63752067D01*
X50935186Y-64172700D01*
X50825000Y-64172700D01*
X50825000Y-63124946D01*
X51369181Y-63124946D01*
X51374056Y-63368399D01*
X52000000Y-63994343D01*
X52625944Y-63368399D01*
X52630819Y-63124946D01*
X52247933Y-62950151D01*
X51827300Y-62935186D01*
X51432960Y-63082330D01*
X51369181Y-63124946D01*
X50825000Y-63124946D01*
X50825000Y-60136400D01*
X61571707Y-60136400D01*
X61571707Y-61863600D01*
X61624004Y-62141533D01*
X61788262Y-62396798D01*
X62038892Y-62568046D01*
X62336400Y-62628293D01*
X64063600Y-62628293D01*
X64341533Y-62575996D01*
X64596798Y-62411738D01*
X64709672Y-62246541D01*
X65122502Y-62522384D01*
X65740000Y-62645212D01*
X66357498Y-62522384D01*
X66880988Y-62172600D01*
X67013820Y-61973803D01*
X67330087Y-62314249D01*
X67905336Y-62577724D01*
X68022376Y-62601005D01*
X68276000Y-62432094D01*
X68276000Y-61004000D01*
X68256000Y-61004000D01*
X68256000Y-60996000D01*
X68276000Y-60996000D01*
X68276000Y-58464000D01*
X68256000Y-58464000D01*
X68256000Y-58456000D01*
X68276000Y-58456000D01*
X68276000Y-57027906D01*
X68284000Y-57027906D01*
X68284000Y-58456000D01*
X68304000Y-58456000D01*
X68304000Y-58464000D01*
X68284000Y-58464000D01*
X68284000Y-60996000D01*
X68304000Y-60996000D01*
X68304000Y-61004000D01*
X68284000Y-61004000D01*
X68284000Y-62432094D01*
X68537624Y-62601005D01*
X68654664Y-62577724D01*
X69229913Y-62314249D01*
X69546180Y-61973803D01*
X69679012Y-62172600D01*
X70202502Y-62522384D01*
X70820000Y-62645212D01*
X71437498Y-62522384D01*
X71960988Y-62172600D01*
X72090000Y-61979519D01*
X72219012Y-62172600D01*
X72742502Y-62522384D01*
X73360000Y-62645212D01*
X73977498Y-62522384D01*
X74500988Y-62172600D01*
X74850772Y-61649110D01*
X74973600Y-61031612D01*
X74973600Y-60968388D01*
X74850772Y-60350890D01*
X74500988Y-59827400D01*
X74355218Y-59730000D01*
X74500988Y-59632600D01*
X74850772Y-59109110D01*
X74973600Y-58491612D01*
X74973600Y-58428388D01*
X74850772Y-57810890D01*
X74500988Y-57287400D01*
X73977498Y-56937616D01*
X73360000Y-56814788D01*
X72742502Y-56937616D01*
X72219012Y-57287400D01*
X72090000Y-57480481D01*
X71960988Y-57287400D01*
X71437498Y-56937616D01*
X70820000Y-56814788D01*
X70202502Y-56937616D01*
X69679012Y-57287400D01*
X69546180Y-57486197D01*
X69229913Y-57145751D01*
X68654664Y-56882276D01*
X68537624Y-56858995D01*
X68284000Y-57027906D01*
X68276000Y-57027906D01*
X68022376Y-56858995D01*
X67905336Y-56882276D01*
X67330087Y-57145751D01*
X67013820Y-57486197D01*
X66880988Y-57287400D01*
X66357498Y-56937616D01*
X66025800Y-56871637D01*
X66822437Y-56075000D01*
X75037564Y-56075000D01*
X77181282Y-58218719D01*
X77181285Y-58218721D01*
X78349836Y-59387273D01*
X78349818Y-59407942D01*
X78509334Y-59794000D01*
X78804446Y-60089628D01*
X79190226Y-60249818D01*
X79607942Y-60250182D01*
X79994000Y-60090666D01*
X80209988Y-59875054D01*
X85369181Y-59875054D01*
X85752067Y-60049849D01*
X86172700Y-60064814D01*
X86567040Y-59917670D01*
X86630819Y-59875054D01*
X86625944Y-59631601D01*
X86000000Y-59005657D01*
X85374056Y-59631601D01*
X85369181Y-59875054D01*
X80209988Y-59875054D01*
X80289628Y-59795554D01*
X80449818Y-59409774D01*
X80450024Y-59172700D01*
X84935186Y-59172700D01*
X85082330Y-59567040D01*
X85124946Y-59630819D01*
X85368399Y-59625944D01*
X85994343Y-59000000D01*
X86005657Y-59000000D01*
X86631601Y-59625944D01*
X86875054Y-59630819D01*
X87049849Y-59247933D01*
X87064814Y-58827300D01*
X86917670Y-58432960D01*
X86875054Y-58369181D01*
X86631601Y-58374056D01*
X86005657Y-59000000D01*
X85994343Y-59000000D01*
X85368399Y-58374056D01*
X85124946Y-58369181D01*
X84950151Y-58752067D01*
X84935186Y-59172700D01*
X80450024Y-59172700D01*
X80450182Y-58992058D01*
X80290666Y-58606000D01*
X79995554Y-58310372D01*
X79609774Y-58150182D01*
X79587599Y-58150163D01*
X79562382Y-58124946D01*
X85369181Y-58124946D01*
X85374056Y-58368399D01*
X86000000Y-58994343D01*
X86625944Y-58368399D01*
X86630819Y-58124946D01*
X86247933Y-57950151D01*
X86221906Y-57949225D01*
X92517000Y-57949225D01*
X92517000Y-58806500D01*
X92706500Y-58996000D01*
X93571000Y-58996000D01*
X93571000Y-57531500D01*
X93579000Y-57531500D01*
X93579000Y-58996000D01*
X93599000Y-58996000D01*
X93599000Y-59004000D01*
X93579000Y-59004000D01*
X93579000Y-60468500D01*
X93768500Y-60658000D01*
X94025776Y-60658000D01*
X94200157Y-60585769D01*
X94227492Y-60604446D01*
X94525000Y-60664693D01*
X95125000Y-60664693D01*
X95320143Y-60627974D01*
X95285307Y-60800000D01*
X95285307Y-63600000D01*
X95337604Y-63877933D01*
X95501862Y-64133198D01*
X95752492Y-64304446D01*
X96050000Y-64364693D01*
X97050000Y-64364693D01*
X97327933Y-64312396D01*
X97537091Y-64177807D01*
X97682330Y-64567040D01*
X97724946Y-64630819D01*
X97968399Y-64625944D01*
X98594343Y-64000000D01*
X98605657Y-64000000D01*
X99231601Y-64625944D01*
X99475054Y-64630819D01*
X99576801Y-64407942D01*
X105749818Y-64407942D01*
X105909334Y-64794000D01*
X106204446Y-65089628D01*
X106590226Y-65249818D01*
X107007942Y-65250182D01*
X107129392Y-65200000D01*
X110185786Y-65200000D01*
X115459726Y-70473940D01*
X115509334Y-70594000D01*
X115804446Y-70889628D01*
X116190226Y-71049818D01*
X116607942Y-71050182D01*
X116994000Y-70890666D01*
X117289628Y-70595554D01*
X117449818Y-70209774D01*
X117450182Y-69792058D01*
X117290666Y-69406000D01*
X116995554Y-69110372D01*
X116874192Y-69059978D01*
X115689268Y-67875054D01*
X124369181Y-67875054D01*
X124752067Y-68049849D01*
X125172700Y-68064814D01*
X125567040Y-67917670D01*
X125630819Y-67875054D01*
X125625944Y-67631601D01*
X125000000Y-67005657D01*
X124374056Y-67631601D01*
X124369181Y-67875054D01*
X115689268Y-67875054D01*
X114986914Y-67172700D01*
X123935186Y-67172700D01*
X124082330Y-67567040D01*
X124124946Y-67630819D01*
X124368399Y-67625944D01*
X124994343Y-67000000D01*
X125005657Y-67000000D01*
X125631601Y-67625944D01*
X125875054Y-67630819D01*
X126049849Y-67247933D01*
X126064814Y-66827300D01*
X125917670Y-66432960D01*
X125875054Y-66369181D01*
X125631601Y-66374056D01*
X125005657Y-67000000D01*
X124994343Y-67000000D01*
X124368399Y-66374056D01*
X124124946Y-66369181D01*
X123950151Y-66752067D01*
X123935186Y-67172700D01*
X114986914Y-67172700D01*
X113939160Y-66124946D01*
X124369181Y-66124946D01*
X124374056Y-66368399D01*
X125000000Y-66994343D01*
X125625944Y-66368399D01*
X125630819Y-66124946D01*
X125247933Y-65950151D01*
X124827300Y-65935186D01*
X124432960Y-66082330D01*
X124369181Y-66124946D01*
X113939160Y-66124946D01*
X111307107Y-63492893D01*
X110982684Y-63276120D01*
X110600000Y-63200000D01*
X107129749Y-63200000D01*
X107009774Y-63150182D01*
X106592058Y-63149818D01*
X106206000Y-63309334D01*
X105910372Y-63604446D01*
X105750182Y-63990226D01*
X105749818Y-64407942D01*
X99576801Y-64407942D01*
X99649849Y-64247933D01*
X99664814Y-63827300D01*
X99517670Y-63432960D01*
X99475054Y-63369181D01*
X99231601Y-63374056D01*
X98605657Y-64000000D01*
X98594343Y-64000000D01*
X97968399Y-63374056D01*
X97814693Y-63370978D01*
X97814693Y-63124946D01*
X97969181Y-63124946D01*
X97974056Y-63368399D01*
X98600000Y-63994343D01*
X99225944Y-63368399D01*
X99230819Y-63124946D01*
X98847933Y-62950151D01*
X98427300Y-62935186D01*
X98032960Y-63082330D01*
X97969181Y-63124946D01*
X97814693Y-63124946D01*
X97814693Y-62875054D01*
X102369181Y-62875054D01*
X102752067Y-63049849D01*
X103172700Y-63064814D01*
X103567040Y-62917670D01*
X103630819Y-62875054D01*
X103625944Y-62631601D01*
X103000000Y-62005657D01*
X102374056Y-62631601D01*
X102369181Y-62875054D01*
X97814693Y-62875054D01*
X97814693Y-62172700D01*
X101935186Y-62172700D01*
X102082330Y-62567040D01*
X102124946Y-62630819D01*
X102368399Y-62625944D01*
X102994343Y-62000000D01*
X103005657Y-62000000D01*
X103631601Y-62625944D01*
X103875054Y-62630819D01*
X104049849Y-62247933D01*
X104064814Y-61827300D01*
X103952200Y-61525497D01*
X107062428Y-61525497D01*
X107281049Y-62113586D01*
X107708081Y-62573247D01*
X108278511Y-62834500D01*
X108394503Y-62857572D01*
X108646000Y-62688494D01*
X108646000Y-61274000D01*
X107231505Y-61274000D01*
X107062428Y-61525497D01*
X103952200Y-61525497D01*
X103917670Y-61432960D01*
X103875054Y-61369181D01*
X103631601Y-61374056D01*
X103005657Y-62000000D01*
X102994343Y-62000000D01*
X102368399Y-61374056D01*
X102124946Y-61369181D01*
X101950151Y-61752067D01*
X101935186Y-62172700D01*
X97814693Y-62172700D01*
X97814693Y-61124946D01*
X102369181Y-61124946D01*
X102374056Y-61368399D01*
X103000000Y-61994343D01*
X103625944Y-61368399D01*
X103630819Y-61124946D01*
X103247933Y-60950151D01*
X102827300Y-60935186D01*
X102432960Y-61082330D01*
X102369181Y-61124946D01*
X97814693Y-61124946D01*
X97814693Y-60800000D01*
X97762396Y-60522067D01*
X97598138Y-60266802D01*
X97347508Y-60095554D01*
X97050000Y-60035307D01*
X96050000Y-60035307D01*
X95854857Y-60072026D01*
X95869442Y-60000000D01*
X97400000Y-60000000D01*
X97782684Y-59923880D01*
X98107107Y-59707107D01*
X98273940Y-59540274D01*
X98394000Y-59490666D01*
X98689628Y-59195554D01*
X98776851Y-58985497D01*
X107062428Y-58985497D01*
X107281049Y-59573586D01*
X107677194Y-60000000D01*
X107281049Y-60426414D01*
X107062428Y-61014503D01*
X107231505Y-61266000D01*
X108646000Y-61266000D01*
X108646000Y-58734000D01*
X107231505Y-58734000D01*
X107062428Y-58985497D01*
X98776851Y-58985497D01*
X98849818Y-58809774D01*
X98850110Y-58474503D01*
X107062428Y-58474503D01*
X107231505Y-58726000D01*
X108646000Y-58726000D01*
X108646000Y-57311506D01*
X108654000Y-57311506D01*
X108654000Y-58726000D01*
X108674000Y-58726000D01*
X108674000Y-58734000D01*
X108654000Y-58734000D01*
X108654000Y-61266000D01*
X108674000Y-61266000D01*
X108674000Y-61274000D01*
X108654000Y-61274000D01*
X108654000Y-62688494D01*
X108905497Y-62857572D01*
X109021489Y-62834500D01*
X109591919Y-62573247D01*
X109918000Y-62222250D01*
X110058629Y-62432717D01*
X110577707Y-62779553D01*
X111190000Y-62901346D01*
X111802293Y-62779553D01*
X112321371Y-62432717D01*
X112460000Y-62225244D01*
X112598629Y-62432717D01*
X113117707Y-62779553D01*
X113730000Y-62901346D01*
X114342293Y-62779553D01*
X114861371Y-62432717D01*
X115000000Y-62225244D01*
X115138629Y-62432717D01*
X115657707Y-62779553D01*
X116270000Y-62901346D01*
X116882293Y-62779553D01*
X117401371Y-62432717D01*
X117540000Y-62225244D01*
X117678629Y-62432717D01*
X118197707Y-62779553D01*
X118810000Y-62901346D01*
X119422293Y-62779553D01*
X119941371Y-62432717D01*
X120080000Y-62225244D01*
X120218629Y-62432717D01*
X120737707Y-62779553D01*
X121350000Y-62901346D01*
X121962293Y-62779553D01*
X122481371Y-62432717D01*
X122828207Y-61913639D01*
X122950000Y-61301346D01*
X122950000Y-61238654D01*
X122828207Y-60626361D01*
X122566835Y-60235189D01*
X122733198Y-60128138D01*
X122904446Y-59877508D01*
X122964693Y-59580000D01*
X122964693Y-57880000D01*
X122912396Y-57602067D01*
X122748138Y-57346802D01*
X122497508Y-57175554D01*
X122200000Y-57115307D01*
X120500000Y-57115307D01*
X120222067Y-57167604D01*
X119966802Y-57331862D01*
X119848394Y-57505158D01*
X119422293Y-57220447D01*
X118810000Y-57098654D01*
X118197707Y-57220447D01*
X117678629Y-57567283D01*
X117540000Y-57774756D01*
X117401371Y-57567283D01*
X116882293Y-57220447D01*
X116270000Y-57098654D01*
X115657707Y-57220447D01*
X115138629Y-57567283D01*
X115000000Y-57774756D01*
X114861371Y-57567283D01*
X114342293Y-57220447D01*
X113730000Y-57098654D01*
X113117707Y-57220447D01*
X112598629Y-57567283D01*
X112460000Y-57774756D01*
X112321371Y-57567283D01*
X111802293Y-57220447D01*
X111190000Y-57098654D01*
X110577707Y-57220447D01*
X110058629Y-57567283D01*
X109918000Y-57777750D01*
X109591919Y-57426753D01*
X109021489Y-57165500D01*
X108905497Y-57142428D01*
X108654000Y-57311506D01*
X108646000Y-57311506D01*
X108394503Y-57142428D01*
X108278511Y-57165500D01*
X107708081Y-57426753D01*
X107281049Y-57886414D01*
X107062428Y-58474503D01*
X98850110Y-58474503D01*
X98850182Y-58392058D01*
X98690666Y-58006000D01*
X98395554Y-57710372D01*
X98009774Y-57550182D01*
X97592058Y-57549818D01*
X97206000Y-57709334D01*
X96914826Y-58000000D01*
X95870877Y-58000000D01*
X95837396Y-57822067D01*
X95673138Y-57566802D01*
X95422508Y-57395554D01*
X95125000Y-57335307D01*
X94525000Y-57335307D01*
X94247067Y-57387604D01*
X94203521Y-57415625D01*
X94025776Y-57342000D01*
X93768500Y-57342000D01*
X93579000Y-57531500D01*
X93571000Y-57531500D01*
X93381500Y-57342000D01*
X93124224Y-57342000D01*
X92845627Y-57457399D01*
X92632398Y-57670628D01*
X92517000Y-57949225D01*
X86221906Y-57949225D01*
X85827300Y-57935186D01*
X85432960Y-58082330D01*
X85369181Y-58124946D01*
X79562382Y-58124946D01*
X78418721Y-56981285D01*
X78418719Y-56981282D01*
X77312491Y-55875054D01*
X122369181Y-55875054D01*
X122752067Y-56049849D01*
X123172700Y-56064814D01*
X123567040Y-55917670D01*
X123630819Y-55875054D01*
X123625944Y-55631601D01*
X123000000Y-55005657D01*
X122374056Y-55631601D01*
X122369181Y-55875054D01*
X77312491Y-55875054D01*
X76018718Y-54581282D01*
X75734848Y-54391605D01*
X75509768Y-54346834D01*
X86132812Y-54346834D01*
X86209326Y-54618154D01*
X86475309Y-55019035D01*
X86874456Y-55287613D01*
X87346000Y-55383000D01*
X87496000Y-55383000D01*
X87496000Y-54154000D01*
X87504000Y-54154000D01*
X87504000Y-55383000D01*
X87654000Y-55383000D01*
X88125544Y-55287613D01*
X88524691Y-55019035D01*
X88790674Y-54618154D01*
X88867188Y-54346834D01*
X91132812Y-54346834D01*
X91209326Y-54618154D01*
X91475309Y-55019035D01*
X91874456Y-55287613D01*
X92346000Y-55383000D01*
X92496000Y-55383000D01*
X92496000Y-54154000D01*
X92504000Y-54154000D01*
X92504000Y-55383000D01*
X92654000Y-55383000D01*
X93125544Y-55287613D01*
X93296321Y-55172700D01*
X121935186Y-55172700D01*
X122082330Y-55567040D01*
X122124946Y-55630819D01*
X122368399Y-55625944D01*
X122994343Y-55000000D01*
X123005657Y-55000000D01*
X123631601Y-55625944D01*
X123875054Y-55630819D01*
X124049849Y-55247933D01*
X124064814Y-54827300D01*
X123917670Y-54432960D01*
X123875054Y-54369181D01*
X123631601Y-54374056D01*
X123005657Y-55000000D01*
X122994343Y-55000000D01*
X122368399Y-54374056D01*
X122124946Y-54369181D01*
X121950151Y-54752067D01*
X121935186Y-55172700D01*
X93296321Y-55172700D01*
X93524691Y-55019035D01*
X93620221Y-54875054D01*
X110369181Y-54875054D01*
X110752067Y-55049849D01*
X111172700Y-55064814D01*
X111567040Y-54917670D01*
X111630819Y-54875054D01*
X111625944Y-54631601D01*
X111000000Y-54005657D01*
X110374056Y-54631601D01*
X110369181Y-54875054D01*
X93620221Y-54875054D01*
X93790674Y-54618154D01*
X93867188Y-54346834D01*
X93710337Y-54172700D01*
X109935186Y-54172700D01*
X110082330Y-54567040D01*
X110124946Y-54630819D01*
X110368399Y-54625944D01*
X110994343Y-54000000D01*
X111005657Y-54000000D01*
X111631601Y-54625944D01*
X111875054Y-54630819D01*
X112049849Y-54247933D01*
X112054224Y-54124946D01*
X122369181Y-54124946D01*
X122374056Y-54368399D01*
X123000000Y-54994343D01*
X123625944Y-54368399D01*
X123630819Y-54124946D01*
X123247933Y-53950151D01*
X122827300Y-53935186D01*
X122432960Y-54082330D01*
X122369181Y-54124946D01*
X112054224Y-54124946D01*
X112064814Y-53827300D01*
X111917670Y-53432960D01*
X111875054Y-53369181D01*
X111631601Y-53374056D01*
X111005657Y-54000000D01*
X110994343Y-54000000D01*
X110368399Y-53374056D01*
X110124946Y-53369181D01*
X109950151Y-53752067D01*
X109935186Y-54172700D01*
X93710337Y-54172700D01*
X93693492Y-54154000D01*
X92504000Y-54154000D01*
X92496000Y-54154000D01*
X91306508Y-54154000D01*
X91132812Y-54346834D01*
X88867188Y-54346834D01*
X88693492Y-54154000D01*
X87504000Y-54154000D01*
X87496000Y-54154000D01*
X86306508Y-54154000D01*
X86132812Y-54346834D01*
X75509768Y-54346834D01*
X75400000Y-54325000D01*
X74014666Y-54325000D01*
X74049849Y-54247933D01*
X74060336Y-53953166D01*
X86132812Y-53953166D01*
X86306508Y-54146000D01*
X87496000Y-54146000D01*
X87496000Y-52917000D01*
X87504000Y-52917000D01*
X87504000Y-54146000D01*
X88693492Y-54146000D01*
X88867188Y-53953166D01*
X91132812Y-53953166D01*
X91306508Y-54146000D01*
X92496000Y-54146000D01*
X92496000Y-52917000D01*
X92504000Y-52917000D01*
X92504000Y-54146000D01*
X93693492Y-54146000D01*
X93867188Y-53953166D01*
X93790674Y-53681846D01*
X93524691Y-53280965D01*
X93292824Y-53124946D01*
X110369181Y-53124946D01*
X110374056Y-53368399D01*
X111000000Y-53994343D01*
X111625944Y-53368399D01*
X111630819Y-53124946D01*
X111247933Y-52950151D01*
X110827300Y-52935186D01*
X110432960Y-53082330D01*
X110369181Y-53124946D01*
X93292824Y-53124946D01*
X93125544Y-53012387D01*
X92654000Y-52917000D01*
X92504000Y-52917000D01*
X92496000Y-52917000D01*
X92346000Y-52917000D01*
X91874456Y-53012387D01*
X91475309Y-53280965D01*
X91209326Y-53681846D01*
X91132812Y-53953166D01*
X88867188Y-53953166D01*
X88790674Y-53681846D01*
X88524691Y-53280965D01*
X88125544Y-53012387D01*
X87654000Y-52917000D01*
X87504000Y-52917000D01*
X87496000Y-52917000D01*
X87346000Y-52917000D01*
X86874456Y-53012387D01*
X86475309Y-53280965D01*
X86209326Y-53681846D01*
X86132812Y-53953166D01*
X74060336Y-53953166D01*
X74064814Y-53827300D01*
X73917670Y-53432960D01*
X73875054Y-53369181D01*
X73631601Y-53374056D01*
X73005657Y-54000000D01*
X73019799Y-54014142D01*
X73014142Y-54019799D01*
X73000000Y-54005657D01*
X72985858Y-54019799D01*
X72980201Y-54014142D01*
X72994343Y-54000000D01*
X72368399Y-53374056D01*
X72124946Y-53369181D01*
X71950151Y-53752067D01*
X71935186Y-54172700D01*
X71992015Y-54325000D01*
X66460000Y-54325000D01*
X66125152Y-54391605D01*
X65841281Y-54581282D01*
X63540121Y-56882442D01*
X63200000Y-56814788D01*
X62582502Y-56937616D01*
X62059012Y-57287400D01*
X61709228Y-57810890D01*
X61586400Y-58428388D01*
X61586400Y-58491612D01*
X61709228Y-59109110D01*
X61961377Y-59486479D01*
X61803202Y-59588262D01*
X61631954Y-59838892D01*
X61571707Y-60136400D01*
X50825000Y-60136400D01*
X50825000Y-60081257D01*
X51538338Y-56495065D01*
X52620794Y-54875054D01*
X59369181Y-54875054D01*
X59752067Y-55049849D01*
X60172700Y-55064814D01*
X60567040Y-54917670D01*
X60630819Y-54875054D01*
X60625944Y-54631601D01*
X60000000Y-54005657D01*
X59374056Y-54631601D01*
X59369181Y-54875054D01*
X52620794Y-54875054D01*
X53090092Y-54172700D01*
X58935186Y-54172700D01*
X59082330Y-54567040D01*
X59124946Y-54630819D01*
X59368399Y-54625944D01*
X59994343Y-54000000D01*
X60005657Y-54000000D01*
X60631601Y-54625944D01*
X60875054Y-54630819D01*
X61049849Y-54247933D01*
X61064814Y-53827300D01*
X60917670Y-53432960D01*
X60875054Y-53369181D01*
X60631601Y-53374056D01*
X60005657Y-54000000D01*
X59994343Y-54000000D01*
X59368399Y-53374056D01*
X59124946Y-53369181D01*
X58950151Y-53752067D01*
X58935186Y-54172700D01*
X53090092Y-54172700D01*
X53523724Y-53523724D01*
X54120537Y-53124946D01*
X59369181Y-53124946D01*
X59374056Y-53368399D01*
X60000000Y-53994343D01*
X60625944Y-53368399D01*
X60630819Y-53124946D01*
X72369181Y-53124946D01*
X72374056Y-53368399D01*
X73000000Y-53994343D01*
X73625944Y-53368399D01*
X73630819Y-53124946D01*
X73247933Y-52950151D01*
X72827300Y-52935186D01*
X72432960Y-53082330D01*
X72369181Y-53124946D01*
X60630819Y-53124946D01*
X60247933Y-52950151D01*
X59827300Y-52935186D01*
X59432960Y-53082330D01*
X59369181Y-53124946D01*
X54120537Y-53124946D01*
X56495064Y-51538338D01*
X56919059Y-51454000D01*
X85242000Y-51454000D01*
X85242000Y-51729000D01*
X85339290Y-52210111D01*
X85613288Y-52617369D01*
X86022280Y-52888771D01*
X86299256Y-52966880D01*
X86496000Y-52793493D01*
X86496000Y-51454000D01*
X86504000Y-51454000D01*
X86504000Y-52793493D01*
X86700744Y-52966880D01*
X86977720Y-52888771D01*
X87386712Y-52617369D01*
X87660710Y-52210111D01*
X87758000Y-51729000D01*
X87758000Y-51454000D01*
X92242000Y-51454000D01*
X92242000Y-51729000D01*
X92339290Y-52210111D01*
X92613288Y-52617369D01*
X93022280Y-52888771D01*
X93299256Y-52966880D01*
X93496000Y-52793493D01*
X93496000Y-51454000D01*
X93504000Y-51454000D01*
X93504000Y-52793493D01*
X93700744Y-52966880D01*
X93977720Y-52888771D01*
X94386712Y-52617369D01*
X94660710Y-52210111D01*
X94758000Y-51729000D01*
X94758000Y-51454000D01*
X93504000Y-51454000D01*
X93496000Y-51454000D01*
X92242000Y-51454000D01*
X87758000Y-51454000D01*
X86504000Y-51454000D01*
X86496000Y-51454000D01*
X85242000Y-51454000D01*
X56919059Y-51454000D01*
X60081256Y-50825000D01*
X85311968Y-50825000D01*
X85242000Y-51171000D01*
G36*
X70250000Y-93842000D02*
X70218500Y-93842000D01*
X70029000Y-94031500D01*
X70029000Y-94290131D01*
X70022741Y-94299292D01*
X70021000Y-94296587D01*
X70021000Y-94031500D01*
X69831500Y-93842000D01*
X69800000Y-93842000D01*
X69800000Y-88237436D01*
X70250000Y-87787436D01*
X70250000Y-93842000D01*
X70250000Y-93842000D01*
G37*
X70250000Y-93842000D02*
X70218500Y-93842000D01*
X70029000Y-94031500D01*
X70029000Y-94290131D01*
X70022741Y-94299292D01*
X70021000Y-94296587D01*
X70021000Y-94031500D01*
X69831500Y-93842000D01*
X69800000Y-93842000D01*
X69800000Y-88237436D01*
X70250000Y-87787436D01*
X70250000Y-93842000D01*
M02*
