G04 #@! TF.FileFunction,Paste,Top*
%FSLAX46Y46*%
G04 Gerber Fmt 4.6, Leading zero omitted, Abs format (unit mm)*
G04 Created by KiCad (PCBNEW 4.0.7) date Tue Jan 16 16:57:22 2018*
%MOMM*%
%LPD*%
G01*
G04 APERTURE LIST*
%ADD10C,0.100000*%
%ADD11R,1.250000X1.000000*%
%ADD12R,1.600000X1.000000*%
%ADD13R,0.800000X0.750000*%
%ADD14R,0.750000X0.800000*%
%ADD15R,0.800000X0.800000*%
%ADD16R,1.800000X2.500000*%
%ADD17R,2.500000X1.800000*%
%ADD18R,0.900000X0.500000*%
%ADD19R,0.400000X1.350000*%
%ADD20R,0.500000X0.900000*%
%ADD21R,1.000000X1.550000*%
%ADD22R,2.000000X3.800000*%
%ADD23R,2.000000X1.500000*%
%ADD24R,0.650000X1.060000*%
%ADD25R,1.000000X1.150000*%
G04 APERTURE END LIST*
D10*
D11*
X122000000Y-72800000D03*
X122000000Y-74800000D03*
D12*
X119400000Y-74900000D03*
X119400000Y-77900000D03*
D13*
X99750000Y-52200000D03*
X98250000Y-52200000D03*
D14*
X64800000Y-67650000D03*
X64800000Y-69150000D03*
X79000000Y-81750000D03*
X79000000Y-80250000D03*
D13*
X81050000Y-83800000D03*
X82550000Y-83800000D03*
D14*
X55600000Y-72550000D03*
X55600000Y-71050000D03*
X55800000Y-82550000D03*
X55800000Y-81050000D03*
D13*
X99750000Y-78600000D03*
X98250000Y-78600000D03*
X84650000Y-83000000D03*
X86150000Y-83000000D03*
X79450000Y-77200000D03*
X80950000Y-77200000D03*
X81950000Y-71800000D03*
X80450000Y-71800000D03*
X100550000Y-77000000D03*
X99050000Y-77000000D03*
X93350000Y-66600000D03*
X91850000Y-66600000D03*
D14*
X93400000Y-84550000D03*
X93400000Y-83050000D03*
D15*
X62400000Y-81000000D03*
X64000000Y-81000000D03*
X62400000Y-75000000D03*
X64000000Y-75000000D03*
X62400000Y-77000000D03*
X64000000Y-77000000D03*
X62400000Y-79000000D03*
X64000000Y-79000000D03*
D16*
X106200000Y-77000000D03*
X106200000Y-73000000D03*
D15*
X104400000Y-56400000D03*
X102800000Y-56400000D03*
D17*
X71600000Y-69000000D03*
X67600000Y-69000000D03*
D18*
X99800000Y-58450000D03*
X99800000Y-59950000D03*
D19*
X91300000Y-54150000D03*
X90650000Y-54150000D03*
X90000000Y-54150000D03*
X89350000Y-54150000D03*
X88700000Y-54150000D03*
D20*
X67550000Y-81000000D03*
X66050000Y-81000000D03*
X67550000Y-75000000D03*
X66050000Y-75000000D03*
X67550000Y-77000000D03*
X66050000Y-77000000D03*
X67550000Y-79000000D03*
X66050000Y-79000000D03*
D18*
X96600000Y-61050000D03*
X96600000Y-62550000D03*
X94600000Y-61050000D03*
X94600000Y-62550000D03*
D20*
X102950000Y-52200000D03*
X101450000Y-52200000D03*
D18*
X96800000Y-54650000D03*
X96800000Y-56150000D03*
D20*
X102850000Y-58400000D03*
X104350000Y-58400000D03*
X84850000Y-87400000D03*
X86350000Y-87400000D03*
D18*
X94400000Y-89150000D03*
X94400000Y-87650000D03*
X55600000Y-67650000D03*
X55600000Y-69150000D03*
X55800000Y-79150000D03*
X55800000Y-77650000D03*
D21*
X52650000Y-67375000D03*
X52650000Y-72625000D03*
X50950000Y-72625000D03*
X50950000Y-67375000D03*
X52650000Y-77375000D03*
X52650000Y-82625000D03*
X50950000Y-82625000D03*
X50950000Y-77375000D03*
D22*
X110050000Y-75000000D03*
D23*
X116350000Y-75000000D03*
X116350000Y-72700000D03*
X116350000Y-77300000D03*
D24*
X98850000Y-56300000D03*
X99800000Y-56300000D03*
X100750000Y-56300000D03*
X100750000Y-54100000D03*
X98850000Y-54100000D03*
X99800000Y-54100000D03*
D10*
G36*
X83052676Y-76820800D02*
X82875899Y-76644023D01*
X83583006Y-75936916D01*
X83759783Y-76113693D01*
X83052676Y-76820800D01*
X83052676Y-76820800D01*
G37*
G36*
X83406229Y-77174354D02*
X83229452Y-76997577D01*
X83936559Y-76290470D01*
X84113336Y-76467247D01*
X83406229Y-77174354D01*
X83406229Y-77174354D01*
G37*
G36*
X83759783Y-77527907D02*
X83583006Y-77351130D01*
X84290113Y-76644023D01*
X84466890Y-76820800D01*
X83759783Y-77527907D01*
X83759783Y-77527907D01*
G37*
G36*
X84113336Y-77881460D02*
X83936559Y-77704683D01*
X84643666Y-76997576D01*
X84820443Y-77174353D01*
X84113336Y-77881460D01*
X84113336Y-77881460D01*
G37*
G36*
X84466889Y-78235014D02*
X84290112Y-78058237D01*
X84997219Y-77351130D01*
X85173996Y-77527907D01*
X84466889Y-78235014D01*
X84466889Y-78235014D01*
G37*
G36*
X84820443Y-78588567D02*
X84643666Y-78411790D01*
X85350773Y-77704683D01*
X85527550Y-77881460D01*
X84820443Y-78588567D01*
X84820443Y-78588567D01*
G37*
G36*
X85173996Y-78942121D02*
X84997219Y-78765344D01*
X85704326Y-78058237D01*
X85881103Y-78235014D01*
X85173996Y-78942121D01*
X85173996Y-78942121D01*
G37*
G36*
X85527550Y-79295674D02*
X85350773Y-79118897D01*
X86057880Y-78411790D01*
X86234657Y-78588567D01*
X85527550Y-79295674D01*
X85527550Y-79295674D01*
G37*
G36*
X85881103Y-79649227D02*
X85704326Y-79472450D01*
X86411433Y-78765343D01*
X86588210Y-78942120D01*
X85881103Y-79649227D01*
X85881103Y-79649227D01*
G37*
G36*
X86234656Y-80002781D02*
X86057879Y-79826004D01*
X86764986Y-79118897D01*
X86941763Y-79295674D01*
X86234656Y-80002781D01*
X86234656Y-80002781D01*
G37*
G36*
X86588210Y-80356334D02*
X86411433Y-80179557D01*
X87118540Y-79472450D01*
X87295317Y-79649227D01*
X86588210Y-80356334D01*
X86588210Y-80356334D01*
G37*
G36*
X86941763Y-80709888D02*
X86764986Y-80533111D01*
X87472093Y-79826004D01*
X87648870Y-80002781D01*
X86941763Y-80709888D01*
X86941763Y-80709888D01*
G37*
G36*
X87295317Y-81063441D02*
X87118540Y-80886664D01*
X87825647Y-80179557D01*
X88002424Y-80356334D01*
X87295317Y-81063441D01*
X87295317Y-81063441D01*
G37*
G36*
X87648870Y-81416994D02*
X87472093Y-81240217D01*
X88179200Y-80533110D01*
X88355977Y-80709887D01*
X87648870Y-81416994D01*
X87648870Y-81416994D01*
G37*
G36*
X88002423Y-81770548D02*
X87825646Y-81593771D01*
X88532753Y-80886664D01*
X88709530Y-81063441D01*
X88002423Y-81770548D01*
X88002423Y-81770548D01*
G37*
G36*
X88355977Y-82124101D02*
X88179200Y-81947324D01*
X88886307Y-81240217D01*
X89063084Y-81416994D01*
X88355977Y-82124101D01*
X88355977Y-82124101D01*
G37*
G36*
X91820800Y-81947324D02*
X91644023Y-82124101D01*
X90936916Y-81416994D01*
X91113693Y-81240217D01*
X91820800Y-81947324D01*
X91820800Y-81947324D01*
G37*
G36*
X92174354Y-81593771D02*
X91997577Y-81770548D01*
X91290470Y-81063441D01*
X91467247Y-80886664D01*
X92174354Y-81593771D01*
X92174354Y-81593771D01*
G37*
G36*
X92527907Y-81240217D02*
X92351130Y-81416994D01*
X91644023Y-80709887D01*
X91820800Y-80533110D01*
X92527907Y-81240217D01*
X92527907Y-81240217D01*
G37*
G36*
X92881460Y-80886664D02*
X92704683Y-81063441D01*
X91997576Y-80356334D01*
X92174353Y-80179557D01*
X92881460Y-80886664D01*
X92881460Y-80886664D01*
G37*
G36*
X93235014Y-80533111D02*
X93058237Y-80709888D01*
X92351130Y-80002781D01*
X92527907Y-79826004D01*
X93235014Y-80533111D01*
X93235014Y-80533111D01*
G37*
G36*
X93588567Y-80179557D02*
X93411790Y-80356334D01*
X92704683Y-79649227D01*
X92881460Y-79472450D01*
X93588567Y-80179557D01*
X93588567Y-80179557D01*
G37*
G36*
X93942121Y-79826004D02*
X93765344Y-80002781D01*
X93058237Y-79295674D01*
X93235014Y-79118897D01*
X93942121Y-79826004D01*
X93942121Y-79826004D01*
G37*
G36*
X94295674Y-79472450D02*
X94118897Y-79649227D01*
X93411790Y-78942120D01*
X93588567Y-78765343D01*
X94295674Y-79472450D01*
X94295674Y-79472450D01*
G37*
G36*
X94649227Y-79118897D02*
X94472450Y-79295674D01*
X93765343Y-78588567D01*
X93942120Y-78411790D01*
X94649227Y-79118897D01*
X94649227Y-79118897D01*
G37*
G36*
X95002781Y-78765344D02*
X94826004Y-78942121D01*
X94118897Y-78235014D01*
X94295674Y-78058237D01*
X95002781Y-78765344D01*
X95002781Y-78765344D01*
G37*
G36*
X95356334Y-78411790D02*
X95179557Y-78588567D01*
X94472450Y-77881460D01*
X94649227Y-77704683D01*
X95356334Y-78411790D01*
X95356334Y-78411790D01*
G37*
G36*
X95709888Y-78058237D02*
X95533111Y-78235014D01*
X94826004Y-77527907D01*
X95002781Y-77351130D01*
X95709888Y-78058237D01*
X95709888Y-78058237D01*
G37*
G36*
X96063441Y-77704683D02*
X95886664Y-77881460D01*
X95179557Y-77174353D01*
X95356334Y-76997576D01*
X96063441Y-77704683D01*
X96063441Y-77704683D01*
G37*
G36*
X96416994Y-77351130D02*
X96240217Y-77527907D01*
X95533110Y-76820800D01*
X95709887Y-76644023D01*
X96416994Y-77351130D01*
X96416994Y-77351130D01*
G37*
G36*
X96770548Y-76997577D02*
X96593771Y-77174354D01*
X95886664Y-76467247D01*
X96063441Y-76290470D01*
X96770548Y-76997577D01*
X96770548Y-76997577D01*
G37*
G36*
X97124101Y-76644023D02*
X96947324Y-76820800D01*
X96240217Y-76113693D01*
X96416994Y-75936916D01*
X97124101Y-76644023D01*
X97124101Y-76644023D01*
G37*
G36*
X96416994Y-74063084D02*
X96240217Y-73886307D01*
X96947324Y-73179200D01*
X97124101Y-73355977D01*
X96416994Y-74063084D01*
X96416994Y-74063084D01*
G37*
G36*
X96063441Y-73709530D02*
X95886664Y-73532753D01*
X96593771Y-72825646D01*
X96770548Y-73002423D01*
X96063441Y-73709530D01*
X96063441Y-73709530D01*
G37*
G36*
X95709887Y-73355977D02*
X95533110Y-73179200D01*
X96240217Y-72472093D01*
X96416994Y-72648870D01*
X95709887Y-73355977D01*
X95709887Y-73355977D01*
G37*
G36*
X95356334Y-73002424D02*
X95179557Y-72825647D01*
X95886664Y-72118540D01*
X96063441Y-72295317D01*
X95356334Y-73002424D01*
X95356334Y-73002424D01*
G37*
G36*
X95002781Y-72648870D02*
X94826004Y-72472093D01*
X95533111Y-71764986D01*
X95709888Y-71941763D01*
X95002781Y-72648870D01*
X95002781Y-72648870D01*
G37*
G36*
X94649227Y-72295317D02*
X94472450Y-72118540D01*
X95179557Y-71411433D01*
X95356334Y-71588210D01*
X94649227Y-72295317D01*
X94649227Y-72295317D01*
G37*
G36*
X94295674Y-71941763D02*
X94118897Y-71764986D01*
X94826004Y-71057879D01*
X95002781Y-71234656D01*
X94295674Y-71941763D01*
X94295674Y-71941763D01*
G37*
G36*
X93942120Y-71588210D02*
X93765343Y-71411433D01*
X94472450Y-70704326D01*
X94649227Y-70881103D01*
X93942120Y-71588210D01*
X93942120Y-71588210D01*
G37*
G36*
X93588567Y-71234657D02*
X93411790Y-71057880D01*
X94118897Y-70350773D01*
X94295674Y-70527550D01*
X93588567Y-71234657D01*
X93588567Y-71234657D01*
G37*
G36*
X93235014Y-70881103D02*
X93058237Y-70704326D01*
X93765344Y-69997219D01*
X93942121Y-70173996D01*
X93235014Y-70881103D01*
X93235014Y-70881103D01*
G37*
G36*
X92881460Y-70527550D02*
X92704683Y-70350773D01*
X93411790Y-69643666D01*
X93588567Y-69820443D01*
X92881460Y-70527550D01*
X92881460Y-70527550D01*
G37*
G36*
X92527907Y-70173996D02*
X92351130Y-69997219D01*
X93058237Y-69290112D01*
X93235014Y-69466889D01*
X92527907Y-70173996D01*
X92527907Y-70173996D01*
G37*
G36*
X92174353Y-69820443D02*
X91997576Y-69643666D01*
X92704683Y-68936559D01*
X92881460Y-69113336D01*
X92174353Y-69820443D01*
X92174353Y-69820443D01*
G37*
G36*
X91820800Y-69466890D02*
X91644023Y-69290113D01*
X92351130Y-68583006D01*
X92527907Y-68759783D01*
X91820800Y-69466890D01*
X91820800Y-69466890D01*
G37*
G36*
X91467247Y-69113336D02*
X91290470Y-68936559D01*
X91997577Y-68229452D01*
X92174354Y-68406229D01*
X91467247Y-69113336D01*
X91467247Y-69113336D01*
G37*
G36*
X91113693Y-68759783D02*
X90936916Y-68583006D01*
X91644023Y-67875899D01*
X91820800Y-68052676D01*
X91113693Y-68759783D01*
X91113693Y-68759783D01*
G37*
G36*
X89063084Y-68583006D02*
X88886307Y-68759783D01*
X88179200Y-68052676D01*
X88355977Y-67875899D01*
X89063084Y-68583006D01*
X89063084Y-68583006D01*
G37*
G36*
X88709530Y-68936559D02*
X88532753Y-69113336D01*
X87825646Y-68406229D01*
X88002423Y-68229452D01*
X88709530Y-68936559D01*
X88709530Y-68936559D01*
G37*
G36*
X88355977Y-69290113D02*
X88179200Y-69466890D01*
X87472093Y-68759783D01*
X87648870Y-68583006D01*
X88355977Y-69290113D01*
X88355977Y-69290113D01*
G37*
G36*
X88002424Y-69643666D02*
X87825647Y-69820443D01*
X87118540Y-69113336D01*
X87295317Y-68936559D01*
X88002424Y-69643666D01*
X88002424Y-69643666D01*
G37*
G36*
X87648870Y-69997219D02*
X87472093Y-70173996D01*
X86764986Y-69466889D01*
X86941763Y-69290112D01*
X87648870Y-69997219D01*
X87648870Y-69997219D01*
G37*
G36*
X87295317Y-70350773D02*
X87118540Y-70527550D01*
X86411433Y-69820443D01*
X86588210Y-69643666D01*
X87295317Y-70350773D01*
X87295317Y-70350773D01*
G37*
G36*
X86941763Y-70704326D02*
X86764986Y-70881103D01*
X86057879Y-70173996D01*
X86234656Y-69997219D01*
X86941763Y-70704326D01*
X86941763Y-70704326D01*
G37*
G36*
X86588210Y-71057880D02*
X86411433Y-71234657D01*
X85704326Y-70527550D01*
X85881103Y-70350773D01*
X86588210Y-71057880D01*
X86588210Y-71057880D01*
G37*
G36*
X86234657Y-71411433D02*
X86057880Y-71588210D01*
X85350773Y-70881103D01*
X85527550Y-70704326D01*
X86234657Y-71411433D01*
X86234657Y-71411433D01*
G37*
G36*
X85881103Y-71764986D02*
X85704326Y-71941763D01*
X84997219Y-71234656D01*
X85173996Y-71057879D01*
X85881103Y-71764986D01*
X85881103Y-71764986D01*
G37*
G36*
X85527550Y-72118540D02*
X85350773Y-72295317D01*
X84643666Y-71588210D01*
X84820443Y-71411433D01*
X85527550Y-72118540D01*
X85527550Y-72118540D01*
G37*
G36*
X85173996Y-72472093D02*
X84997219Y-72648870D01*
X84290112Y-71941763D01*
X84466889Y-71764986D01*
X85173996Y-72472093D01*
X85173996Y-72472093D01*
G37*
G36*
X84820443Y-72825647D02*
X84643666Y-73002424D01*
X83936559Y-72295317D01*
X84113336Y-72118540D01*
X84820443Y-72825647D01*
X84820443Y-72825647D01*
G37*
G36*
X84466890Y-73179200D02*
X84290113Y-73355977D01*
X83583006Y-72648870D01*
X83759783Y-72472093D01*
X84466890Y-73179200D01*
X84466890Y-73179200D01*
G37*
G36*
X84113336Y-73532753D02*
X83936559Y-73709530D01*
X83229452Y-73002423D01*
X83406229Y-72825646D01*
X84113336Y-73532753D01*
X84113336Y-73532753D01*
G37*
G36*
X83759783Y-73886307D02*
X83583006Y-74063084D01*
X82875899Y-73355977D01*
X83052676Y-73179200D01*
X83759783Y-73886307D01*
X83759783Y-73886307D01*
G37*
D25*
X81100000Y-80125000D03*
X81100000Y-81875000D03*
X82500000Y-81875000D03*
X82500000Y-80125000D03*
D13*
X90750000Y-85000000D03*
X89250000Y-85000000D03*
D14*
X70000000Y-93650000D03*
X70000000Y-95150000D03*
M02*
