G04 #@! TF.FileFunction,Soldermask,Bot*
%FSLAX46Y46*%
G04 Gerber Fmt 4.6, Leading zero omitted, Abs format (unit mm)*
G04 Created by KiCad (PCBNEW 4.0.7) date Tue Jan 16 16:57:22 2018*
%MOMM*%
%LPD*%
G01*
G04 APERTURE LIST*
%ADD10C,0.100000*%
%ADD11R,2.900000X1.500000*%
%ADD12R,1.500000X2.900000*%
%ADD13R,1.200000X1.900000*%
%ADD14R,1.850000X2.400000*%
%ADD15O,1.650000X1.350000*%
%ADD16O,1.400000X1.950000*%
%ADD17R,2.100000X2.100000*%
%ADD18O,2.100000X2.100000*%
%ADD19R,1.000000X2.200000*%
%ADD20R,1.400000X3.200000*%
%ADD21R,2.127200X2.127200*%
%ADD22O,2.127200X2.127200*%
G04 APERTURE END LIST*
D10*
D11*
X82300000Y-97400000D03*
X82300000Y-95400000D03*
X82300000Y-93400000D03*
X82300000Y-91400000D03*
X82300000Y-89400000D03*
X82300000Y-87400000D03*
X82300000Y-85400000D03*
X82300000Y-83400000D03*
X97700000Y-83400000D03*
X97700000Y-85400000D03*
X97700000Y-87400000D03*
X97700000Y-89400000D03*
X97700000Y-91400000D03*
X97700000Y-93400000D03*
X97700000Y-95400000D03*
X97700000Y-97400000D03*
D12*
X84990000Y-81700000D03*
X86990000Y-81700000D03*
X88990000Y-81700000D03*
X90990000Y-81700000D03*
X92990000Y-81700000D03*
X94990000Y-81700000D03*
D13*
X64525000Y-95350000D03*
X65625000Y-95350000D03*
X66725000Y-95350000D03*
X67825000Y-95350000D03*
X68925000Y-95350000D03*
X70025000Y-95350000D03*
X71125000Y-95350000D03*
X72225000Y-95350000D03*
D14*
X60925000Y-89650000D03*
X60925000Y-97950000D03*
X74675000Y-89650000D03*
X74675000Y-97950000D03*
D15*
X92500000Y-54150000D03*
X87500000Y-54150000D03*
D16*
X93500000Y-51450000D03*
X86500000Y-51450000D03*
D17*
X121350000Y-88730000D03*
D18*
X121350000Y-91270000D03*
X118810000Y-88730000D03*
X118810000Y-91270000D03*
X116270000Y-88730000D03*
X116270000Y-91270000D03*
X113730000Y-88730000D03*
X113730000Y-91270000D03*
X111190000Y-88730000D03*
X111190000Y-91270000D03*
X108650000Y-88730000D03*
X108650000Y-91270000D03*
D17*
X121350000Y-58730000D03*
D18*
X121350000Y-61270000D03*
X118810000Y-58730000D03*
X118810000Y-61270000D03*
X116270000Y-58730000D03*
X116270000Y-61270000D03*
X113730000Y-58730000D03*
X113730000Y-61270000D03*
X111190000Y-58730000D03*
X111190000Y-61270000D03*
X108650000Y-58730000D03*
X108650000Y-61270000D03*
D19*
X94825000Y-59000000D03*
X93575000Y-59000000D03*
D20*
X91850000Y-62200000D03*
X96550000Y-62200000D03*
D21*
X63200000Y-61000000D03*
D22*
X63200000Y-58460000D03*
X65740000Y-61000000D03*
X65740000Y-58460000D03*
X68280000Y-61000000D03*
X68280000Y-58460000D03*
X70820000Y-61000000D03*
X70820000Y-58460000D03*
X73360000Y-61000000D03*
X73360000Y-58460000D03*
M02*
